<?xml version="1.0" encoding="utf-8"?>
<!-- Generator: Adobe Illustrator 24.0.1, SVG Export Plug-In . SVG Version: 6.00 Build 0)  -->
<svg version="1.1" id="Brain" xmlns="http://www.w3.org/2000/svg" xmlns:xlink="http://www.w3.org/1999/xlink" x="0px" y="0px"
	 viewBox="0 0 52 52" style="enable-background:new 0 0 52 52;" xml:space="preserve">
<style type="text/css">
	.st0{fill:#0097A9;}
</style>
<path class="st0" d="M37.8,24.4c-0.2-0.1-0.4-0.4-0.5-0.7s0-0.6,0.2-0.8c0.3-0.4,0.5-0.9,0.5-1.4c0-1.4-1.1-2.5-2.5-2.5
	c-0.1,0-0.3,0-0.4,0c-0.3,0-0.5,0-0.8-0.2c-0.2-0.2-0.4-0.4-0.4-0.7c-0.2-1.2-1.2-2.2-2.5-2.2c-0.5,0-1,0.2-1.5,0.5
	c-0.2,0.2-0.5,0.2-0.8,0.2c-0.3-0.1-0.5-0.2-0.7-0.5c-0.5-0.7-1.3-1.2-2.1-1.2c-0.7,0-1.4,0.3-1.9,0.9c-0.3,0.3-0.7,0.4-1.1,0.3
	c-1-0.4-2.2-0.1-2.9,0.7c-0.3,0.3-0.7,0.4-1.1,0.3c-0.3-0.1-0.6-0.2-0.9-0.2c-1.4,0-2.5,1.1-2.5,2.5c0,0.2,0,0.4,0.1,0.6
	c0.1,0.5-0.1,1-0.6,1.2C14,21.9,13,23.4,13,25c0,2.2,1.8,4,4,4c0.7,0,1.4-0.2,2-0.6c0.5-0.3,1.1-0.1,1.4,0.3
	c0.5,0.8,1.3,1.2,2.1,1.2c0.7,0,1.5-0.3,1.9-0.9c0.2-0.3,0.6-0.4,0.9-0.4c0.4,0.1,0.7,0.3,0.8,0.6c0.3,0.9,1.1,1.5,2,1.6
	c0.5,0.1,0.9,0.5,0.9,1v5h4.1c0.2-0.9,0.7-2.2,2-3.1c1.5-1,1.8-1.7,1.8-2.4c0-0.4-0.1-0.9-0.3-1.2c-0.1-0.3-0.2-0.6-0.1-0.9
	c0.1-0.3,0.3-0.5,0.6-0.6c1-0.3,1.7-1.3,1.7-2.4C39,25.6,38.6,24.8,37.8,24.4z M20.5,24.9c-0.4,0.2-0.8,0.1-1.1-0.1
	c-0.3-0.2-1.6,0.2-2.7,1.1c-0.3,0-0.5,0.1-0.7,0.1c-0.3,0-0.6-0.1-0.8-0.4c-0.3-0.4-0.2-1.1,0.2-1.4s1.9-1.3,3.4-1.5
	c-0.1-0.8-0.4-1.7-0.7-2.2c-0.3-0.5-0.1-1.1,0.4-1.4s1.1-0.1,1.4,0.4c0.8,1.5,1.1,4.1,1.1,4.4C21,24.3,20.8,24.7,20.5,24.9z
	 M23,20.5c0-0.2,0.2-0.6,1-1.1c-0.1-0.3,0-0.7,0.1-0.9c0.3-0.5,0.9-0.6,1.4-0.4c0.2,0.1,0.4,0.3,0.4,0.5c0,0,0.1,0,0.2,0
	c0.5,0,0.9,0.4,0.9,0.9s-0.2,0.9-0.7,1.1c-0.5,0.1-1,0.4-1.3,0.5c0,0.2-0.1,0.4-0.3,0.6C24.5,21.9,24.3,22,24,22s-0.5-0.1-0.7-0.3
	C23,21.4,22.8,21,23,20.5z M28.7,25.2c0.4,0.3,0.4,0.9,0.2,1.3C28.7,26.8,28.3,27,28,27c-0.1,0-0.3,0-0.4-0.1c-1.7-0.7-3.1,0-3.2,0
	c-0.5,0.2-1.1,0-1.3-0.5c-0.2-0.5,0-1.1,0.5-1.3c0.1,0,1.2-0.6,2.8-0.5c0-0.7,0.2-1.4,0.8-2.2c0.3-0.4,1-0.5,1.4-0.2s0.5,1,0.2,1.4
	C28,24.6,28.6,25.2,28.7,25.2z M32,20L32,20c0.5,0,1.5,0.3,2.8,2.5c0.3,0.5,0.2,1.1-0.3,1.4C34.4,24,34.2,24,34,24
	c-0.3,0-0.7-0.2-0.8-0.5c-0.8-1.2-1.2-1.5-1.3-1.6c-0.5-0.1-0.8-0.5-0.8-1C31,20.4,31.5,20,32,20z M36,27c-1.5,0-2,1.2-2,1.3l0,0
	l0,0c0,0.1-0.5,1.2-1.1,2.1c0,0.2,0.3,0.5,0.6,0.6c0.5,0.2,0.7,0.8,0.5,1.3c-0.3,0.5-0.6,0.7-1,0.7c-0.1,0-0.3,0-0.4-0.1
	c-0.2-0.1-1.3-0.7-1.7-1.8c-0.2-0.6-0.1-1.1,0.2-1.7c0.4-0.6,0.8-1.5,0.9-1.8c0-0.2-0.3-0.6-0.6-0.9c-0.4-0.3-0.5-1-0.2-1.4
	s1-0.5,1.4-0.2c0.1,0.1,0.4,0.3,0.7,0.7C34,25.4,34.8,25,36,25c0.6,0,1,0.5,1,1S36.5,27,36,27z M26,2C12.7,2,2,12.7,2,26
	s10.7,24,24,24s24-10.7,24-24S39.3,2,26,2z M38.8,30.3c0.1,0.4,0.2,0.8,0.2,1.1c0,2.1-1.4,3.3-2.8,4.1C35,36.4,35,38,35,38
	c0,0.5-0.5,1-1,1h-6c-0.6,0-1-0.4-1-1v-5.3c-0.8-0.3-1.5-0.8-2-1.5c-0.7,0.5-1.6,0.7-2.5,0.7c-1.3,0-2.4-0.5-3.3-1.4
	C18.5,30.9,17.8,31,17,31c-3.3,0-6-2.7-6-6c0-2.2,1.2-4.1,3-5.2c0-0.1,0-0.2,0-0.3c0-2.5,2-4.5,4.5-4.5c0.4,0,0.7,0,1,0.1
	c1.1-1,2.6-1.3,4-1c0.8-0.7,1.9-1.1,3-1.1c1.2,0,2.4,0.5,3.2,1.4c0.6-0.2,1.2-0.4,1.8-0.4c1.9,0,3.6,1.2,4.2,3
	c2.4,0.1,4.3,2.1,4.3,4.5c0,0.6-0.1,1.2-0.4,1.8c0.9,0.8,1.4,2,1.4,3.2C41,28.1,40.2,29.5,38.8,30.3z"/>
</svg>
