<?xml version="1.0" encoding="utf-8"?>
<!-- Generator: Adobe Illustrator 24.0.1, SVG Export Plug-In . SVG Version: 6.00 Build 0)  -->
<svg version="1.1" id="Shuffle" xmlns="http://www.w3.org/2000/svg" xmlns:xlink="http://www.w3.org/1999/xlink" x="0px" y="0px"
	 viewBox="0 0 52 52" style="enable-background:new 0 0 52 52;" xml:space="preserve">
<style type="text/css">
	.st0{fill:#0097A9;}
</style>
<path class="st0" d="M26,2C12.7,2,2,12.7,2,26s10.7,24,24,24s24-10.7,24-24S39.3,2,26,2z M35,20c-2.9,0-4.6,2.2-6.1,4.2
	c-0.4,0.5-0.8,1-1.1,1.4L27.3,26l0.4,0.5c0.4,0.4,0.7,0.9,1.1,1.4c1.5,1.9,3.3,4.2,6.1,4.2h2.6l-2.3-2.3c-0.4-0.4-0.4-1,0-1.4
	s1-0.4,1.4,0l4,4c0.1,0.1,0.2,0.2,0.2,0.3c0.1,0.2,0.1,0.5,0,0.8c-0.1,0.1-0.1,0.2-0.2,0.3l-4,4C36.5,37.9,36.3,38,36,38
	s-0.5-0.1-0.7-0.3c-0.4-0.4-0.4-1,0-1.4l2.3-2.3H35c-3.8,0-6.1-2.8-7.7-4.9c-0.4-0.5-0.7-0.9-1-1.3L26,27.5l-0.2,0.3
	c-0.3,0.4-0.7,0.8-1,1.3c-1.7,2.1-4,4.9-7.8,4.9h-5c-0.6,0-1-0.4-1-1s0.4-1,1-1h5c2.9,0,4.6-2.2,6.1-4.2c0.4-0.5,0.8-1,1.1-1.4
	l0.4-0.5l-0.4-0.5c-0.4-0.4-0.7-0.9-1.1-1.4c-1.5-1.8-3.2-4-6.1-4h-5c-0.6,0-1-0.4-1-1s0.4-1,1-1h5c3.8,0,6.1,2.8,7.7,4.9
	c0.4,0.5,0.7,0.9,1,1.3l0.3,0.3l0.2-0.3c0.3-0.4,0.7-0.8,1-1.3c1.6-2.1,3.9-4.9,7.7-4.9h2.6l-2.3-2.3c-0.4-0.4-0.4-1,0-1.4
	s1-0.4,1.4,0l4,4c0.1,0.1,0.2,0.2,0.2,0.3c0.1,0.2,0.1,0.5,0,0.8c-0.1,0.1-0.1,0.2-0.2,0.3l-4,4C36.5,23.9,36.3,24,36,24
	s-0.5-0.1-0.7-0.3c-0.4-0.4-0.4-1,0-1.4l2.3-2.3C37.6,20,35,20,35,20z"/>
</svg>
