<?xml version="1.0" encoding="utf-8"?>
<!-- Generator: Adobe Illustrator 24.0.1, SVG Export Plug-In . SVG Version: 6.00 Build 0)  -->
<svg version="1.1" id="Speech_2" xmlns="http://www.w3.org/2000/svg" xmlns:xlink="http://www.w3.org/1999/xlink" x="0px" y="0px"
	 viewBox="0 0 52 52" style="enable-background:new 0 0 52 52;" xml:space="preserve">
<style type="text/css">
	.st0{fill:#0097A9;}
</style>
<path class="st0" d="M26,2C12.7,2,2,12.7,2,26s10.7,24,24,24s24-10.7,24-24S39.3,2,26,2z M41,34c0,0.6-0.4,1-1,1H22.5l-4.7,5.6
	C17.6,40.9,17.3,41,17,41c-0.1,0-0.2,0-0.3-0.1C16.3,40.8,16,40.4,16,40v-5h-4c-0.6,0-1-0.4-1-1V16c0-0.6,0.4-1,1-1h28
	c0.6,0,1,0.4,1,1V34z M13,33h4c0.6,0,1,0.4,1,1v3.2l3.2-3.9c0.2-0.2,0.5-0.4,0.8-0.4h17V17H13V33z M16,20h20c0.6,0,1,0.4,1,1
	s-0.4,1-1,1H16c-0.6,0-1-0.4-1-1S15.4,20,16,20z M16,24h20c0.6,0,1,0.4,1,1s-0.4,1-1,1H16c-0.6,0-1-0.4-1-1S15.4,24,16,24z M16,28
	h20c0.6,0,1,0.4,1,1s-0.4,1-1,1H16c-0.6,0-1-0.4-1-1S15.4,28,16,28z"/>
</svg>
