<?xml version="1.0" encoding="utf-8"?>
<!-- Generator: Adobe Illustrator 24.0.1, SVG Export Plug-In . SVG Version: 6.00 Build 0)  -->
<svg version="1.1" id="Users" xmlns="http://www.w3.org/2000/svg" xmlns:xlink="http://www.w3.org/1999/xlink" x="0px" y="0px"
	 viewBox="0 0 52 52" style="enable-background:new 0 0 52 52;" xml:space="preserve">
<style type="text/css">
	.st0{fill:#0097A9;}
</style>
<path class="st0" d="M26,4c12.1,0,22,9.9,22,22s-9.9,22-22,22S4,38.1,4,26S13.9,4,26,4 M26,2C12.7,2,2,12.7,2,26s10.7,24,24,24
	s24-10.7,24-24S39.3,2,26,2L26,2z"/>
<path class="st0" d="M30.4,34.1c-1.4-0.6-2.5-0.7-3.5-0.7c-0.6,0-1.1-0.1-1.5-0.2c-0.6-0.3-1.2-2.2-1-2.8c0.8-1.1,1.6-3.1,2-4.8
	c0.7-3,0.4-5.3-0.9-6.9c-1.7-2.1-4.4-2.1-4.6-2.1s-2.9,0-4.6,2.1c-1.3,1.6-1.6,3.9-0.9,6.9c0.4,1.7,1.2,3.6,2,4.8
	c0.1,0.6-0.4,2.5-1,2.8c-0.3,0.2-0.8,0.2-1.5,0.2c-0.9,0-2.1,0.1-3.5,0.7c-0.5,0.2-0.7,0.8-0.5,1.3c0.2,0.4,0.5,0.6,0.9,0.6
	c0.1,0,0.3,0,0.4-0.1c1-0.5,1.9-0.5,2.7-0.6c0.8,0,1.6-0.1,2.3-0.5c1.3-0.7,1.8-2.6,1.9-3.1c0.2-0.8,0.3-1.9-0.2-2.5
	c-0.7-0.9-1.4-2.7-1.8-4.1c-0.6-2.3-0.4-4,0.5-5.1c1.1-1.3,3-1.3,3-1.3l0,0l0,0c0,0,1.9,0,3,1.3c0.9,1.1,1,2.8,0.5,5.1
	c-0.4,1.5-1.1,3.2-1.8,4.1c-0.5,0.7-0.4,1.7-0.2,2.5c0.1,0.6,0.7,2.4,1.9,3.1c0.7,0.4,1.5,0.4,2.3,0.5c0.9,0,1.7,0.1,2.7,0.6
	c0.7,0.1,0.8,0.1,1,0.1c0.4,0,0.7-0.2,0.9-0.6C31.1,34.9,30.9,34.3,30.4,34.1z"/>
<path class="st0" d="M40.5,32.2c-0.8-0.5-1.7-0.6-2.5-0.7c-0.5-0.1-1.1-0.2-1.4-0.3c-0.5-0.4-0.6-1.4-0.5-1.6
	c0.6-0.8,1.3-2.4,1.6-3.8c0.6-2.3,0.3-4.2-0.7-5.5c-1.5-1.8-3.8-1.8-4-1.8s-2.5,0-4,1.8c-1,1.3-1.3,3.1-0.7,5.5
	c0.3,1.4,1,2.9,1.6,3.8c0.1,0.2,0,1.2-0.5,1.7c-0.4,0.3-0.5,1-0.2,1.4c0.2,0.3,0.5,0.4,0.8,0.4c0.2,0,0.4-0.1,0.6-0.2
	c1.4-1,1.8-3.3,1-4.4c-0.5-0.7-1.1-2-1.3-3.1c-0.4-1.7-0.3-2.9,0.3-3.7c0.8-1,2.3-1,2.4-1s1.6,0,2.4,1c0.6,0.8,0.7,2,0.3,3.7
	c-0.3,1.1-0.8,2.5-1.3,3.1c-0.7,1-0.4,3.3,1,4.4c0,0,0,0,0.1,0.1c0.6,0.4,1.4,0.5,2.2,0.6c0.7,0.1,1.4,0.2,1.8,0.5
	c0.2,0.1,0.3,0.2,0.5,0.2c0.3,0,0.7-0.2,0.9-0.5C41.1,33.1,41,32.5,40.5,32.2z"/>
</svg>
