<?xml version="1.0" encoding="utf-8"?>
<!-- Generator: Adobe Illustrator 24.0.1, SVG Export Plug-In . SVG Version: 6.00 Build 0)  -->
<svg version="1.1" id="Brain" xmlns="http://www.w3.org/2000/svg" xmlns:xlink="http://www.w3.org/1999/xlink" x="0px" y="0px"
	 viewBox="0 0 52 52" style="enable-background:new 0 0 52 52;" xml:space="preserve">
<style type="text/css">
	.st0{fill:#0097A9;}
</style>
<path class="st0" d="M26,4c12.1,0,22,9.9,22,22s-9.9,22-22,22S4,38.1,4,26S13.9,4,26,4 M26,2C12.7,2,2,12.7,2,26s10.7,24,24,24
	s24-10.7,24-24S39.3,2,26,2L26,2z"/>
<path class="st0" d="M41,26.5c0-1.2-0.5-2.4-1.4-3.2c0.2-0.6,0.4-1.2,0.4-1.8c0-2.4-1.9-4.4-4.3-4.5c-0.6-1.8-2.3-3-4.2-3
	c-0.6,0-1.2,0.1-1.8,0.4c-0.8-0.9-2-1.4-3.2-1.4c-1.1,0-2.1,0.4-3,1.1c-1.4-0.3-2.9,0-4,1c-0.3-0.1-0.7-0.1-1-0.1
	C16,15,14,17,14,19.5c0,0.1,0,0.2,0,0.3c-1.9,1.1-3,3-3,5.2c0,3.3,2.7,6,6,6c0.8,0,1.5-0.1,2.2-0.4c0.8,0.9,2,1.4,3.3,1.4
	c0.9,0,1.7-0.3,2.5-0.7c0.5,0.7,1.2,1.2,2,1.5V38c0,0.6,0.4,1,1,1h6c0.5,0,1-0.4,1-1c0,0,0-1.6,1.2-2.4c1.3-0.8,2.8-2.1,2.8-4.1
	c0-0.4-0.1-0.8-0.2-1.1C40.2,29.5,41,28.1,41,26.5z M37.3,28.9c-0.3,0.1-0.5,0.3-0.6,0.6c-0.1,0.3-0.1,0.6,0.1,0.9
	c0.2,0.4,0.3,0.8,0.3,1.2c0,0.7-0.3,1.4-1.8,2.4c-1.3,0.8-1.8,2.2-2,3.1H29v-5c0-0.5-0.4-0.9-0.9-1c-0.9-0.1-1.7-0.8-2-1.6
	c-0.1-0.3-0.4-0.6-0.8-0.6c-0.4-0.1-0.7,0.1-0.9,0.4C24,29.7,23.2,30,22.5,30c-0.9,0-1.7-0.5-2.1-1.2c-0.3-0.5-0.9-0.6-1.4-0.3
	c-0.6,0.4-1.3,0.6-2,0.6c-2.2,0-4-1.8-4-4c0-1.6,1-3.1,2.5-3.7c0.5-0.2,0.7-0.7,0.6-1.2C16,19.9,16,19.7,16,19.5
	c0-1.4,1.1-2.5,2.5-2.5c0.3,0,0.6,0.1,0.9,0.2c0.4,0.2,0.9,0.1,1.1-0.3c0.7-0.8,1.9-1.1,2.9-0.7c0.4,0.2,0.9,0.1,1.1-0.3
	c0.5-0.6,1.2-0.9,1.9-0.9c0.9,0,1.7,0.4,2.1,1.2c0.1,0.2,0.4,0.4,0.7,0.5c0.3,0.1,0.6,0,0.8-0.2c0.4-0.3,0.9-0.5,1.5-0.5
	c1.2,0,2.3,0.9,2.5,2.2c0,0.3,0.2,0.5,0.4,0.7s0.5,0.2,0.8,0.2c0.1,0,0.3,0,0.4,0c1.4,0,2.5,1.1,2.5,2.5c0,0.5-0.2,1-0.5,1.4
	c-0.2,0.2-0.2,0.5-0.2,0.8s0.2,0.5,0.5,0.7c0.7,0.5,1.2,1.3,1.2,2.1C39,27.6,38.3,28.5,37.3,28.9z M19.9,19.5
	c0.8,1.5,1.1,4.1,1.1,4.4c0,0.4-0.2,0.8-0.5,1c-0.4,0.2-0.8,0.1-1.1-0.1c-0.3-0.2-1.6,0.2-2.7,1.1c-0.3,0-0.5,0.1-0.7,0.1
	c-0.3,0-0.6-0.1-0.8-0.4c-0.3-0.4-0.2-1.1,0.2-1.4s1.9-1.3,3.4-1.5c-0.1-0.8-0.4-1.7-0.7-2.2c-0.3-0.5-0.1-1.1,0.4-1.4
	C19,18.9,19.6,19,19.9,19.5z M23.3,21.7C23,21.4,22.8,21,23,20.5c0-0.2,0.2-0.6,1-1.1c-0.1-0.3,0-0.7,0.1-0.9
	c0.3-0.5,0.9-0.6,1.4-0.4c0.2,0.1,0.4,0.3,0.4,0.5c0,0,0.1,0,0.2,0c0.5,0,0.9,0.4,0.9,0.9s-0.2,0.9-0.7,1.1c-0.5,0.1-1,0.4-1.3,0.5
	c0,0.2-0.1,0.4-0.3,0.6C24.5,21.9,24.3,22,24,22S23.5,21.9,23.3,21.7z M28.8,23.6c-0.8,1-0.2,1.6-0.1,1.7c0.4,0.3,0.4,0.9,0.2,1.3
	C28.7,26.8,28.3,27,28,27c-0.1,0-0.3,0-0.4-0.1c-1.7-0.7-3.1,0-3.2,0c-0.5,0.2-1.1,0-1.3-0.5c-0.2-0.5,0-1.1,0.5-1.3
	c0.1,0,1.2-0.6,2.8-0.5c0-0.7,0.2-1.4,0.8-2.2c0.3-0.4,1-0.5,1.4-0.2C29,22.5,29.1,23.2,28.8,23.6z M31,21c0-0.5,0.5-1,1-1l0,0
	c0.5,0,1.5,0.3,2.8,2.5c0.3,0.5,0.2,1.1-0.3,1.4C34.4,24,34.2,24,34,24c-0.3,0-0.7-0.2-0.8-0.5c-0.8-1.2-1.2-1.5-1.3-1.6
	C31.4,21.9,31,21.5,31,21z M37,26c0,0.6-0.5,1-1,1c-1.5,0-2,1.2-2,1.3l0,0l0,0c0,0.1-0.5,1.2-1.1,2.1c0,0.2,0.3,0.5,0.6,0.6
	c0.5,0.2,0.7,0.8,0.5,1.3c-0.3,0.5-0.6,0.7-1,0.7c-0.1,0-0.3,0-0.4-0.1c-0.2-0.1-1.3-0.7-1.7-1.8c-0.2-0.6-0.1-1.1,0.2-1.7
	c0.4-0.6,0.8-1.5,0.9-1.8c0-0.2-0.3-0.6-0.6-0.9c-0.4-0.3-0.5-1-0.2-1.4s1-0.5,1.4-0.2c0.1,0.1,0.4,0.3,0.7,0.7
	C34,25.4,34.8,25,36,25C36.6,25,37,25.5,37,26z"/>
</svg>
