<?xml version="1.0" encoding="utf-8"?>
<!-- Generator: Adobe Illustrator 24.0.1, SVG Export Plug-In . SVG Version: 6.00 Build 0)  -->
<svg version="1.1" id="Users" xmlns="http://www.w3.org/2000/svg" xmlns:xlink="http://www.w3.org/1999/xlink" x="0px" y="0px"
	 viewBox="0 0 52 52" style="enable-background:new 0 0 52 52;" xml:space="preserve">
<style type="text/css">
	.st0{fill:#0097A9;}
</style>
<path class="st0" d="M26,2C12.7,2,2,12.7,2,26s10.7,24,24,24s24-10.7,24-24S39.3,2,26,2z M30.9,35.4C30.7,35.8,30.4,36,30,36
	c-0.1,0-0.3,0-0.4-0.1c-1-0.5-1.9-0.5-2.7-0.6c-0.8,0-1.6-0.1-2.3-0.5c-1.3-0.7-1.8-2.6-1.9-3.1c-0.2-0.8-0.3-1.9,0.2-2.5
	c0.7-0.9,1.4-2.7,1.8-4.1c0.6-2.3,0.4-4-0.5-5.1c-1.1-1.3-3-1.3-3-1.3l0,0l0,0c0,0-1.9,0-3,1.3c-0.9,1.1-1,2.8-0.5,5.1
	c0.4,1.5,1.1,3.2,1.8,4.1c0.5,0.7,0.4,1.7,0.2,2.5c-0.1,0.6-0.7,2.4-1.9,3.1c-0.7,0.4-1.5,0.4-2.3,0.5c-0.9,0-1.7,0.1-2.7,0.6
	C12.3,36,12.1,36,12,36c-0.4,0-0.7-0.2-0.9-0.6c-0.2-0.5,0-1.1,0.5-1.3c1.4-0.6,2.5-0.7,3.5-0.7c0.6,0,1.1-0.1,1.5-0.2
	c0.6-0.3,1.2-2.2,1-2.8c-0.8-1.1-1.6-3.1-2-4.8c-0.7-3-0.4-5.3,0.9-6.9c1.7-2.1,4.4-2.1,4.6-2.1s2.9,0,4.6,2.1
	c1.3,1.6,1.6,3.9,0.9,6.9c-0.4,1.7-1.2,3.6-2,4.8c-0.1,0.6,0.4,2.5,1,2.8c0.3,0.2,0.8,0.2,1.5,0.2c0.9,0,2.1,0.1,3.5,0.7
	C30.9,34.3,31.1,34.9,30.9,35.4z M40.8,33.6c-0.2,0.3-0.5,0.5-0.9,0.5c-0.2,0-0.4,0-0.5-0.2c-0.4-0.3-1.1-0.4-1.8-0.5
	c-0.8-0.1-1.6-0.2-2.2-0.6l-0.1-0.1c-1.4-1-1.8-3.3-1-4.4c0.5-0.7,1.1-2,1.3-3.1c0.4-1.7,0.3-2.9-0.3-3.7c-0.8-1-2.3-1-2.4-1
	s-1.6,0-2.4,1c-0.6,0.8-0.7,2-0.3,3.7c0.3,1.1,0.8,2.5,1.3,3.1c0.7,1,0.4,3.3-1,4.4C30.4,32.9,30.2,33,30,33c-0.3,0-0.6-0.1-0.8-0.4
	c-0.3-0.4-0.2-1.1,0.2-1.4c0.6-0.4,0.6-1.4,0.5-1.7c-0.6-0.8-1.3-2.4-1.6-3.8c-0.6-2.3-0.3-4.2,0.7-5.5c1.5-1.8,3.8-1.8,4-1.8
	s2.5,0,4,1.8c1,1.3,1.3,3.1,0.7,5.5c-0.3,1.4-1,2.9-1.6,3.8c-0.1,0.2,0,1.2,0.5,1.6c0.3,0.2,0.8,0.2,1.4,0.3
	c0.8,0.1,1.8,0.3,2.5,0.7C41,32.5,41.1,33.1,40.8,33.6z"/>
</svg>
