<?xml version="1.0" encoding="utf-8"?>
<!-- Generator: Adobe Illustrator 24.0.1, SVG Export Plug-In . SVG Version: 6.00 Build 0)  -->
<svg version="1.1" id="Layer_1" xmlns="http://www.w3.org/2000/svg" xmlns:xlink="http://www.w3.org/1999/xlink" x="0px" y="0px"
	 viewBox="0 0 235 237" style="enable-background:new 0 0 235 237;" xml:space="preserve">
<style type="text/css">
	.st0{fill-rule:evenodd;clip-rule:evenodd;fill:#C6D70C;fill-opacity:0.2;}
	.st1{fill-rule:evenodd;clip-rule:evenodd;fill:#C6D70C;}
	.st2{fill:#C4D600;}
	.st3{fill-rule:evenodd;clip-rule:evenodd;fill:#C4D600;}
	.st4{fill:#FFFFFF;}
	.st5{clip-path:url(#SVGID_2_);}
	.st6{clip-path:url(#SVGID_4_);fill:#C6D70C;}
	.st7{clip-path:url(#SVGID_6_);fill:#C6D70C;}
	.st8{clip-path:url(#SVGID_8_);}
	.st9{clip-path:url(#SVGID_10_);fill:#C6D70C;}
	.st10{clip-path:url(#SVGID_12_);fill:#C6D70C;}
	.st11{clip-path:url(#SVGID_14_);}
	.st12{clip-path:url(#SVGID_16_);fill:#C6D70C;}
	.st13{clip-path:url(#SVGID_18_);fill:#C6D70C;}
	.st14{clip-path:url(#SVGID_20_);}
	.st15{clip-path:url(#SVGID_22_);fill:#C6D70C;}
	.st16{clip-path:url(#SVGID_24_);fill-rule:evenodd;clip-rule:evenodd;fill:#C6D70C;}
	.st17{clip-path:url(#SVGID_26_);fill-rule:evenodd;clip-rule:evenodd;fill:#C6D70C;}
	.st18{clip-path:url(#SVGID_28_);fill-rule:evenodd;clip-rule:evenodd;fill:#C6D70C;}
	.st19{clip-path:url(#SVGID_30_);fill-rule:evenodd;clip-rule:evenodd;fill:#C6D70C;}
</style>
<g id="Deliver---wheel" transform="translate(44.325843, 319.000000)">
	<circle id="Oval-Copy-6" class="st0" cx="76.7" cy="-191.6" r="52.9"/>
	<circle id="Oval-Copy-7" class="st1" cx="76.7" cy="-191.6" r="38.5"/>
	<path id="Stroke-1" class="st2" d="M162.1-158.8c0.8,0.2,1.3,1,1.1,1.7c-8,30.1-31.7,53.2-62.1,59.4C88.6-95,75.8-95.5,63.6-99
		l-0.8-0.2h-0.1l-9.1-3.6l7.7,9.4c0.5,0.6,0.4,1.4-0.1,1.9L61-91.2c-0.6,0.5-1.4,0.4-1.9-0.1L59-91.4l-11.2-13.7
		c-0.7-0.9-0.3-2.1,0.8-2.3h0.1l17.5-2.5c0.8-0.1,1.5,0.5,1.6,1.3s-0.4,1.4-1.1,1.6h-0.1l-12,1.7l9,3.5l0.7,0.2
		c11.4,3.2,23.5,3.7,35.3,1.3l0.8-0.2c29.3-6.1,52.2-28.4,59.9-57.4C160.6-158.7,161.3-159,162.1-158.8z"/>
	<path id="Stroke-3" class="st2" d="M99.2-276.6c33.1,9.6,58.5,32,67.6,59.6l0.3,0.9v0.1l2,9.6l3.7-11.5c0.3-0.8,1.1-1.2,1.8-1
		s1.2,1,1,1.6v0.1l-5.3,16.8c-0.3,1.1-1.6,1.3-2.4,0.6l-0.1-0.1l-11.6-13.3c-0.5-0.6-0.5-1.5,0.1-2s1.4-0.5,1.9,0l0.1,0.1l8,9.1
		l-2-9.5l-0.2-0.8c-8.7-26.4-33-48-64.7-57.5l-1-0.3c-0.8-0.2-1.3-1.1-1-1.8C97.7-276.4,98.4-276.9,99.2-276.6z"/>
	<path id="Stroke-5" class="st2" d="M-4.2-240.4L-4.2-240.4l-1.3,17.7c-0.1,0.8-0.8,1.3-1.5,1.3c-0.8-0.1-1.3-0.7-1.3-1.4v-0.1
		l0.9-12.1l-5.4,8.1l-0.3,0.6c-3.2,6.6-5.1,14-5.7,21.8l-0.1,0.8c-0.5,6.9,0.2,13.7,1.9,20c0.2,0.8-0.3,1.5-1.1,1.7
		c-0.8,0.2-1.5-0.3-1.7-1.1c-1.8-6.6-2.5-13.8-2-21c0.5-8.4,2.6-16.4,6.1-23.8l0.4-0.7l0.1-0.2l5.4-8.2l-10.8,5.6
		c-0.7,0.4-1.4,0.1-1.8-0.5l-0.1-0.1c-0.4-0.7-0.1-1.4,0.5-1.8l0.1-0.1l15.7-8.1C-5.3-242.2-4.2-241.5-4.2-240.4z"/>
	<path id="Stroke-19" class="st2" d="M171.4-301.5L171.4-301.5l15.1,9.4c1,0.6,0.9,1.9,0,2.4l-0.1,0.1l-15.8,7.9
		c-0.7,0.4-1.5,0.1-1.9-0.7c-0.4-0.7-0.1-1.4,0.5-1.8l0.1-0.1l10.9-5.5l-9.8-0.5c-2.8-0.1-5.6-0.1-8.4-0.2
		c-16.4-0.2-32.1,0.7-47.1,2.4c-22.9,2.7-42.9,7.2-60.2,13c-6.1,2-11.3,4-15.7,6c-1.5,0.7-2.9,1.3-3.9,1.8c-0.4,0.2-0.7,0.4-1,0.5
		c-0.2,0.1-0.3,0.1-0.3,0.2c-0.7,0.4-1.5,0.1-1.9-0.6c-0.4-0.7-0.1-1.5,0.6-1.9c0.1,0,0.2-0.1,0.4-0.2c0.3-0.2,0.7-0.3,1.1-0.5
		c1.2-0.6,2.5-1.2,4-1.9c4.5-2,9.8-4,15.9-6.1c17.4-5.9,37.7-10.4,60.8-13.1c15.1-1.7,30.9-2.6,47.5-2.4c2.1,0,4.2,0.1,6.3,0.1
		l2.1,0.1l9.8,0.5l-10.3-6.4c-0.7-0.4-0.9-1.3-0.5-1.8l0.1-0.1C169.9-301.6,170.8-301.8,171.4-301.5z"/>
	<path id="Fill-21" class="st3" d="M96.9-275.1c0.1-1.8,1.3-3.4,2.8-3.3c1.4,0.1,2.6,1.6,2.5,3.5c-0.1,1.8-1.3,3.4-2.8,3.3
		C97.9-271.8,96.8-273.3,96.9-275.1"/>
	<path id="Stroke-45" class="st2" d="M-20.4-167.7L-20.4-167.7l13.1,2.4c0.7,0.1,1,1,0.6,1.5l-0.1,0.1l-8.8,9.9
		c-0.4,0.4-1,0.4-1.3,0.1c-0.4-0.3-0.4-0.9-0.2-1.3l0.1-0.1l6.3-7.1l-7.3,2.5l-0.4,0.2c-11.9,6.3-19.7,18.7-19.8,32.4v0.5
		c0,0.6-0.4,1-1,1s-1-0.4-1-1c0-14.7,8.2-27.9,20.9-34.6l0.4-0.2l0.1-0.1l7.4-2.5l-9.4-1.7c-0.5-0.1-0.9-0.5-0.8-1v-0.1
		C-21.3-167.3-20.8-167.7-20.4-167.7z"/>
	<path id="Stroke-45_1_" class="st2" d="M-36.2-109.7L-36.2-109.7l-2.1-7.7l-2.3,9.3v0.1c-0.2,0.5-0.7,0.7-1.2,0.6s-0.9-0.7-0.7-1.2
		l3.3-12.9v-0.1c0.3-0.7,1.1-0.9,1.5-0.3l9.3,9.4l0.1,0.1c0.3,0.4,0.3,1-0.1,1.3l-0.1,0.1c-0.4,0.3-1,0.3-1.3-0.1l-6.7-6.8l2,7.5
		l0.2,0.4c6,13.3,19.1,21.9,34,21.9c0.6,0,1,0.4,1,1s-0.4,1-1,1C-16-86.1-30.1-95.5-36.2-109.7z"/>
	<path id="Stroke-45_2_" class="st2" d="M32-145L32-145l2.6,7.5l1.7-9.4v-0.1c0.1-0.5,0.6-0.8,1.1-0.7s0.9,0.6,0.8,1.2l-2.4,13v0.1
		c-0.2,0.7-1.1,0.9-1.5,0.4l-9.9-8.8l-0.1-0.1c-0.3-0.4-0.3-0.9,0-1.3l0.1-0.1c0.4-0.3,0.9-0.3,1.3,0l7.1,6.3l-2.5-7.3v0.1
		c-6.3-12.3-18.9-20.2-33-20.2c-0.6,0-1-0.4-1-1s0.4-1,1-1C12-166.4,25.3-158,32-145z"/>
	<path id="Stroke-45_3_" class="st2" d="M19.9-88.2L19.9-88.2L6.8-90.7c-0.7-0.1-1-1-0.6-1.5l0.1-0.1l8.8-9.8c0.4-0.4,1-0.4,1.3-0.1
		c0.4,0.3,0.4,0.9,0.2,1.3l-0.1,0.2l-6.4,7.1l7.3-2.5l0.4-0.2c12.1-6.3,19.9-18.7,20.1-32.5v-0.5c0-0.6,0.4-1,1-1s1,0.4,1,1
		c0,14.7-8.3,28.1-21.1,34.7l-0.5,0.2l-0.1,0.1l-7.4,2.5l9.4,1.8c0.5,0.1,0.8,0.6,0.8,1.1v0.1C20.8-88.4,20.4-88.2,19.9-88.2z"/>
</g>
<circle class="st4" cx="210.7" cy="145.7" r="21.3"/>
<g id="Artwork_1_1_">
	<g>
		<g>
			<defs>
				<rect id="SVGID_1_" x="187.6" y="122.6" width="46.2" height="46.2"/>
			</defs>
			<clipPath id="SVGID_2_">
				<use xlink:href="#SVGID_1_"  style="overflow:visible;"/>
			</clipPath>
			<g class="st5">
				<g>
					<defs>
						<rect id="SVGID_3_" x="187.6" y="122.6" width="46.2" height="46.2"/>
					</defs>
					<clipPath id="SVGID_4_">
						<use xlink:href="#SVGID_3_"  style="overflow:visible;"/>
					</clipPath>
					<path class="st6" d="M219.4,154.6v-6.9c0-2.1-1.7-2.9-2.9-2.9h-4.8v-7.9c1.2-0.4,1.9-1.4,1.9-2.7c0-1.6-1.3-2.9-2.9-2.9
						c-1.6,0-2.9,1.3-2.9,2.9c0,1.3,0.8,2.3,1.9,2.7v7.9h-4.8c-2.1,0-2.9,1.7-2.9,2.9v6.9c-1.2,0.4-1.9,1.4-1.9,2.7
						c0,1.6,1.3,2.9,2.9,2.9c1.6,0,2.9-1.3,2.9-2.9c0-1.3-0.8-2.3-1.9-2.7v-6.9c0-0.2,0.1-1,1-1h4.8v7.9c-1.2,0.4-1.9,1.4-1.9,2.7
						c0,1.6,1.3,2.9,2.9,2.9c1.6,0,2.9-1.3,2.9-2.9c0-1.3-0.8-2.3-1.9-2.7v-7.9h4.8c0.5,0,1,0.2,1,1v6.9c-1.2,0.4-1.9,1.4-1.9,2.7
						c0,1.6,1.3,2.9,2.9,2.9c1.6,0,2.9-1.3,2.9-2.9C221.3,156,220.5,155,219.4,154.6 M210.7,133.2c0.6,0,1,0.4,1,1s-0.4,1-1,1
						s-1-0.4-1-1S210.1,133.2,210.7,133.2 M203,158.2c-0.6,0-1-0.4-1-1s0.4-1,1-1s1,0.4,1,1S203.6,158.2,203,158.2 M210.7,158.2
						c-0.6,0-1-0.4-1-1s0.4-1,1-1s1,0.4,1,1S211.3,158.2,210.7,158.2 M218.4,158.2c-0.6,0-1-0.4-1-1s0.4-1,1-1s1,0.4,1,1
						S219,158.2,218.4,158.2"/>
				</g>
				<g>
					<defs>
						<rect id="SVGID_5_" x="187.6" y="122.6" width="46.2" height="46.2"/>
					</defs>
					<clipPath id="SVGID_6_">
						<use xlink:href="#SVGID_5_"  style="overflow:visible;"/>
					</clipPath>
					<path class="st7" d="M210.7,124.6c11.6,0,21.2,9.5,21.2,21.2c0,11.6-9.5,21.2-21.2,21.2c-11.6,0-21.2-9.5-21.2-21.2
						C189.6,134.1,199.1,124.6,210.7,124.6 M210.7,122.6c-12.8,0-23.1,10.3-23.1,23.1s10.3,23.1,23.1,23.1s23.1-10.3,23.1-23.1
						S223.5,122.6,210.7,122.6"/>
				</g>
			</g>
		</g>
	</g>
</g>
<circle class="st4" cx="58.7" cy="62.7" r="21.3"/>
<g id="Artwork_4_1_">
	<g>
		<g>
			<defs>
				<rect id="SVGID_7_" x="35.6" y="39.6" width="46.2" height="46.2"/>
			</defs>
			<clipPath id="SVGID_8_">
				<use xlink:href="#SVGID_7_"  style="overflow:visible;"/>
			</clipPath>
			<g class="st8">
				<g>
					<defs>
						<rect id="SVGID_9_" x="35.6" y="39.6" width="46.2" height="46.2"/>
					</defs>
					<clipPath id="SVGID_10_">
						<use xlink:href="#SVGID_9_"  style="overflow:visible;"/>
					</clipPath>
					<path class="st9" d="M71.9,53.4c-0.4-0.4-1-0.4-1.3,0L52,72l-6.1-6.1c-0.4-0.4-1-0.4-1.3,0c-0.4,0.4-0.4,1,0,1.3l6.7,6.7
						c0.2,0.2,0.5,0.3,0.7,0.3s0.5-0.1,0.7-0.3l19.2-19.2C72.3,54.4,72.3,53.8,71.9,53.4"/>
				</g>
				<g>
					<defs>
						<rect id="SVGID_11_" x="35.6" y="39.6" width="46.2" height="46.2"/>
					</defs>
					<clipPath id="SVGID_12_">
						<use xlink:href="#SVGID_11_"  style="overflow:visible;"/>
					</clipPath>
					<path class="st10" d="M58.7,41.6c11.6,0,21.2,9.5,21.2,21.2s-9.6,21.1-21.2,21.1s-21.2-9.5-21.2-21.2S47.1,41.6,58.7,41.6
						 M58.7,39.6c-12.8,0-23.1,10.3-23.1,23.1s10.3,23.1,23.1,23.1s23.1-10.3,23.1-23.1S71.5,39.6,58.7,39.6"/>
				</g>
			</g>
		</g>
	</g>
</g>
<circle class="st4" cx="187.6" cy="26.5" r="21.3"/>
<g id="Artwork_2_1_">
	<g>
		<g>
			<defs>
				<rect id="SVGID_13_" x="164.5" y="3.4" width="46.2" height="46.2"/>
			</defs>
			<clipPath id="SVGID_14_">
				<use xlink:href="#SVGID_13_"  style="overflow:visible;"/>
			</clipPath>
			<g class="st11">
				<g>
					<defs>
						<rect id="SVGID_15_" x="164.5" y="3.4" width="46.2" height="46.2"/>
					</defs>
					<clipPath id="SVGID_16_">
						<use xlink:href="#SVGID_15_"  style="overflow:visible;"/>
					</clipPath>
					<path class="st12" d="M187.6,5.3c11.6,0,21.2,9.5,21.2,21.2s-9.5,21.2-21.2,21.2c-11.6,0-21.2-9.5-21.2-21.2S176,5.3,187.6,5.3
						 M187.6,3.4c-12.8,0-23.1,10.3-23.1,23.1s10.3,23.1,23.1,23.1s23.1-10.3,23.1-23.1S200.4,3.4,187.6,3.4"/>
				</g>
				<g>
					<defs>
						<rect id="SVGID_17_" x="164.5" y="3.4" width="46.2" height="46.2"/>
					</defs>
					<clipPath id="SVGID_18_">
						<use xlink:href="#SVGID_17_"  style="overflow:visible;"/>
					</clipPath>
					<path class="st13" d="M200.1,15.9h-1.9V14c0-0.6-0.4-1-1-1s-1,0.4-1,1v2.5l-0.6,0.6c-2.2-1.9-5-3-8.1-3
						c-6.9,0-12.5,5.6-12.5,12.5c0,3.6,1.5,6.8,3.9,9.1l-1.7,1.7c-0.4,0.4-0.4,1,0,1.3c0.2,0.2,0.5,0.3,0.7,0.3s0.5-0.1,0.7-0.3
						l1.9-1.9c2,1.3,4.4,2.2,7,2.2s5-0.8,7-2.2l1.9,1.9c0.2,0.2,0.5,0.3,0.7,0.3s0.5-0.1,0.7-0.3c0.4-0.4,0.4-1,0-1.3l-1.7-1.7
						c2.4-2.3,3.9-5.5,3.9-9.1c0-3.1-1.2-6-3-8.1l0.6-0.6h2.4c0.6,0,1-0.4,1-1C201.1,16.4,200.7,15.9,200.1,15.9 M198.2,26.5
						c0,5.9-4.7,10.6-10.6,10.6c-5.9,0-10.6-4.7-10.6-10.6s4.7-10.6,10.6-10.6c2.6,0,4.9,1,6.7,2.5l-1.3,1.3
						c-1.4-1.2-3.4-1.9-5.4-1.9c-4.8,0-8.7,3.8-8.7,8.7s3.8,8.7,8.7,8.7c4.8,0,8.7-3.8,8.7-8.7c0-2-0.7-3.9-1.9-5.4l1.3-1.3
						C197.3,21.6,198.2,23.9,198.2,26.5 M194.4,26.5c0,3.8-3,6.7-6.7,6.7c-3.8,0-6.7-3-6.7-6.7s3-6.7,6.7-6.7c1.5,0,2.9,0.5,4,1.3
						l-1.3,1.3c-0.8-0.5-1.7-0.8-2.7-0.8c-2.7,0-4.8,2.1-4.8,4.8s2.1,4.8,4.8,4.8s4.8-2.1,4.8-4.8c0-1-0.3-1.9-0.8-2.7l1.3-1.3
						C193.9,23.6,194.4,25,194.4,26.5 M190.5,26.5c0,1.6-1.3,2.9-2.9,2.9c-1.6,0-2.9-1.3-2.9-2.9s1.3-2.9,2.9-2.9
						c0.5,0,0.9,0.1,1.3,0.3l-1.9,1.9c-0.4,0.4-0.4,1,0,1.3c0.2,0.2,0.5,0.3,0.7,0.3s0.5-0.1,0.7-0.3l1.9-1.9
						C190.4,25.6,190.5,26,190.5,26.5"/>
				</g>
			</g>
		</g>
	</g>
</g>
<g id="Artwork_3_1_">
	<g>
		<g>
			<defs>
				<rect id="SVGID_19_" x="19.3" y="169" width="46.2" height="46.2"/>
			</defs>
			<clipPath id="SVGID_20_">
				<use xlink:href="#SVGID_19_"  style="overflow:visible;"/>
			</clipPath>
			<g class="st14">
				<g>
					<defs>
						<rect id="SVGID_21_" x="19.3" y="169" width="46.2" height="46.2"/>
					</defs>
					<clipPath id="SVGID_22_">
						<use xlink:href="#SVGID_21_"  style="overflow:visible;"/>
					</clipPath>
					<path class="st15" d="M42.4,170.9c11.6,0,21.2,9.5,21.2,21.2c0,11.6-9.5,21.2-21.2,21.2s-21.2-9.5-21.2-21.2
						C21.2,180.4,30.8,170.9,42.4,170.9 M42.4,169c-12.8,0-23.1,10.3-23.1,23.1s10.3,23.1,23.1,23.1s23.1-10.3,23.1-23.1
						S55.2,169,42.4,169"/>
				</g>
				<g>
					<defs>
						<rect id="SVGID_23_" x="19.3" y="169" width="46.2" height="46.2"/>
					</defs>
					<clipPath id="SVGID_24_">
						<use xlink:href="#SVGID_23_"  style="overflow:visible;"/>
					</clipPath>
					<path class="st16" d="M53.9,192.9c-0.1,0.1-0.3,0.1-0.5,0.1l-4.3-0.6H49c-0.2,0-0.3-0.2-0.4-0.4v-0.1l-1-1.9
						c-0.2-0.3-0.6-0.5-0.9-0.3c-0.1,0.1-0.2,0.2-0.3,0.3l-1.8,3.2c-0.1,0.2-0.1,0.4,0,0.6l2,3.8c0,0,0,0.1,0.1,0.1
						c0.2,0.2,0.2,0.6,0.1,0.8l-2.6,5.9c-0.2,0.3-0.5,0.5-0.9,0.5h-0.1c-0.1,0-0.3-0.1-0.4-0.2c-0.3-0.3-0.4-0.7-0.2-1.1l2.2-4.8
						c0.1-0.2,0.1-0.5-0.1-0.7l-3.2-3.9c-0.7-0.9-0.8-2.1-0.2-3.1l2.2-3.3c0.2-0.3,0.1-0.7-0.2-0.9h-0.1l-2-1.3
						c-0.3-0.1-0.6-0.1-0.8,0.1l-2.6,2.6c-0.1,0.1-0.3,0.2-0.5,0.2c-0.1,0-0.2-0.1-0.3-0.2c-0.2-0.3-0.2-0.6,0.1-0.8l3.1-3.1
						c0.2-0.2,0.4-0.2,0.6-0.1l0.4,0.1c1.3,0.5,2.7,1.1,4,1.7c0.6,0.3,1.3,0.2,1.7-0.3c0.2-0.3,0.3-0.6,0.2-1s-0.1-0.8,0-1.2
						c0.3-0.9,1.2-1.4,2.1-1.3c1.1,0.1,1.8,1.1,1.7,2.2v0.2c-0.2,1-1.2,1.6-2.1,1.5h-0.2c-0.5-0.1-1,0.2-1.1,0.7
						c-0.1,0.3,0,0.6,0.2,0.8s0.4,0.5,0.5,0.8l1.1,2.5c0.1,0.2,0.3,0.4,0.5,0.4l3.6,0.5c0.3,0,0.6,0.3,0.6,0.6
						C54.1,192.7,54,192.9,53.9,192.9 M37.5,198L37.5,198c-0.3,0.2-0.5,0.3-0.8,0.2h-0.1l-4.4-1.6c-0.2-0.1-0.4-0.3-0.5-0.5
						s-0.1-0.5,0-0.7c0.2-0.4,0.7-0.6,1.1-0.4l3.6,1.3c0.2,0.1,0.5,0,0.7-0.1l3.1-2.9c0.2,0.5,0.4,1,0.7,1.3l0.4,0.5L37.5,198z
						 M53.7,190.6l-3.3-0.4l-0.9-2.1c-0.1-0.2-0.2-0.4-0.3-0.5c1.8-0.1,3.2-1.6,3.1-3.5c-0.1-1.8-1.6-3.2-3.5-3.1
						c-1.8,0.1-3.2,1.6-3.1,3.5c0,0.2,0,0.3,0.1,0.5h-0.1c-1.3-0.8-2.8-1.3-4.2-1.8l-0.4-0.1c-0.7-0.2-1.3,0-1.8,0.5l-3.1,3.1
						c-0.7,0.7-0.8,1.8-0.1,2.5c0.7,0.8,1.8,0.9,2.6,0.2l0.1-0.1l2.3-2.2l1.1,0.6l-1.8,2.8c-0.3,0.5-0.5,1-0.5,1.5l-3.6,3.3
						l-3.2-1.2c-1.1-0.4-2.1,0.1-2.6,1.1c-0.3,0.6-0.3,1.2,0,1.7c0.2,0.6,0.7,1,1.3,1.2l4.4,1.6c0.2,0.1,0.5,0.1,0.7,0.1
						c0.5,0,1-0.2,1.3-0.5l3.8-2.7l1.7,2.2l-2,4.4c-0.4,0.9-0.2,1.9,0.5,2.5c0.3,0.2,0.6,0.4,0.9,0.5h0.3h0.2c0.8,0,1.5-0.5,1.9-1.3
						l2.6-5.7c0.3-0.7,0.2-1.4-0.2-2.1l-1.8-3.4l1.1-1.9l0.4,0.8c0.2,0.6,0.7,1,1.2,1.2H49l4.3,0.6c0.5,0.1,1-0.1,1.4-0.4
						c0.4-0.3,0.7-0.8,0.7-1.3C55.5,191.6,54.7,190.8,53.7,190.6"/>
				</g>
				<g>
					<defs>
						<rect id="SVGID_25_" x="19.3" y="169" width="46.2" height="46.2"/>
					</defs>
					<clipPath id="SVGID_26_">
						<use xlink:href="#SVGID_25_"  style="overflow:visible;"/>
					</clipPath>
					<path class="st17" d="M31,187.8h2.5c0.4,0,0.7-0.2,0.7-0.5s-0.3-0.5-0.7-0.5H31c-0.4,0-0.7,0.2-0.7,0.5
						C30.4,187.5,30.7,187.8,31,187.8"/>
				</g>
				<g>
					<defs>
						<rect id="SVGID_27_" x="19.3" y="169" width="46.2" height="46.2"/>
					</defs>
					<clipPath id="SVGID_28_">
						<use xlink:href="#SVGID_27_"  style="overflow:visible;"/>
					</clipPath>
					<path class="st18" d="M33,184.9h2.5c0.4,0,0.7-0.2,0.7-0.5s-0.3-0.5-0.7-0.5H33c-0.4,0-0.7,0.2-0.7,0.5
						C32.3,184.6,32.6,184.9,33,184.9"/>
				</g>
				<g>
					<defs>
						<rect id="SVGID_29_" x="19.3" y="169" width="46.2" height="46.2"/>
					</defs>
					<clipPath id="SVGID_30_">
						<use xlink:href="#SVGID_29_"  style="overflow:visible;"/>
					</clipPath>
					<path class="st19" d="M32.3,191.1c0,0.3,0.3,0.5,0.7,0.5h2.5c0.4,0,0.7-0.2,0.7-0.5s-0.3-0.5-0.7-0.5H33
						C32.6,190.6,32.3,190.8,32.3,191.1"/>
				</g>
			</g>
		</g>
	</g>
</g>
</svg>
