<?xml version="1.0" encoding="UTF-8" standalone="no"?>
<svg
   xmlns:dc="http://purl.org/dc/elements/1.1/"
   xmlns:cc="http://creativecommons.org/ns#"
   xmlns:rdf="http://www.w3.org/1999/02/22-rdf-syntax-ns#"
   xmlns:svg="http://www.w3.org/2000/svg"
   xmlns="http://www.w3.org/2000/svg"
   xmlns:sodipodi="http://sodipodi.sourceforge.net/DTD/sodipodi-0.dtd"
   xmlns:inkscape="http://www.inkscape.org/namespaces/inkscape"
   id="Layer_1"
   data-name="Layer 1"
   viewBox="0 0 595.28 841.89"
   width="100%"
   height="100%"
   version="1.1"
   sodipodi:docname="Deliver-Shrinked.svg"
   inkscape:version="0.92.4 (5da689c313, 2019-01-14)">
  <metadata
     id="metadata181">
    <rdf:RDF>
      <cc:Work
         rdf:about="">
        <dc:format>image/svg+xml</dc:format>
        <dc:type
           rdf:resource="http://purl.org/dc/dcmitype/StillImage" />
      </cc:Work>
    </rdf:RDF>
  </metadata>
  <sodipodi:namedview
     pagecolor="#ffffff"
     bordercolor="#666666"
     borderopacity="1"
     objecttolerance="10"
     gridtolerance="10"
     guidetolerance="10"
     inkscape:pageopacity="0"
     inkscape:pageshadow="2"
     inkscape:window-width="1920"
     inkscape:window-height="1001"
     id="namedview179"
     showgrid="false"
     inkscape:zoom="0.56064331"
     inkscape:cx="208.37241"
     inkscape:cy="385.55661"
     inkscape:window-x="-9"
     inkscape:window-y="-9"
     inkscape:window-maximized="1"
     inkscape:current-layer="Layer_1" />
  <defs
     id="defs76">
    <style
       id="style2">.cls-1,.cls-13,.cls-2,.cls-20{fill:none;}.cls-2{clip-rule:evenodd;}.cls-3{clip-path:url(#clip-path);}.cls-4{fill:#2d2d2d;}.cls-5{clip-path:url(#clip-path-2);}.cls-6{clip-path:url(#clip-path-3);}.cls-7{clip-path:url(#clip-path-4);}.cls-8{clip-path:url(#clip-path-5);}.cls-9{fill:#c2d52f;}.cls-10{clip-path:url(#clip-path-6);}.cls-11{clip-path:url(#clip-path-7);}.cls-12{clip-path:url(#clip-path-8);}.cls-13{stroke:#c2d52f;stroke-width:2px;}.cls-13,.cls-20{stroke-miterlimit:10;}.cls-14{clip-path:url(#clip-path-9);}.cls-15{clip-path:url(#clip-path-10);}.cls-16{clip-path:url(#clip-path-11);}.cls-17{clip-path:url(#clip-path-12);}.cls-18{clip-path:url(#clip-path-13);}.cls-19{fill:#fff;}.cls-20{stroke:#2d2d2d;}.cls-21{clip-path:url(#clip-path-14);}.cls-22{clip-path:url(#clip-path-15);}.cls-23{clip-path:url(#clip-path-16);}.cls-24{isolation:isolate;}.cls-25{clip-path:url(#clip-path-17);}.cls-26{clip-path:url(#clip-path-18);}.cls-27{clip-path:url(#clip-path-19);}.cls-28{clip-path:url(#clip-path-20);}.cls-29{clip-path:url(#clip-path-21);}.cls-30{clip-path:url(#clip-path-22);}.cls-31{clip-path:url(#clip-path-23);}.cls-32,.cls-34{fill:#c5d62d;}.cls-32{opacity:0.2;}.cls-33{clip-path:url(#clip-path-24);}</style>
    <clipPath
       id="clip-path">
      <path
         class="cls-1"
         d="M282.17,391.3a.37.37,0,0,0-.53,0l-7.23,7.23L272,396.17a.36.36,0,0,0-.52,0,.37.37,0,0,0,0,.53l2.62,2.62a.39.39,0,0,0,.27.11.39.39,0,0,0,.26-.11l7.5-7.5A.36.36,0,0,0,282.17,391.3Z"
         id="path4" />
    </clipPath>
    <clipPath
       id="clip-path-2">
      <path
         class="cls-1"
         d="M277,385.93a9,9,0,1,0,9,9A9,9,0,0,0,277,385.93Zm0,.75a8.25,8.25,0,1,1-8.25,8.25A8.28,8.28,0,0,1,277,386.68Z"
         id="path7" />
    </clipPath>
    <clipPath
       id="clip-path-3">
      <path
         class="cls-1"
         d="M340,429.81a.38.38,0,1,1,.38-.38A.35.35,0,0,1,340,429.81Zm-3,0a.38.38,0,1,1,.38-.38A.35.35,0,0,1,337,429.81Zm-3,0a.38.38,0,1,1,.38-.38A.35.35,0,0,1,334,429.81Zm3-9.75a.38.38,0,1,1-.37.37A.35.35,0,0,1,337,420.06Zm3.38,8.32v-2.7a1.1,1.1,0,0,0-1.13-1.12h-1.87v-3.08a1.09,1.09,0,0,0,.75-1.05,1.13,1.13,0,0,0-2.25,0,1.09,1.09,0,0,0,.75,1.05v3.08h-1.88a1.09,1.09,0,0,0-1.12,1.12v2.7a1.13,1.13,0,1,0,.75,0v-2.7a.35.35,0,0,1,.37-.37h1.88v3.07a1.13,1.13,0,1,0,.75,0v-3.07h1.87a.33.33,0,0,1,.38.37v2.7a1.13,1.13,0,1,0,.75,0Z"
         id="path10" />
    </clipPath>
    <clipPath
       id="clip-path-4">
      <path
         class="cls-1"
         d="M337,415.93a9,9,0,1,0,9,9A9,9,0,0,0,337,415.93Zm0,.75a8.25,8.25,0,1,1-8.25,8.25A8.28,8.28,0,0,1,337,416.68Z"
         id="path13" />
    </clipPath>
    <clipPath
       id="clip-path-5">
      <path
         class="cls-1"
         d="M289.08,454.16l5.66,6.49a.75.75,0,0,1-.08,1.06.76.76,0,0,1-1.06-.07L286.07,453a.75.75,0,0,1,.44-1.23l11.31-1.94a.75.75,0,1,1,.25,1.48l-8.48,1.45,6.62,2.37a30.08,30.08,0,0,0,10.83.12,30.7,30.7,0,0,0,24.21-21.42.75.75,0,0,1,1.44.44,32.2,32.2,0,0,1-25.4,22.46,31.75,31.75,0,0,1-11.42-.14l-.11,0Z"
         id="path16" />
    </clipPath>
    <clipPath
       id="clip-path-6">
      <path
         class="cls-1"
         d="M336,413.17l2.31-8.3a.75.75,0,1,1,1.44.41l-3.08,11.05a.75.75,0,0,1-1.27.31l-7.84-8.38a.75.75,0,0,1,0-1.06.76.76,0,0,1,1.06,0l5.89,6.28-1.68-6.85c-3.92-9.05-12.63-16.43-23.76-20.06a.75.75,0,0,1,.46-1.43c11.55,3.77,20.62,11.46,24.7,20.95l0,.12Z"
         id="path19" />
    </clipPath>
    <clipPath
       id="clip-path-7">
      <path
         class="cls-1"
         d="M269,405.88l-7.48,4.28a.75.75,0,0,1-.74-1.31l10-5.69a.75.75,0,0,1,1.12.67l-.3,11.47a.76.76,0,0,1-.77.73.75.75,0,0,1-.73-.77l.22-8.61-3.61,6a24.49,24.49,0,0,0-1.19,5.5,23.57,23.57,0,0,0,.49,7.76.75.75,0,0,1-1.46.35,25.88,25.88,0,0,1,.77-14.17l.07-.14Z"
         id="path22" />
    </clipPath>
    <clipPath
       id="clip-path-8">
      <path
         class="cls-1"
         d="M343.49,381.4l-7.19-4.74a.75.75,0,1,1,.82-1.25l9.58,6.31a.75.75,0,0,1-.09,1.3l-10.37,4.91a.74.74,0,0,1-1-.35.75.75,0,0,1,.35-1l7.78-3.69-7.06-.49a149,149,0,0,0-18.17.31,119,119,0,0,0-23.84,4.22c-2.39.7-4.47,1.42-6.22,2.11-.61.24-1.14.47-1.58.66l-.52.24a.75.75,0,0,1-.66-1.35l.57-.26c.46-.2,1-.43,1.64-.68,1.79-.71,3.91-1.44,6.35-2.16A120.42,120.42,0,0,1,318,381.21a152.34,152.34,0,0,1,18.38-.31Z"
         id="path25" />
    </clipPath>
    <clipPath
       id="clip-path-9">
      <path
         class="cls-1"
         d="M261.58,428.86l-8.59-.54a.75.75,0,1,1,.09-1.49l11.45.71a.76.76,0,0,1,.57,1.18l-6.56,9.41a.75.75,0,0,1-1.23-.85l4.92-7.07-6.29,3a18.08,18.08,0,0,0-5.89,12.84.75.75,0,0,1-1.5,0,19.55,19.55,0,0,1,6.47-14l.17-.11Z"
         id="path28" />
    </clipPath>
    <clipPath
       id="clip-path-10">
      <path
         class="cls-1"
         d="M251.1,453.24l7.29,4.58a.74.74,0,0,0,1-.23.75.75,0,0,0-.23-1l-9.72-6.1a.75.75,0,0,0-1.15.62l-.17,11.47a.74.74,0,0,0,.74.76.75.75,0,0,0,.76-.74l.13-8.61,3.38,6.23a1,1,0,0,0,.13.18,19.94,19.94,0,0,0,14.59,5.38.75.75,0,0,0,.72-.77.76.76,0,0,0-.78-.73,18.44,18.44,0,0,1-13.4-4.88Z"
         id="path31" />
    </clipPath>
    <clipPath
       id="clip-path-11">
      <path
         class="cls-1"
         d="M284.09,441.42l-7.4-4.41a.73.73,0,0,0-1,.26.74.74,0,0,0,.26,1l9.85,5.88a.75.75,0,0,0,1.13-.65l-.09-11.47a.75.75,0,0,0-.75-.75.76.76,0,0,0-.75.76l.07,8.61-3.53-6.16-.12-.16a19.57,19.57,0,0,0-14.39-5.48.75.75,0,1,0,0,1.5,18,18,0,0,1,13.21,5Z"
         id="path34" />
    </clipPath>
    <clipPath
       id="clip-path-12">
      <path
         class="cls-1"
         d="M273.64,465.77l8.6.55a.75.75,0,0,1-.1,1.5l-11.45-.74a.76.76,0,0,1-.57-1.18l6.58-9.4a.75.75,0,0,1,1.23.86L273,464.42l6.3-3a18.12,18.12,0,0,0,5.88-12.86.75.75,0,1,1,1.5.06,19.59,19.59,0,0,1-6.46,14l-.17.12Z"
         id="path37" />
    </clipPath>
    <clipPath
       id="clip-path-13">
      <ellipse
         class="cls-1"
         cx="324.07"
         cy="380.89"
         rx="7.66"
         ry="7.58"
         id="ellipse40" />
    </clipPath>
    <clipPath
       id="clip-path-14">
      <ellipse
         class="cls-1"
         cx="267.61"
         cy="448.31"
         rx="9"
         ry="9"
         transform="translate(-233.9 303.11) rotate(-43.02)"
         id="ellipse43" />
    </clipPath>
    <clipPath
       id="clip-path-15">
      <path
         class="cls-1"
         d="M324.36,380.58a1,1,0,1,1-1-1,.92.92,0,0,1,.44.1l-.67.66a.33.33,0,0,0,0,.47.33.33,0,0,0,.47,0l.66-.67A.88.88,0,0,1,324.36,380.58Zm1.34,0a2.34,2.34,0,1,1-2.34-2.32,2.26,2.26,0,0,1,1.4.46l-.46.47a1.78,1.78,0,0,0-.94-.27,1.66,1.66,0,1,0,1.67,1.66,1.77,1.77,0,0,0-.27-.93l.47-.46A2.26,2.26,0,0,1,325.7,380.58Zm1.33,0a3.7,3.7,0,1,1-1.33-2.79l-.47.47a3,3,0,0,0-1.87-.67,3,3,0,1,0,3,3,2.86,2.86,0,0,0-.66-1.86l.46-.46A3.54,3.54,0,0,1,327,380.58Zm.67-3.65H327v-.66a.32.32,0,0,0-.33-.34.33.33,0,0,0-.34.34v.86l-.2.2a4.17,4.17,0,0,0-2.8-1,4.32,4.32,0,0,0-3,7.47l-.6.6a.3.3,0,0,0,0,.46.31.31,0,0,0,.46,0l.67-.66a4.43,4.43,0,0,0,2.43.76,4.16,4.16,0,0,0,2.44-.76l.66.66a.33.33,0,0,0,.47,0,.32.32,0,0,0,0-.46l-.6-.6a4.34,4.34,0,0,0,1.37-3.15,4.25,4.25,0,0,0-1-2.79l.2-.2h.84a.31.31,0,0,0,.33-.33A.34.34,0,0,0,327.7,376.93Z"
         id="path46" />
    </clipPath>
    <clipPath
       id="clip-path-16">
      <rect
         class="cls-1"
         x="262.03"
         y="443.01"
         width="12"
         height="11.38"
         id="rect49" />
    </clipPath>
    <clipPath
       id="clip-path-17">
      <rect
         class="cls-1"
         x="261.03"
         y="442.93"
         width="14"
         height="12"
         id="rect52" />
    </clipPath>
    <clipPath
       id="clip-path-18">
      <path
         class="cls-2"
         d="M273.24,447.37l-1.55-.19-.41-1-.12-.24a1.5,1.5,0,0,0,1.46-1.56A1.53,1.53,0,0,0,271,443a1.52,1.52,0,0,0-1.46,1.57.76.76,0,0,0,0,.21l-.06,0a12.17,12.17,0,0,0-2-.81l-.18-.06a.9.9,0,0,0-.88.2l-1.48,1.4a.82.82,0,0,0-.07,1.16.91.91,0,0,0,1.24.08s0,0,0,0l1.09-1,.53.27-.86,1.25v0a1.73,1.73,0,0,0-.25.7l-1.71,1.49-1.53-.53a1,1,0,0,0-1.27.48.9.9,0,0,0,0,.77,1,1,0,0,0,.58.53l2.13.74a1,1,0,0,0,.34.06,1,1,0,0,0,.66-.23L267.6,450l.83,1-1,2a.94.94,0,0,0,.24,1.15,1.23,1.23,0,0,0,.43.21l.13,0h.1a1,1,0,0,0,.91-.56l1.24-2.59a.91.91,0,0,0-.09-.94l-.87-1.56.52-.86.19.37a.88.88,0,0,0,.62.51H271L273,449a.89.89,0,0,0,.67-.18.82.82,0,0,0,.32-.59A.88.88,0,0,0,273.24,447.37Zm-7.79,3.39,0,0a.39.39,0,0,1-.35.08h0l-2.13-.74a.37.37,0,0,1-.23-.21.34.34,0,0,1,0-.31.43.43,0,0,1,.51-.18l1.71.6a.35.35,0,0,0,.31-.06l1.49-1.3a1.8,1.8,0,0,0,.34.64l.19.23Zm7.87-2.36a.24.24,0,0,1-.2.05l-2.1-.26h0a.24.24,0,0,1-.19-.16l0,0-.44-.87a.31.31,0,0,0-.41-.14.37.37,0,0,0-.13.12l-.88,1.47a.28.28,0,0,0,0,.28l1,1.72s0,0,0,0a.34.34,0,0,1,0,.37l-1.25,2.59a.4.4,0,0,1-.4.22h0a.38.38,0,0,1-.17-.08.39.39,0,0,1-.09-.46l1.06-2.2a.29.29,0,0,0,0-.3l-1.5-1.83a1.22,1.22,0,0,1-.11-1.42l1-1.52a.29.29,0,0,0-.08-.4l0,0-1-.5a.32.32,0,0,0-.36.05l-1.25,1.18a.28.28,0,0,1-.25.06.29.29,0,0,1-.14-.08.27.27,0,0,1,0-.37l1.49-1.4a.26.26,0,0,1,.27-.06l.17.05a12.45,12.45,0,0,1,1.92.78.71.71,0,0,0,.85-.13.43.43,0,0,0,.11-.42.87.87,0,0,1,0-.53,1,1,0,0,1,1-.6.91.91,0,0,1,.84,1s0,.07,0,.1a1,1,0,0,1-1,.7l-.11,0a.43.43,0,0,0-.51.32.39.39,0,0,0,.11.37,1.11,1.11,0,0,1,.25.36l.48,1.13a.32.32,0,0,0,.24.18l1.73.21a.28.28,0,0,1,.26.28.22.22,0,0,1-.1.18Z"
         id="path55" />
    </clipPath>
    <clipPath
       id="clip-path-19">
      <rect
         class="cls-1"
         x="262.03"
         y="442.93"
         width="12"
         height="12"
         id="rect58" />
    </clipPath>
    <clipPath
       id="clip-path-20">
      <path
         class="cls-2"
         d="M262.37,446.15h1.32c.19,0,.34-.09.34-.22s-.15-.22-.34-.22h-1.32c-.19,0-.34.1-.34.22s.15.22.34.22"
         id="path61" />
    </clipPath>
    <clipPath
       id="clip-path-21">
      <path
         class="cls-2"
         d="M262.37,445.15h1.32c.19,0,.34-.09.34-.22s-.15-.22-.34-.22h-1.32c-.19,0-.34.1-.34.22s.15.22.34.22"
         id="path64" />
    </clipPath>
    <clipPath
       id="clip-path-22">
      <path
         class="cls-2"
         d="M262,447.93c0,.13.15.22.34.22h1.32c.19,0,.34-.09.34-.22s-.15-.22-.34-.22h-1.32c-.19,0-.34.1-.34.22"
         id="path67" />
    </clipPath>
    <clipPath
       id="clip-path-23">
      <circle
         class="cls-1"
         cx="303.03"
         cy="421.93"
         r="17"
         id="circle70" />
    </clipPath>
    <clipPath
       id="clip-path-24">
      <circle
         class="cls-1"
         cx="303.03"
         cy="421.93"
         r="13"
         id="circle73" />
    </clipPath>
  </defs>
  <title
     id="title78">Deliver</title>
  <g
     class="cls-3"
     clip-path="url(#clip-path)"
     id="g82"
     transform="matrix(5.560346,0,0,5.2602254,-1357.5119,-1785.0257)">
    <rect
       class="cls-4"
       x="266.41"
       y="386.17999"
       width="20.879999"
       height="18.25"
       id="rect80"
       style="fill:#2d2d2d" />
  </g>
  <g
     class="cls-5"
     clip-path="url(#clip-path-2)"
     id="g86"
     transform="matrix(5.560346,0,0,5.2602254,-1357.5119,-1785.0257)">
    <rect
       class="cls-4"
       x="263.03"
       y="380.92999"
       width="28"
       height="28"
       id="rect84"
       style="fill:#2d2d2d" />
  </g>
  <g
     class="cls-6"
     clip-path="url(#clip-path-3)"
     id="g90"
     transform="matrix(5.560346,0,0,5.2602254,-1357.5119,-1785.0257)">
    <rect
       class="cls-4"
       x="327.91"
       y="414.31"
       width="18.25"
       height="21.25"
       id="rect88"
       style="fill:#2d2d2d" />
  </g>
  <g
     class="cls-7"
     clip-path="url(#clip-path-4)"
     id="g94"
     transform="matrix(5.560346,0,0,5.2602254,-1357.5119,-1785.0257)">
    <rect
       class="cls-4"
       x="323.03"
       y="410.92999"
       width="28"
       height="28"
       id="rect92"
       style="fill:#2d2d2d" />
  </g>
  <g
     class="cls-8"
     clip-path="url(#clip-path-5)"
     id="g98"
     transform="matrix(5.560346,0,0,5.2602254,-1357.5119,-1785.0257)">
    <rect
       class="cls-9"
       x="289.20001"
       y="419.37"
       width="39.919998"
       height="56.16"
       transform="rotate(-88,309.16061,447.45363)"
       id="rect96"
       style="fill:#c2d52f" />
  </g>
  <g
     class="cls-10"
     clip-path="url(#clip-path-6)"
     id="g102"
     transform="matrix(5.560346,0,0,5.2602254,-1357.5119,-1785.0257)">
    <rect
       class="cls-9"
       x="303.56"
       y="380.13"
       width="40.779999"
       height="41.849998"
       transform="rotate(-88,323.95783,401.05618)"
       id="rect100"
       style="fill:#c2d52f" />
  </g>
  <g
     class="cls-11"
     clip-path="url(#clip-path-7)"
     id="g106"
     transform="matrix(5.560346,0,0,5.2602254,-1357.5119,-1785.0257)">
    <rect
       class="cls-9"
       x="248.84"
       y="404.20999"
       width="34.009998"
       height="21.35"
       transform="rotate(-88,265.84319,414.88814)"
       id="rect104"
       style="fill:#c2d52f" />
  </g>
  <g
     class="cls-12"
     clip-path="url(#clip-path-8)"
     id="g110"
     transform="matrix(5.560346,0,0,5.2602254,-1357.5119,-1785.0257)">
    <rect
       class="cls-9"
       x="302.82999"
       y="346.89001"
       width="26.5"
       height="71.849998"
       transform="rotate(-88,316.08035,382.82251)"
       id="rect108"
       style="fill:#c2d52f" />
  </g>
  <g
     class="cls-14"
     clip-path="url(#clip-path-9)"
     id="g116"
     transform="matrix(5.560346,0,0,5.2602254,-1357.5119,-1785.0257)">
    <rect
       class="cls-9"
       x="241.85001"
       y="423.98999"
       width="30.110001"
       height="26.049999"
       transform="rotate(-88,256.89884,437.01942)"
       id="rect114"
       style="fill:#c2d52f" />
  </g>
  <g
     class="cls-15"
     clip-path="url(#clip-path-10)"
     id="g120"
     transform="matrix(5.560346,0,0,5.2602254,-1357.5119,-1785.0257)">
    <rect
       class="cls-9"
       x="243"
       y="445.01999"
       width="30.35"
       height="26.059999"
       transform="rotate(-2,258.19687,458.09505)"
       id="rect118"
       style="fill:#c2d52f" />
  </g>
  <g
     class="cls-16"
     clip-path="url(#clip-path-11)"
     id="g124"
     transform="matrix(5.560346,0,0,5.2602254,-1357.5119,-1785.0257)">
    <rect
       class="cls-9"
       x="261.87"
       y="423.54999"
       width="30.110001"
       height="26.049999"
       transform="rotate(-2,276.90966,436.64486)"
       id="rect122"
       style="fill:#c2d52f" />
  </g>
  <g
     class="cls-17"
     clip-path="url(#clip-path-12)"
     id="g128"
     transform="matrix(5.560346,0,0,5.2602254,-1357.5119,-1785.0257)">
    <rect
       class="cls-9"
       x="263.26001"
       y="444.59"
       width="30.129999"
       height="26.049999"
       transform="rotate(-88,278.32236,457.61782)"
       id="rect126"
       style="fill:#c2d52f" />
  </g>
  <g
     class="cls-18"
     clip-path="url(#clip-path-13)"
     id="g132"
     transform="matrix(5.560346,0,0,5.2602254,-1357.5119,-1785.0257)">
    <rect
       class="cls-19"
       x="311.48001"
       y="368.23001"
       width="25.17"
       height="25.32"
       transform="matrix(0.03,-1,1,0.03,-67.9,691.47)"
       id="rect130"
       style="fill:#ffffff" />
  </g>
  <ellipse
     class="cls-20"
     cx="444.42963"
     cy="218.54163"
     rx="42.592251"
     ry="39.872509"
     id="ellipse134"
     style="fill:none;stroke:#2d2d2d;stroke-width:5.40820456;stroke-miterlimit:10" />
  <g
     class="cls-21"
     clip-path="url(#clip-path-14)"
     id="g138"
     transform="matrix(5.560346,0,0,5.2602254,-1357.5119,-1785.0257)">
    <rect
       class="cls-19"
       x="253.61"
       y="434.31"
       width="28"
       height="28"
       transform="rotate(-88,267.60756,448.31129)"
       id="rect136"
       style="fill:#ffffff" />
  </g>
  <ellipse
     class="cls-20"
     cx="-309.80377"
     cy="516.86157"
     rx="48.805378"
     ry="48.617039"
     transform="matrix(0.74990128,-0.66154975,0.70200339,0.71217361,0,0)"
     id="ellipse140"
     style="fill:none;stroke:#2d2d2d;stroke-width:5.41234589;stroke-miterlimit:10" />
  <g
     class="cls-22"
     clip-path="url(#clip-path-15)"
     id="g144"
     transform="matrix(5.560346,0,0,5.2602254,-1357.5119,-1785.0257)">
    <rect
       class="cls-4"
       x="314.03"
       y="370.92999"
       width="19"
       height="19"
       id="rect142"
       style="fill:#2d2d2d" />
  </g>
  <g
     class="cls-23"
     clip-path="url(#clip-path-16)"
     id="g156"
     transform="matrix(5.560346,0,0,5.2602254,-1357.5119,-1785.0257)">
    <g
       class="cls-24"
       id="g154"
       style="isolation:isolate">
      <g
         class="cls-25"
         clip-path="url(#clip-path-17)"
         id="g152">
        <g
           class="cls-26"
           clip-path="url(#clip-path-18)"
           id="g150">
          <g
             class="cls-27"
             clip-path="url(#clip-path-19)"
             id="g148">
            <rect
               class="cls-4"
               x="257.03"
               y="438.01001"
               width="22"
               height="21.379999"
               id="rect146"
               style="fill:#2d2d2d" />
          </g>
        </g>
      </g>
    </g>
  </g>
  <g
     class="cls-28"
     clip-path="url(#clip-path-20)"
     id="g160"
     transform="matrix(5.560346,0,0,5.2602254,-1357.5119,-1785.0257)">
    <rect
       class="cls-4"
       x="257.03"
       y="440.70999"
       width="12"
       height="10.44"
       id="rect158"
       style="fill:#2d2d2d" />
  </g>
  <g
     class="cls-29"
     clip-path="url(#clip-path-21)"
     id="g164"
     transform="matrix(5.560346,0,0,5.2602254,-1357.5119,-1785.0257)">
    <rect
       class="cls-4"
       x="257.03"
       y="439.70999"
       width="12"
       height="10.44"
       id="rect162"
       style="fill:#2d2d2d" />
  </g>
  <g
     class="cls-30"
     clip-path="url(#clip-path-22)"
     id="g168"
     transform="matrix(5.560346,0,0,5.2602254,-1357.5119,-1785.0257)">
    <rect
       class="cls-4"
       x="257.03"
       y="442.70999"
       width="12"
       height="10.44"
       id="rect166"
       style="fill:#2d2d2d" />
  </g>
  <g
     class="cls-31"
     clip-path="url(#clip-path-23)"
     id="g172"
     transform="matrix(5.560346,0,0,5.2602254,-1357.5119,-1785.0257)">
    <rect
       class="cls-32"
       x="281.03"
       y="399.92999"
       width="44"
       height="44"
       id="rect170"
       style="opacity:0.2;fill:#c5d62d" />
  </g>
  <g
     class="cls-33"
     clip-path="url(#clip-path-24)"
     id="g176"
     transform="matrix(5.560346,0,0,5.2602254,-1357.5119,-1785.0257)">
    <rect
       class="cls-34"
       x="285.03"
       y="403.92999"
       width="36"
       height="36"
       id="rect174"
       style="fill:#c5d62d" />
  </g>
</svg>
