<?xml version="1.0" encoding="utf-8"?>
<!-- Generator: Adobe Illustrator 19.2.1, SVG Export Plug-In . SVG Version: 6.00 Build 0)  -->
<svg version="1.0" id="File_DOC" xmlns="http://www.w3.org/2000/svg" xmlns:xlink="http://www.w3.org/1999/xlink" x="0px" y="0px"
	 viewBox="0 0 52 52" enable-background="new 0 0 52 52" xml:space="preserve">
<path d="M26,4c12.1,0,22,9.9,22,22s-9.9,22-22,22S4,38.1,4,26S13.9,4,26,4 M26,2C12.7,2,2,12.7,2,26s10.7,24,24,24s24-10.7,24-24
	S39.3,2,26,2L26,2z"/>
<path d="M39,22h-2v-3c0-0.1,0-0.3-0.1-0.4c-0.1-0.1-0.1-0.2-0.2-0.3l-7-7c-0.1-0.1-0.2-0.2-0.3-0.2C29.3,11,29.1,11,29,11H16
	c-0.6,0-1,0.4-1,1v10h-2c-0.6,0-1,0.4-1,1v13c0,0.6,0.4,1,1,1h2v3c0,0.6,0.4,1,1,1h20c0.6,0,1-0.4,1-1v-3h2c0.6,0,1-0.4,1-1V23
	C40,22.4,39.6,22,39,22z M30,14.4l3.6,3.6H30V14.4z M17,13h11v6c0,0.6,0.4,1,1,1h6v2H17V13z M35,39H17v-2h18V39z M38,35H14V24h24V35
	z M31.6,32.2c-0.5-0.6-0.8-1.5-0.8-2.7c0-0.7,0.1-1.4,0.4-1.9c0.3-0.5,0.6-1,1.1-1.3c0.5-0.3,1.1-0.4,1.7-0.4c0.7,0,1.4,0.2,2,0.5
	l-0.5,1.2c-0.3-0.1-0.5-0.2-0.8-0.3c-0.3-0.1-0.5-0.1-0.8-0.1c-0.6,0-1,0.2-1.3,0.6c-0.3,0.4-0.5,1-0.5,1.8c0,1.6,0.6,2.3,1.8,2.3
	c0.5,0,1.1-0.1,1.8-0.4v1.2c-0.6,0.2-1.2,0.4-1.9,0.4C32.9,33.1,32.1,32.8,31.6,32.2z M26.3,33.1c1.1,0,1.9-0.3,2.5-0.9
	c0.6-0.6,0.9-1.5,0.9-2.7c0-1.2-0.3-2.1-0.9-2.7c-0.6-0.6-1.4-0.9-2.5-0.9c-1.1,0-1.9,0.3-2.5,0.9c-0.6,0.6-0.9,1.5-0.9,2.7
	c0,1.2,0.3,2.1,0.9,2.7C24.4,32.8,25.2,33.1,26.3,33.1z M24.9,27.7c0.3-0.4,0.7-0.6,1.3-0.6c1.2,0,1.8,0.8,1.8,2.4
	c0,1.6-0.6,2.4-1.8,2.4c-0.6,0-1-0.2-1.3-0.6c-0.3-0.4-0.4-1-0.4-1.8C24.5,28.7,24.6,28.1,24.9,27.7z M20.8,32.1
	c0.7-0.6,1-1.5,1-2.6c0-1.1-0.3-1.9-0.9-2.5c-0.6-0.6-1.5-0.9-2.7-0.9H16v7h2C19.2,33,20.2,32.7,20.8,32.1z M17.5,27.2h0.8
	c1.3,0,2,0.8,2,2.3c0,1.5-0.7,2.3-2.1,2.3h-0.6V27.2z"/>
</svg>
