<?xml version="1.0" encoding="UTF-8"?>
<svg width="291px" height="264px" viewBox="0 0 291 264" version="1.1" xmlns="http://www.w3.org/2000/svg" xmlns:xlink="http://www.w3.org/1999/xlink">
    <!-- Generator: Sketch 59.1 (86144) - https://sketch.com -->
    <title>Group 17</title>
    <desc>Created with Sketch.</desc>
    <g id="Page-1" stroke="none" stroke-width="1" fill="none" fill-rule="evenodd">
        <g id="01.Home" transform="translate(-503.000000, -624.000000)">
            <g id="Group-17" transform="translate(503.000000, 621.000000)">
                <line x1="33.7920744" y1="104.669918" x2="33.7920744" y2="104.669918" id="Stroke-9" stroke="#00A651" stroke-width="2"></line>
                <path id="Stroke-11" d="M15.2919073,127.482735 C15.8527759,126.940971 16.7903656,127.221099 16.9621053,127.981749 L16.9621053,127.981749 L19.9943589,141.411862 C20.1159922,141.950586 19.7778731,142.485912 19.2391489,142.607545 C18.7004247,142.729178 18.1650992,142.391059 18.0434659,141.852335 L18.0434659,141.852335 L15.851,132.145 L13.5339549,139.899611 C11.6556599,147.639979 10.6445757,155.589326 10.5602059,163.525206 L10.5544507,164.607268 C10.5544507,178.312741 13.2942143,191.757492 18.5626769,204.188875 C18.7781824,204.697378 18.5406606,205.284304 18.0321571,205.499809 C17.5236536,205.715315 16.9367283,205.477793 16.7212228,204.969289 C11.34829,192.2914 8.55445066,178.581285 8.55445066,164.607268 C8.55445066,156.15185 9.58959879,147.673022 11.604009,139.377521 L11.604009,139.377521 L13.935,131.573 L6.77865599,138.486692 C6.41198147,138.840877 5.84435517,138.858776 5.45740676,138.547001 L5.36465463,138.462193 C4.98095398,138.064963 4.99192228,137.431893 5.38915301,137.048192 L5.38915301,137.048192 Z" fill="#0097A9" fill-rule="nonzero"></path>
                <path id="Stroke-13" d="M168.932529,242.044012 C169.360726,241.695206 169.990612,241.759565 170.339418,242.187763 C170.688224,242.61596 170.623864,243.245845 170.195667,243.594651 C151.60459,258.73879 130.388925,266.865609 108.221524,266.865609 C90.5741724,266.865609 73.6000827,261.784514 57.799709,252.030971 L57.799709,252.030971 L51.12,247.443 L55.5086464,256.375634 C55.7347655,256.835928 55.5746402,257.385508 55.1537251,257.656641 L55.0520186,257.714099 C54.5563171,257.957612 53.9570655,257.753173 53.7135527,257.257472 L53.7135527,257.257472 L47.6429045,244.899894 C47.2990773,244.19999 47.8530446,243.393351 48.6297274,243.462968 L48.6297274,243.462968 L62.3429199,244.692135 C62.8929993,244.741441 63.2989566,245.227339 63.2496508,245.777418 C63.200345,246.327498 62.7144472,246.733455 62.1643678,246.684149 L62.1643678,246.684149 L52.252,245.795 L58.8910468,250.35568 C74.0895124,259.73632 90.4112498,264.701335 107.37291,264.861601 L108.221524,264.865609 C129.910665,264.865609 150.686053,256.907442 168.932529,242.044012 Z" fill="#0097A9" fill-rule="nonzero"></path>
                <path id="Stroke-15" d="M195.381,124.175689 C195.860094,123.90094 196.471205,124.066595 196.745954,124.54569 C204.285671,137.693113 208.257421,152.278786 208.257421,167.352838 C208.257421,175.368065 207.112939,183.294167 204.865531,191.036928 L204.865531,191.036928 L202.112,198.652 L209.648746,192.155091 C210.034869,191.822215 210.602599,191.836454 210.971291,192.169619 L211.059097,192.259538 C211.419713,192.677838 211.37295,193.309274 210.95465,193.669889 L210.95465,193.669889 L200.52665,202.659845 C199.936033,203.169015 199.015791,202.836298 198.887355,202.067151 L198.887355,202.067151 L196.619677,188.487013 C196.528714,187.942271 196.896574,187.426929 197.441316,187.335966 C197.986058,187.245002 198.5014,187.612862 198.592363,188.157604 L198.592363,188.157604 L200.231,197.973 L202.964675,190.41841 C205.049362,183.229289 206.162466,175.82251 206.251605,168.330526 L206.257421,167.352838 C206.257421,152.631765 202.3789,138.38846 195.010999,125.540643 C194.73625,125.061549 194.901905,124.450438 195.381,124.175689 Z" fill="#0097A9" fill-rule="nonzero"></path>
                <path d="M158.782173,104.669918 C158.782173,92.3267499 168.996332,82.3212526 181.594055,82.3212526 C194.19289,82.3212526 204.405936,92.3267499 204.405936,104.669918 C204.405936,117.013085 194.19289,127.018583 181.594055,127.018583 C168.996332,127.018583 158.782173,117.013085 158.782173,104.669918" id="Fill-17" fill="#FFFFFF"></path>
                <path d="M158.782173,105.145421 C158.782173,92.5396329 168.996332,82.3212526 181.594055,82.3212526 C194.19289,82.3212526 204.405936,92.5396329 204.405936,105.145421 C204.405936,117.75121 194.19289,127.96959 181.594055,127.96959 C168.996332,127.96959 158.782173,117.75121 158.782173,105.145421 Z" id="Stroke-19" stroke="#0097A9" stroke-width="2" fill="#FFFFFF"></path>
                <path d="M158.782173,222.119285 C158.782173,209.513497 168.996332,199.295117 181.594055,199.295117 C194.19289,199.295117 204.405936,209.513497 204.405936,222.119285 C204.405936,234.725074 194.19289,244.943454 181.594055,244.943454 C168.996332,244.943454 158.782173,234.725074 158.782173,222.119285 Z" id="Stroke-19-Copy" stroke="#0097A9" stroke-width="2" fill="#FFFFFF"></path>
                <!--<path d="M2,223 C2,208.089415 14.536,196 30,196 C45.4653333,196 58,208.089415 58,223 C58,237.911902 45.4653333,250 30,250 C14.536,250 2,237.911902 2,223 Z" id="Stroke-27" stroke="#0097A9" stroke-width="2" fill="#FFFFFF"></path>-->
				<path d="M7,223 C7,210.29839 17.2974286,200 30,200 C42.7036667,200 53,210.29839 53,223 C53,235.702732 42.7036667,246 30,246 C17.2974286,246 7,235.702732 7,223 Z" id="Stroke-27" stroke="#0097A9" stroke-width="2" fill="#FFFFFF"></path>
				<path id="Stroke-29" d="M176.975769,45.7710401 C177.239734,45.2859202 177.846986,45.1066382 178.332106,45.3706026 L178.332106,45.3706026 L190.42589,51.9510951 C191.110854,52.3237987 191.124622,53.3022448 190.450416,53.6940736 L190.450416,53.6940736 L178.546576,60.6122448 C178.069076,60.8897545 177.457019,60.7276298 177.179509,60.2501292 C176.902,59.7726286 177.064124,59.1605718 177.541625,58.8830621 L177.541625,58.8830621 L186.146,53.882 L177.99729,53.9976392 C122.856482,55.5682545 82.3117433,68.4136709 54.1680176,87.9748253 L53.318971,88.5696385 C42.6516644,96.1021349 35.3161137,103.082009 31.3130794,109.479865 C31.0201389,109.948058 30.4031186,110.090127 29.9349261,109.797187 C29.4667335,109.504246 29.3246636,108.887226 29.6176041,108.419034 C33.7844165,101.759419 41.3000735,94.6081713 52.1653355,86.9358927 C80.6687449,66.8088037 121.8565,53.5959265 177.954747,51.9981436 L177.954747,51.9981436 L186.116,51.883 L177.376207,47.127377 C176.925738,46.8822673 176.738977,46.3411589 176.92594,45.8766941 Z" fill="#0097A9" fill-rule="nonzero"></path>
                <path id="Stroke-35" d="M276.727069,44.9083929 C276.987527,44.4213813 277.59347,44.237723 278.080482,44.4981806 L278.080482,44.4981806 L290.221426,50.9912529 C290.90906,51.3590052 290.929887,52.3373264 290.258525,52.7340091 L290.258525,52.7340091 L278.404905,59.7378789 C277.929419,60.0188263 277.316209,59.8611214 277.035262,59.3856353 C276.754314,58.9101492 276.912019,58.2969387 277.387505,58.0159914 L277.387505,58.0159914 L285.954,52.953 L244.348011,53.8398083 C243.835291,53.8507231 243.4045,53.4737661 243.336163,52.9777695 L243.326954,52.861318 C243.3152,52.3091584 243.753285,51.8520157 244.305445,51.8402613 L244.305445,51.8402613 L285.912,50.954 L277.137281,46.2618056 C276.685056,46.0199521 276.494396,45.4802051 276.678003,45.0144036 Z" fill="#0097A9" fill-rule="nonzero"></path>
                <path d="M11.4554408,104.669918 C11.4554408,92.3267499 21.6695997,82.3212526 34.2673219,82.3212526 C46.866157,82.3212526 57.0792031,92.3267499 57.0792031,104.669918 C57.0792031,117.013085 46.866157,127.018583 34.2673219,127.018583 C21.6695997,127.018583 11.4554408,117.013085 11.4554408,104.669918" id="Fill-41" fill="#FFFFFF"></path>
                <path d="M11.4554408,104.669918 C11.4554408,92.3267499 21.6695997,82.3212526 34.2673219,82.3212526 C46.866157,82.3212526 57.0792031,92.3267499 57.0792031,104.669918 C57.0792031,117.013085 46.866157,127.018583 34.2673219,127.018583 C21.6695997,127.018583 11.4554408,117.013085 11.4554408,104.669918 Z" id="Stroke-43" stroke="#0097A9" stroke-width="2" fill="#FFFFFF"></path>
                <polygon id="Fill-61" stroke="#000000" points="184.418926 219.266264 184.418926 219.266264 185.140035 219.163556 185.862411 218.958138 186.527758 218.650012 187.082847 218.237909 187.526411 217.724365 187.91548 217.108112 188.13853 216.439871 188.24752 215.719642 188.24752 215.15411 188.13853 214.484601 187.91548 213.868348 187.526411 213.252096 187.082847 212.686564 186.527758 212.274461 185.862411 211.915614 185.140035 211.812905 184.418926 211.658208 183.586292 211.812905 182.919678 211.915614 182.254332 212.274461 181.753738 212.686564 181.310173 213.252096 180.921104 213.868348 180.699322 214.484601 180.64356 215.15411 180.64356 215.719642 180.699322 216.439871 180.921104 217.108112 181.310173 217.724365 181.753738 218.237909 182.254332 218.650012 182.919678 218.958138 183.586292 219.163556"></polygon>
                <polygon id="Fill-63" stroke="#000000" points="175.918241 217.36425 175.918241 217.36425 175.141551 217.416239 174.420261 217.622924 173.754371 217.933586 173.199282 218.398946 172.754994 218.917562 172.421506 219.538886 172.199905 220.158943 172.089104 220.934965 172.089104 221.401592 172.199905 222.177614 172.421506 222.798938 172.754994 223.418995 173.199282 223.885622 173.754371 224.40297 174.420261 224.661644 175.141551 224.869598 175.918241 224.972306 176.640618 224.869598 177.417308 224.661644 177.972397 224.40297 178.582886 223.885622 179.026089 223.418995 179.416063 222.798938 179.637664 222.177614 179.693065 221.401592 179.693065 220.934965 179.637664 220.158943 179.416063 219.538886 179.026089 218.917562 178.582886 218.398946 177.972397 217.933586 177.417308 217.622924 176.640618 217.416239"></polygon>
                <polygon id="Fill-65" stroke="#000000" points="189.240787 221.716296 186.784946 220.217271 186.196827 220.579843 185.662173 220.837803 184.914847 220.993531 184.274451 221.044647 183.579401 220.993531 182.939005 220.837803 182.245144 220.579843 181.711678 220.217271 181.392074 220.372999 181.604748 221.148069 181.711678 221.92314 181.711678 222.387945 181.604748 223.164204 181.497817 223.939275 181.12356 224.559807 180.64356 225.17915 181.92554 226.213371 182.352074 226.574753 182.619401 227.040747 182.779797 227.505551 182.832074 228.073778 182.832074 229.469381 182.779797 229.727342 189.881183 229.727342 189.934649 229.727342 190.095045 229.676225 190.14851 229.62392 190.14851 229.469381 190.14851 223.267626 190.095045 222.801633 189.881183 222.387945 189.561579 222.026562"></polygon>
                <polygon id="Fill-67" stroke="#000000" points="180.64356 228.599447 180.64356 227.64844 180.64356 227.366942 180.536629 227.085444 180.322767 226.838182 179.949698 226.663197 178.667718 225.923313 178.027322 226.204812 177.386926 226.380748 176.639599 226.521497 175.94455 226.557635 175.143758 226.521497 174.396431 226.380748 173.754847 226.204812 173.221381 225.923313 171.833659 226.663197 171.565144 226.838182 171.35247 227.085444 171.192074 227.366942 171.138609 227.64844 171.138609 228.599447 171.192074 228.705009 171.192074 228.740196 171.35247 228.776335 171.405936 228.776335 180.376233 228.776335 180.536629 228.776335 180.590094 228.740196 180.64356 228.705009"></polygon>
                <polygon id="Fill-69" fill="#000000" points="40.0150214 105.370005 40.0150214 105.370005 39.8170948 105.229549 39.6202864 105.183461 39.3742759 105.229549 39.2266696 105.370005 39.0790634 105.463277 39.0298613 105.743093 39.0790634 105.929636 39.2266696 106.11618 40.9006592 107.980519 40.7530529 107.980519 36.2219871 107.980519 34.0067745 104.903646 36.56752 101.360413 40.6054466 101.360413 40.7530529 101.360413 40.9006592 101.360413 39.2266696 103.22585 39.0790634 103.411296 39.0298613 103.598937 39.0790634 103.785481 39.2266696 103.972025 39.3742759 104.111384 39.6202864 104.111384 39.8170948 104.111384 40.0150214 103.972025 42.6741711 101.221054 42.7233732 101.03451 42.8217774 100.847967 42.7233732 100.661423 42.6741711 100.474879 40.0150214 97.7239087 39.8170948 97.5845496 39.6202864 97.537365 39.3742759 97.5845496 39.2266696 97.7239087 39.0790634 97.8171805 39.0298613 98.0969961 39.0790634 98.2835397 39.2266696 98.4239962 40.9006592 100.288336 40.9006592 100.334423 40.7530529 100.288336 40.6054466 100.288336 37.2563493 100.288336 36.3695933 100.288336 36.172785 100.334423 35.9770948 100.474879 33.3168269 104.065297 30.6084751 100.474879 30.4105485 100.334423 30.2137401 100.288336 28.0477296 100.288336 25.9790051 100.288336 24.5510261 100.288336 24.2546953 100.334423 24.1562911 100.474879 24.009803 100.661423 23.9606009 100.847967 24.009803 101.03451 24.1562911 101.221054 24.2546953 101.360413 24.5510261 101.360413 25.9790051 101.360413 30.01805 101.360413 32.6771996 104.903646 30.3613464 107.980519 24.4023016 107.980519 24.2054932 107.980519 24.009803 108.119879 23.8610785 108.306422 23.8118764 108.492966 23.8610785 108.67951 24.009803 108.866053 24.2054932 109.005412 24.4023016 109.005412 30.7068793 109.005412 30.9036877 109.005412 31.0020919 108.866053 33.3168269 105.78918 35.5823598 108.866053 35.8283703 109.005412 40.7530529 109.005412 40.9006592 109.005412 39.2266696 110.870849 39.0790634 111.057393 39.0298613 111.243937 39.0790634 111.429383 39.2266696 111.615927 39.3742759 111.756383 39.6202864 111.80247 39.8170948 111.756383 40.0150214 111.615927 42.6741711 108.866053 42.7233732 108.67951 42.8217774 108.492966 42.7233732 108.306422 42.6741711 108.119879"></polygon>
                <path d="M194.900985,54.7420488 C194.900985,42.1375409 205.11419,31.9178802 217.712866,31.9178802 C230.312629,31.9178802 240.524748,42.1375409 240.524748,54.7420488 C240.524748,67.3476702 230.312629,77.5662175 217.712866,77.5662175 C205.11419,77.5662175 194.900985,67.3476702 194.900985,54.7420488 Z" id="Stroke-73" stroke="#0097A9" stroke-width="2" fill="#FFFFFF"></path>
                <polygon id="Path" stroke="#000000" stroke-linecap="round" points="225.714134 47.1339926 209.662554 47.1339926 209.460668 47.2339842 209.360296 47.332889 209.208597 47.4807026 209.158411 47.6795989 209.158411 57.9885151 209.208597 58.1874114 209.360296 58.3852209 209.460668 58.5330346 209.662554 58.5330346 212.983964 58.5330346 212.983964 62.0533908 213.084336 62.2012045 213.184708 62.350105 213.286221 62.350105 213.485825 62.2512003 218.317381 58.5330346 225.714134 58.5330346 225.916019 58.5330346 226.066577 58.3852209 226.16695 58.1874114 226.267322 57.9885151 226.267322 47.6795989 226.16695 47.4807026 226.066577 47.332889 225.916019 47.2339842"></polygon>
                <line x1="211.534649" y1="54.2665453" x2="218.188114" y2="54.2665453" id="Line" stroke="#000000" stroke-linecap="round"></line>
                <line x1="211.534649" y1="51.4135242" x2="221.039599" y2="51.4135242" id="Line-2" stroke="#000000" stroke-linecap="round"></line>
                <path d="M41.6189466,221.100349 C41.8599591,220.58522 41.9402965,219.984048 41.9402965,219.468919 C41.9402965,217.237449 40.3357783,215.435065 38.2503508,215.349021 C37.7694416,213.717591 36.3267141,212.602422 34.6418583,212.602422 C34.1598334,212.602422 33.5985867,212.688466 33.1187933,212.946596 C32.3957559,212.087293 31.4339375,211.658208 30.3906659,211.658208 C29.4288476,211.658208 28.5462509,212.002382 27.8254451,212.688466 C26.7029517,212.344292 25.3383301,212.688466 24.4568493,213.63268 C24.1354993,213.546636 23.8152651,213.460593 23.5742526,213.460593 C21.4096035,213.460593 19.7247477,215.349021 19.7247477,217.580491 L19.7247477,217.923533 C18.1202294,218.867747 17.1584111,220.670132 17.1584111,222.644604 C17.1584111,225.648201 19.4045135,228.137801 22.2922001,228.137801 C22.9326685,228.137801 23.5742526,227.965714 24.1354993,227.708716 C24.857421,228.568019 25.9006926,229.082015 26.9428484,229.082015 C27.7439918,229.082015 28.4670292,228.823885 29.1086134,228.3948 C29.5091851,228.995972 30.1507692,229.425057 30.7923534,229.768099 L30.7923534,234.575213 C30.7923534,235.090342 31.192925,235.433384 31.67495,235.433384 L36.8065075,235.433384 C37.2885324,235.433384 37.6891041,235.090342 37.6891041,234.575213 C37.6891041,234.575213 37.6891041,233.029827 38.7323758,232.343743 C39.8548691,231.571616 41.1380374,230.455315 41.0576999,228.568019 C41.0576999,228.223845 41.0576999,227.880803 40.9773624,227.536629 C42.1009715,226.764502 42.8217774,225.477246 42.8217774,224.017903 C42.8217774,222.902734 42.3408682,221.871344 41.6189466,221.100349 Z" id="Fill-87" stroke="#000000"></path>
                <ellipse id="Oval-Copy-5" fill-opacity="0.2" fill="#0097A9" cx="110.306926" cy="165.058864" rx="52.2772277" ry="52.3053864"></ellipse>
                <ellipse id="Oval-Copy-4" fill="#0097A9" cx="110.306926" cy="165.058864" rx="38.019802" ry="38.040281"></ellipse>
                <text id="Define-Sustainment" font-family="Montserrat-SemiBold, Montserrat" font-size="10" font-weight="500" fill="#2D2D2D">
                    <tspan x="203.099352" y="10.8487467">Define</tspan>
                    <tspan x="187.494352" y="23.8487467">Sustainment</tspan>
                </text>
                <text id="Define-Purpose" font-family="Montserrat-SemiBold, Montserrat" font-size="10" font-weight="500" fill="#2D2D2D">
                    <tspan x="214.030045" y="103.096428">Define</tspan>
                    <tspan x="210.020045" y="116.096428">Purpose</tspan>
                </text>
                <text id="Launch-Journey" font-family="Montserrat-SemiBold, Montserrat" font-size="10" font-weight="500" fill="#2D2D2D">
                    <tspan x="213.25554" y="222.923313">Launch</tspan>
                    <tspan x="211.65554" y="235.923313">Journey</tspan>
                </text>
                <text id="Architect" font-family="Montserrat-SemiBold, Montserrat" font-size="10" font-weight="500" fill="#2D2D2D">
                    <tspan x="0.412123924" y="264.13507">Architect</tspan>
                </text>
                <text id="Digital-Design" font-family="Montserrat-SemiBold, Montserrat" font-size="10" font-weight="500" fill="#2D2D2D">
                    <tspan x="15.7515794" y="60.3011121">Digital </tspan>
                    <tspan x="14.6865794" y="73.3011121">Design</tspan>
                </text>
                <path d="M191.583952,93.7139286 C191.583952,93.4810289 191.397732,93.2481292 191.118403,93.2481292 C190.792519,93.2481292 183.343741,93.1083894 178.688255,97.766383 C178.036487,98.4185021 177.431274,99.1637811 176.872616,100.0488 C175.615635,99.5830005 173.334447,100.514599 171.518807,102.331217 C169.423838,104.427314 169.237619,107.594749 169.237619,107.687909 C169.237619,107.874229 169.330729,108.060549 169.470393,108.107129 C169.516948,108.153709 169.610058,108.153709 169.703168,108.153709 C169.796277,108.153709 169.889387,108.107129 169.982497,108.060549 C171.518807,106.849471 172.822343,106.197351 174.03277,106.011032 C173.893105,106.383671 173.799995,106.709731 173.660331,107.08237 C173.613776,107.26869 173.660331,107.40843 173.75344,107.54817 L177.1985,110.995085 C177.29161,111.088245 177.384719,111.134825 177.524384,111.134825 C177.570939,111.134825 177.617494,111.134825 177.664049,111.134825 C178.036487,111.041665 178.408926,110.901925 178.73481,110.762185 C178.595146,111.973263 177.943378,113.277502 176.686397,114.81464 C176.593287,114.954379 176.546732,115.140699 176.639842,115.327019 C176.732951,115.466759 176.872616,115.559919 177.058835,115.559919 C177.058835,115.559919 177.058835,115.559919 177.10539,115.559919 C177.245055,115.559919 180.36423,115.373599 182.459199,113.277502 C184.321393,111.414304 185.252491,109.178467 184.740387,107.920809 C185.62493,107.36185 186.369807,106.756311 187.021575,106.104192 C191.723616,101.492778 191.583952,94.0399881 191.583952,93.7139286 Z M190.094196,98.3253422 C189.209654,98.1390225 188.418221,97.6732231 187.766453,97.067684 C187.114685,96.4155649 186.695691,95.623706 186.509472,94.7386872 C188.325111,94.3194678 189.907977,94.2263079 190.652854,94.1797279 C190.6063,94.9250069 190.51319,96.4621448 190.094196,98.3253422 Z M170.308381,106.663151 C170.541155,105.638392 171.006704,104.101254 172.170575,102.983336 C173.799995,101.353038 175.522525,100.747499 176.360512,100.840659 C175.615635,102.051737 174.963867,103.495715 174.358654,105.079433 C173.148227,105.126013 171.798136,105.638392 170.308381,106.663151 Z M181.853986,112.671963 C180.736669,113.789881 179.200359,114.30226 178.176152,114.53516 C179.200359,113.044602 179.712462,111.740364 179.759017,110.482706 C181.341882,109.877166 182.785083,109.225047 183.995509,108.479768 C184.088619,109.318207 183.436851,111.041665 181.853986,112.671963 Z M177.710603,110.156646 L174.684538,107.12895 C175.894964,103.262815 177.524384,100.23512 179.386578,98.3719222 C181.202218,96.5553047 183.529961,95.5305461 185.62493,94.9250069 C185.857704,95.9497655 186.369807,96.8813642 187.114685,97.6732231 C187.859563,98.4185021 188.79066,98.9308814 189.861422,99.1637811 C189.256209,101.259878 188.232002,103.588875 186.416362,105.405493 C184.088619,107.781069 180.45734,109.318207 177.710603,110.156646 Z" id="Shape" fill="#000000" fill-rule="nonzero"></path>
                <path d="M182.319535,99.0706212 C181.853986,99.5364206 181.621212,100.14196 181.621212,100.794079 C181.621212,101.446198 181.853986,102.051737 182.319535,102.517536 C182.785083,102.983336 183.436851,103.216236 184.042064,103.216236 C184.647277,103.216236 185.299046,102.983336 185.764594,102.517536 C186.230143,102.051737 186.462917,101.446198 186.462917,100.794079 C186.462917,100.14196 186.230143,99.5364206 185.764594,99.0706212 C184.833497,98.0924426 183.250632,98.0924426 182.319535,99.0706212 Z M185.112826,101.865417 C184.507613,102.470957 183.576516,102.470957 182.971303,101.865417 C182.691973,101.585938 182.505754,101.213298 182.505754,100.794079 C182.505754,100.374859 182.645419,100.00222 182.971303,99.7227403 C183.250632,99.4432607 183.669625,99.256941 184.042064,99.256941 C184.414503,99.256941 184.833497,99.3966808 185.112826,99.7227403 C185.392155,100.00222 185.578375,100.374859 185.578375,100.794079 C185.578375,101.213298 185.392155,101.585938 185.112826,101.865417 Z" id="Shape" fill="#000000" fill-rule="nonzero"></path>
                <path d="M172.543014,109.784006 C171.844691,109.877166 171.239478,110.296386 170.913594,110.948505 C170.913594,110.995085 170.867039,110.995085 170.867039,111.041665 L169.703168,114.53516 C169.656613,114.72148 169.703168,114.907799 169.796277,115.000959 C169.889387,115.094119 169.982497,115.140699 170.122161,115.140699 C170.168716,115.140699 170.215271,115.140699 170.261826,115.140699 L173.75344,113.976201 C173.799995,113.976201 173.799995,113.976201 173.84655,113.929621 C174.498318,113.603561 174.917312,112.998022 175.010422,112.299323 C175.103531,111.600624 174.870757,110.901925 174.405208,110.389546 C173.93966,109.923746 173.241337,109.690847 172.543014,109.784006 Z M173.75344,111.088245 C174.03277,111.367724 174.172434,111.786944 174.125879,112.206163 C174.079324,112.625383 173.84655,112.951442 173.474111,113.137762 L170.867039,113.976201 L171.705027,111.367724 C171.891246,111.041665 172.263685,110.808765 172.636124,110.715605 C173.055117,110.622445 173.474111,110.762185 173.75344,111.088245 Z" id="Shape" fill="#000000" fill-rule="nonzero"></path>
                <path d="M23.8096605,217.380707 C22.9244364,218.160983 23.2336295,219.518045 24.7372397,221.45189 C22.1888018,220.970071 20.9555949,221.303446 21.0376191,222.452017" id="Path-8" stroke="#000000" stroke-linecap="round"></path>
                <path d="M28.0694799,218.957181 C27.7719457,218.264677 28.4037558,217.870186 29.9649101,217.773707 C29.0712492,217.299881 28.6897364,216.839948 28.8203717,216.393906" id="Path-9" stroke="#000000" stroke-linecap="round"></path>
                <path d="M31.7387916,220.729161 C31.2299769,222.052306 31.1311449,222.919933 31.4422958,223.332042 C31.9090221,223.950206 29.9691728,221.885215 28.2796185,223.332042" id="Path-10" stroke="#000000" stroke-linecap="round"></path>
                <path d="M36.1326593,229.392066 C35.3647453,228.916169 34.9807884,228.452532 34.9807884,228.001157 C34.9807884,227.324093 35.7729574,225.735192 35.9528084,225.404406 C36.1326593,225.07362 37.1541251,223.502774 38.5595202,223.545796" id="Path-11" stroke="#000000" stroke-linecap="round"></path>
                <path d="M36.8802328,221.058871 C36.5467047,219.847617 35.996657,219.147054 35.2300899,218.957181" id="Path-12" stroke="#000000" stroke-linecap="round"></path>
                <path d="M133.118807,72.0064841 C143.806349,74.4046677 153.984468,78.9034111 163.14581,84.8999447 L165.856399,87.0733206" id="Stroke-5-Copy" stroke="#0097A9" stroke-width="2" stroke-linecap="round" stroke-linejoin="round"></path>
            </g>
        </g>
    </g>
</svg>