<?xml version="1.0" encoding="UTF-8"?>
<svg width="50px" height="50px" viewBox="0 0 50 50" version="1.1" xmlns="http://www.w3.org/2000/svg" xmlns:xlink="http://www.w3.org/1999/xlink">
    <!-- Generator: Sketch 59.1 (86144) - https://sketch.com -->
    <title>Group 3</title>
    <desc>Created with Sketch.</desc>
    <g id="Page-1" stroke="none" stroke-width="1" fill="none" fill-rule="evenodd">
        <g id="03.Architect_Leading_pratices-collapsed" transform="translate(-49.000000, -156.000000)">
            <g id="Group-3" transform="translate(50.000000, 157.000000)">
                <g id="noun_Fullscreen_581166-Copy-2" transform="translate(10.000000, 10.000000)" fill="#000000" fill-rule="nonzero">
                    <g id="Group">
                        <path d="M0.875,28 C0.762125,28 0.648375,27.979 0.539875,27.9335 C0.2135,27.79875 0,27.4785 0,27.125 L0,19.25 C0,18.766125 0.392,18.375 0.875,18.375 C1.358,18.375 1.75,18.766125 1.75,19.25 L1.75,25.01275 L10.756375,16.006375 C11.0985,15.66425 11.6515,15.66425 11.993625,16.006375 C12.33575,16.3485 12.33575,16.9015 11.993625,17.243625 L1.493625,27.743625 C1.3265,27.91075 1.1025,28 0.875,28 Z" id="Path"></path>
                        <path d="M8.75,28 L0.875,28 C0.392,28 0,27.608875 0,27.125 C0,26.641125 0.392,26.25 0.875,26.25 L8.75,26.25 C9.233,26.25 9.625,26.641125 9.625,27.125 C9.625,27.608875 9.233,28 8.75,28 Z" id="Path"></path>
                        <path d="M16.625,12.25 C16.401,12.25 16.177,12.16425 16.006375,11.993625 C15.66425,11.6515 15.66425,11.0985 16.006375,10.756375 L26.506375,0.256375 C26.756625,0.00525 27.132875,-0.06825 27.460125,0.0665 C27.787375,0.202125 28,0.5215 28,0.875 L28,8.75 C28,9.233 27.608875,9.625 27.125,9.625 C26.641125,9.625 26.25,9.233 26.25,8.75 L26.25,2.98725 L17.243625,11.993625 C17.073,12.16425 16.849,12.25 16.625,12.25 Z" id="Path"></path>
                        <path d="M27.125,1.75 L19.25,1.75 C18.766125,1.75 18.375,1.358 18.375,0.875 C18.375,0.392 18.766125,0 19.25,0 L27.125,0 C27.608875,0 28,0.392 28,0.875 C28,1.358 27.608875,1.75 27.125,1.75 Z" id="Path"></path>
                    </g>
                </g>
                <circle id="Oval" stroke="#000000" stroke-width="2" cx="24" cy="24" r="24"></circle>
            </g>
        </g>
    </g>
</svg>