<?xml version="1.0" encoding="UTF-8"?>
<svg width="24px" height="23px" viewBox="0 0 24 23" version="1.1" xmlns="http://www.w3.org/2000/svg" xmlns:xlink="http://www.w3.org/1999/xlink">
    <!-- Generator: Sketch 59.1 (86144) - https://sketch.com -->
    <title></title>
    <desc>Created with Sketch.</desc>
    <g id="Page-1" stroke="none" stroke-width="1" fill="none" fill-rule="evenodd">
        <g id="02.Architect_Leading_pratices-exp" transform="translate(-1291.000000, -541.000000)" fill="#0097A9" fill-rule="nonzero">
            <g id="Group-13" transform="translate(571.000000, 397.000000)">
                <path d="M742.5,147.703125 C742.906252,147.703125 743.257811,147.851561 743.554688,148.148438 C743.851564,148.445314 744,148.796873 744,149.203125 L744,164.953125 C744,165.359377 743.851564,165.710936 743.554688,166.007812 C743.257811,166.304689 742.906252,166.453125 742.5,166.453125 L721.5,166.453125 C721.093748,166.453125 720.742189,166.304689 720.445312,166.007812 C720.148436,165.710936 720,165.359377 720,164.953125 L720,149.203125 C720,148.796873 720.148436,148.445314 720.445312,148.148438 C720.742189,147.851561 721.093748,147.703125 721.5,147.703125 L727.5,147.703125 L727.5,146.25 C727.5,145.640622 727.718748,145.113283 728.15625,144.667969 C728.593752,144.222654 729.124997,144 729.75,144 L734.25,144 C734.875003,144 735.406248,144.222654 735.84375,144.667969 C736.281252,145.113283 736.5,145.640622 736.5,146.25 L736.5,147.703125 L742.5,147.703125 Z M729,146.25 L729,147.703125 L735,147.703125 L735,146.25 C735,146.046874 734.929688,145.871094 734.789062,145.722656 C734.648437,145.574218 734.468751,145.5 734.25,145.5 L729.75,145.5 C729.546874,145.5 729.371094,145.574218 729.222656,145.722656 C729.074218,145.871094 729,146.046874 729,146.25 Z M721.5,149.203125 L721.5,154.476562 L729.75,154.476562 L729.75,153.703125 C729.75,153.296873 729.89453,152.945314 730.183594,152.648438 C730.472658,152.351561 730.828123,152.203125 731.25,152.203125 L732.75,152.203125 C733.156252,152.203125 733.507811,152.351561 733.804688,152.648438 C734.101564,152.945314 734.25,153.296873 734.25,153.703125 L734.25,154.476562 L742.5,154.476562 L742.5,149.203125 L721.5,149.203125 Z M732.75,157.476562 L732.75,153.703125 L731.25,153.703125 L731.25,157.476562 L732.75,157.476562 Z M721.5,164.953125 L742.5,164.953125 L742.5,155.976562 L734.25,155.976562 L734.25,157.476562 C734.25,157.89844 734.101564,158.253905 733.804688,158.542969 C733.507811,158.832033 733.156252,158.976562 732.75,158.976562 L731.25,158.976562 C730.828123,158.976562 730.472658,158.832033 730.183594,158.542969 C729.89453,158.253905 729.75,157.89844 729.75,157.476562 L729.75,155.976562 L721.5,155.976562 L721.5,164.953125 Z" id=""></path>
            </g>
        </g>
    </g>
</svg>