<?xml version="1.0" encoding="UTF-8"?>
<svg width="24px" height="24px" viewBox="0 0 24 24" version="1.1" xmlns="http://www.w3.org/2000/svg" xmlns:xlink="http://www.w3.org/1999/xlink">
    <!-- Generator: Sketch 59.1 (86144) - https://sketch.com -->
    <title>noun_link_465255</title>
    <desc>Created with Sketch.</desc>
    <g id="Page-1" stroke="none" stroke-width="1" fill="none" fill-rule="evenodd">
        <g id="12.ERP-Config" transform="translate(-1171.000000, -387.000000)" fill="#0097A9" fill-rule="nonzero">
            <g id="Group-15" transform="translate(1171.000000, 387.000000)">
                <g id="noun_link_465255">
                    <path d="M21.6288942,13.0119258 C21.6288942,14.1875071 21.6288942,15.3630622 21.6288942,16.5386434 C21.6288942,17.3237601 21.6288942,18.1088768 21.6288942,18.8939673 C21.6288942,19.3118604 21.6542028,19.7416619 21.61094,20.1582726 C21.6082966,20.1821679 21.6053653,20.2060371 21.6021723,20.22988 C21.6161221,20.1290382 21.630072,20.0282225 21.644048,19.9273806 C21.6077732,20.1849422 21.5400131,20.4345998 21.4408201,20.6750185 C21.4795289,20.5823948 21.5182901,20.489771 21.5569989,20.397121 C21.4572824,20.6309444 21.3303991,20.849614 21.1770556,21.0523446 C21.2379324,20.9724667 21.298783,20.892615 21.3596598,20.8127634 C21.2050862,21.0123533 21.0284755,21.1909793 20.8306914,21.3478561 C20.9110142,21.2853304 20.9913893,21.2228571 21.0717121,21.1603577 C20.8616794,21.3230447 20.633771,21.4570731 20.389374,21.5612912 C20.4865518,21.5207241 20.5837296,21.480157 20.6809073,21.4396161 C20.4404362,21.5388353 20.1908048,21.6065692 19.9332432,21.6428702 C20.0376968,21.6293915 20.1421243,21.6159389 20.246578,21.6024602 C19.9715856,21.6377928 19.693374,21.6291821 19.4167328,21.6291821 C18.9649204,21.6291821 18.5131603,21.6291821 18.061374,21.6291821 C16.5697361,21.6291821 15.0781243,21.6291821 13.5864864,21.6291821 C11.8847634,21.6291821 10.1830665,21.6291821 8.48136968,21.6291821 C7.25836423,21.6291821 6.03535878,21.6291821 4.8123795,21.6291821 C4.46240349,21.6291821 4.10308397,21.6471625 3.75533261,21.6024602 C3.85617448,21.61641 3.95699019,21.6303599 4.05783206,21.6443359 C3.80024427,21.6080611 3.55061287,21.540301 3.31016794,21.441108 C3.40281788,21.4798168 3.49544166,21.518578 3.58806543,21.5572868 C3.35426827,21.4575703 3.13557252,21.330687 2.93286805,21.1773435 C3.01271974,21.2381941 3.0925976,21.2990447 3.17244929,21.3599215 C2.9728855,21.2053479 2.79423337,21.0287634 2.6373566,20.8309531 C2.69985605,20.9113021 2.76235551,20.991651 2.82485496,21.072 C2.66216794,20.8619411 2.52813959,20.6340589 2.42392148,20.3896619 C2.46448855,20.4868397 2.50502944,20.5840174 2.54559651,20.6811952 C2.44637732,20.4407241 2.3786434,20.1910927 2.34236859,19.9335311 C2.35584733,20.0379586 2.36929989,20.1424122 2.38275245,20.2468659 C2.34741985,19.9718735 2.35605671,19.6936619 2.35605671,19.4169945 C2.35605671,18.9652083 2.35605671,18.5134482 2.35605671,18.0616619 C2.35605671,16.570024 2.35605671,15.0784122 2.35605671,13.5867743 C2.35605671,11.8850513 2.35605671,10.1833544 2.35605671,8.48163141 C2.35605671,7.25862595 2.35605671,6.0356205 2.35605671,4.81264122 C2.35605671,4.46266521 2.33807634,4.10334569 2.38275245,3.75559433 C2.36880262,3.85643621 2.35485278,3.95725191 2.34087677,4.05809378 C2.37715158,3.800506 2.4448855,3.55087459 2.54410469,3.31042966 C2.50536968,3.40307961 2.46666085,3.49570338 2.42792585,3.58832715 C2.52764231,3.35452999 2.6545518,3.13583424 2.80784297,2.93312977 C2.74699237,3.01298146 2.68614177,3.09285932 2.62526499,3.17271101 C2.7798386,2.97314722 2.95644929,2.79449509 3.15423337,2.63761832 C3.07388441,2.70011778 2.99353544,2.76261723 2.91321265,2.82511668 C3.12327154,2.66242966 3.35115376,2.52840131 3.59555071,2.42418321 C3.49837296,2.46475027 3.4011952,2.50529117 3.30401745,2.54585823 C3.54448855,2.44663904 3.79411996,2.37890513 4.05168157,2.34263032 C3.94725409,2.35610905 3.84282661,2.36956161 3.73837296,2.38301418 C4.16589749,2.32807852 4.61166412,2.35631843 5.04146565,2.35631843 C5.82273501,2.35631843 6.60403053,2.35631843 7.38529989,2.35631843 C8.5546783,2.35631843 9.72405671,2.35631843 10.8934613,2.35631843 C11.5350752,2.35631843 12.0756903,1.83156379 12.0799564,1.18678299 C12.0841963,0.548388222 11.5520872,0.000287895311 10.9104209,0.000287895311 C9.73235333,0.000287895311 8.55425954,0.000287895311 7.37616576,0.000287895311 C6.59746129,0.000287895311 5.81875682,0.000287895311 5.04005234,0.000287895311 C4.5003795,0.000287895311 3.97860851,-0.00816575791 3.44202399,0.0673675027 C2.67318648,0.175642312 1.98870229,0.555794984 1.39956379,1.04558342 C0.821522356,1.52613304 0.420824427,2.21137623 0.186660851,2.91766194 C0.024523446,3.4065867 0,3.92139586 0,4.43144166 C0,5.4856096 0,6.53980371 0,7.59394547 C0,9.25769248 0,10.9214656 0,12.5852126 C0,14.1697361 0,15.7542857 0,17.3388353 C0,18.1553588 0,18.9719084 0,19.788458 C0,20.9391232 0.45997819,22.0688506 1.30557906,22.8581287 C2.0931036,23.5932301 3.12968375,23.9851865 4.20369029,23.9851865 C5.05873937,23.9851865 5.91378844,23.9851865 6.76886369,23.9851865 C8.36780807,23.9851865 9.96675245,23.9851865 11.5656968,23.9851865 C13.2197601,23.9851865 14.8737972,23.9851865 16.5278342,23.9851865 C17.5481876,23.9851865 18.5685671,23.9851865 19.5889204,23.9851865 C20.1667263,23.9851865 20.7511799,23.937422 21.2905649,23.714879 C21.5069836,23.6256052 21.7200785,23.5398386 21.9229924,23.4236074 C22.1308266,23.3045496 22.3184297,23.1531167 22.5054831,23.0047721 C22.8044493,22.7676249 23.0319389,22.4814308 23.2581461,22.175084 C23.7123141,21.5599826 23.9287328,20.7845234 23.9793501,20.0305256 C24.0059411,19.6345911 23.9849248,19.2314068 23.9849248,18.8351058 C23.9849248,18.04041 23.9849248,17.2456881 23.9849248,16.4510185 C23.9849248,15.3102988 23.9849248,14.1696052 23.9849248,13.0288855 C23.9849248,12.3872715 23.4601701,11.8466565 22.8153893,11.8423904 C22.1769945,11.8381505 21.6288942,12.3702595 21.6288942,13.0119258 L21.6288942,13.0119258 Z" id="Path"></path>
                    <path d="M15.2420414,2.35631843 C16.3537623,2.35733915 17.4654569,2.35835987 18.5771778,2.35938059 C19.9403097,2.36063686 21.3034417,2.36189313 22.6665736,2.3631494 C22.7105169,2.36320174 22.7544602,2.36322792 22.7984297,2.36328073 C23.4400436,2.36385605 23.9806587,1.8380807 23.9849499,1.19374482 C23.9891647,0.554905125 23.4570556,0.00782551799 22.8153893,0.00724972737 C21.7036685,0.00622900763 20.5919738,0.0052082879 19.480253,0.00418756816 C18.117121,0.00293129771 16.7539891,0.00167502726 15.3908571,0.000418756816 C15.3469138,0.000366412214 15.3029706,0.000340239913 15.2590011,0.000287422839 C14.6173871,-0.000287895311 14.0767721,0.525487459 14.0724808,1.16982334 C14.0682661,1.80863686 14.6003751,2.35574264 15.2420414,2.35631843 L15.2420414,2.35631843 Z" id="Path"></path>
                    <path d="M23.9779368,8.74322356 C23.9789836,7.63150273 23.9800044,6.51980807 23.9810251,5.40808724 C23.9822814,4.04495529 23.9835376,2.68179716 23.9848201,1.31866521 C23.9848462,1.27469575 23.9848986,1.23075245 23.9849253,1.18678299 C23.9855267,0.545169029 23.4597514,0.00455398037 22.8153893,0.000262732297 C22.1765496,-0.00395201745 21.62947,0.528183206 21.6288942,1.16982334 C21.6278473,2.28154417 21.6268266,3.39323882 21.6258059,4.50495965 C21.6245496,5.8680916 21.6232933,7.23124973 21.6220109,8.59438168 C21.6219847,8.63835115 21.6219324,8.68229444 21.6219057,8.7262639 C21.6213043,9.36787786 22.1470796,9.90849291 22.7914417,9.91278416 C23.4302814,9.91699891 23.9773348,9.38486369 23.9779368,8.74322356 L23.9779368,8.74322356 Z" id="Path"></path>
                    <path d="M11.3880916,14.2531472 C11.8185213,13.8230316 12.2489509,13.3929684 12.6793806,12.962879 C13.7036336,11.9394635 14.7278604,10.916048 15.7520872,9.89260632 C16.9696227,8.6760916 18.1871058,7.45955071 19.4046412,6.24300981 C20.4148659,5.23359651 21.4250643,4.22418321 22.4353152,3.2147699 C22.8382901,2.81208288 23.2413173,2.40942203 23.6442923,2.00673501 C24.0977012,1.5536663 24.0900327,0.789880044 23.6353675,0.34089422 C23.177012,-0.111677208 22.4238255,-0.104113413 21.9695267,0.349818975 C21.5390971,0.779908397 21.1086674,1.20997165 20.6782377,1.64006107 C19.6539847,2.66350273 18.6297579,3.68691821 17.6055311,4.7103337 C16.3879956,5.92684842 15.1705125,7.14338931 13.9529771,8.35993021 C12.9427525,9.36934351 11.9325278,10.3787568 10.9223293,11.3881701 C10.5193282,11.7908571 10.1163272,12.193518 9.71332606,12.5961788 C9.25991712,13.0492475 9.26758561,13.8130338 9.72225082,14.2620196 C10.180554,14.7146434 10.9337666,14.7070796 11.3880916,14.2531472 L11.3880916,14.2531472 Z" id="Path"></path>
                </g>
            </g>
        </g>
    </g>
</svg>