<?xml version="1.0" encoding="UTF-8"?>
<svg width="24px" height="24px" viewBox="0 0 24 24" version="1.1" xmlns="http://www.w3.org/2000/svg" xmlns:xlink="http://www.w3.org/1999/xlink">
    <!-- Generator: Sketch 59.1 (86144) - https://sketch.com -->
    <title></title>
    <desc>Created with Sketch.</desc>
    <g id="Page-1" stroke="none" stroke-width="1" fill="none" fill-rule="evenodd">
        <g id="02.Architect_Leading_pratices-exp" transform="translate(-1197.000000, -23.000000)" fill="#000000" fill-rule="nonzero">
            <g id="Group-14" transform="translate(0.000000, -6.000000)">
                <g id="Group-10" transform="translate(1133.000000, 26.000000)">
                    <path d="M87.7896787,25.7109375 C87.9298929,25.8515632 88,26.0273427 88,26.2382812 C88,26.4492198 87.9298929,26.6249993 87.7896787,26.765625 C87.6338843,26.9218758 87.4547235,27 87.2521908,27 C87.0496582,27 86.8704974,26.9218758 86.714703,26.765625 L79.4703019,19.453125 C78.6445918,20.1718786 77.7098397,20.734373 76.6660175,21.140625 C75.6221954,21.546877 74.5160721,21.75 73.3476144,21.75 C72.0545213,21.75 70.8393436,21.5039087 69.7020448,21.0117188 C68.564746,20.5195288 67.5715719,19.8515667 66.7224927,19.0078125 C65.8734135,18.1640583 65.2074026,17.1718807 64.7244401,16.03125 C64.2414776,14.8906193 64,13.6718815 64,12.375 C64,11.0781185 64.2414776,9.8593807 64.7244401,8.71875 C65.2074026,7.5781193 65.8734135,6.58594172 66.7224927,5.7421875 C67.5715719,4.89843328 68.564746,4.23047121 69.7020448,3.73828125 C70.8393436,3.24609129 72.0545213,3 73.3476144,3 C74.6251281,3 75.8325162,3.24609129 76.969815,3.73828125 C78.1071138,4.23047121 79.1002879,4.89843328 79.9493671,5.7421875 C80.7984463,6.58594172 81.468352,7.5781193 81.9591042,8.71875 C82.4498564,9.8593807 82.6952288,11.0781185 82.6952288,12.375 C82.6952288,13.5156307 82.5004888,14.5976511 82.1110029,15.6210938 C81.721517,16.6445364 81.1918242,17.5624959 80.5219085,18.375 L87.7896787,25.7109375 Z M73.3476144,20.2734375 C74.4225954,20.2734375 75.4391383,20.0664083 76.3972736,19.6523438 C77.3554089,19.2382792 78.1888962,18.6718786 78.8977605,17.953125 C79.6066248,17.2343714 80.167476,16.3984423 80.5803311,15.4453125 C80.9931861,14.4921827 81.1996105,13.4687555 81.1996105,12.375 C81.1996105,11.2812445 80.9931861,10.2578173 80.5803311,9.3046875 C80.167476,8.35155773 79.6066248,7.51562859 78.8977605,6.796875 C78.1888962,6.07812141 77.3554089,5.51172082 76.3972736,5.09765625 C75.4391383,4.68359168 74.4225954,4.4765625 73.3476144,4.4765625 C72.2570539,4.4765625 71.2327214,4.68359168 70.2745862,5.09765625 C69.3164509,5.51172082 68.4829636,6.07812141 67.7740993,6.796875 C67.065235,7.51562859 66.5043838,8.35155773 66.0915287,9.3046875 C65.6786737,10.2578173 65.4722493,11.2812445 65.4722493,12.375 C65.4722493,13.4687555 65.6786737,14.4921827 66.0915287,15.4453125 C66.5043838,16.3984423 67.065235,17.2343714 67.7740993,17.953125 C68.4829636,18.6718786 69.3164509,19.2382792 70.2745862,19.6523438 C71.2327214,20.0664083 72.2570539,20.2734375 73.3476144,20.2734375 Z" id=""></path>
                </g>
            </g>
        </g>
    </g>
</svg>