<?xml version="1.0" encoding="UTF-8"?>
<svg width="50px" height="50px" viewBox="0 0 50 50" version="1.1" xmlns="http://www.w3.org/2000/svg" xmlns:xlink="http://www.w3.org/1999/xlink">
    <!-- Generator: Sketch 59.1 (86144) - https://sketch.com -->
    <title>Group 11</title>
    <desc>Created with Sketch.</desc>
    <g id="Page-1" stroke="none" stroke-width="1" fill="none" fill-rule="evenodd">
        <g id="02.Architect_Leading_pratices-exp" transform="translate(-460.000000, -161.000000)">
            <g id="Group-11" transform="translate(461.000000, 162.000000)">
                <g id="noun_Fullscreen_581166-Copy" transform="translate(10.000000, 10.000000)" fill="#000000" fill-rule="nonzero">
                    <g id="Group">
                        <g id="Group-3" transform="translate(6.125000, 21.874781) rotate(-180.000000) translate(-6.125000, -21.874781) translate(0.000000, 15.749781)">
                            <path d="M0.875,12.2502187 C0.762125,12.2502187 0.648375,12.2292187 0.539875,12.1837187 C0.2135,12.0489687 -4.28990177e-13,11.7287187 -4.28990177e-13,11.3752187 L-4.28990177e-13,3.50021875 C-4.28990177e-13,3.01634375 0.392,2.62521875 0.875,2.62521875 C1.358,2.62521875 1.75,3.01634375 1.75,3.50021875 L1.75,9.26296875 L10.756375,0.25659375 C11.0985,-0.08553125 11.6515,-0.08553125 11.993625,0.25659375 C12.33575,0.59871875 12.33575,1.15171875 11.993625,1.49384375 L1.493625,11.9938437 C1.3265,12.1609687 1.1025,12.2502187 0.875,12.2502187 Z" id="Path"></path>
                            <path d="M8.75,12.2502187 L0.875,12.2502187 C0.392,12.2502187 0,11.8590937 0,11.3752187 C0,10.8913437 0.392,10.5002187 0.875,10.5002187 L8.75,10.5002187 C9.233,10.5002187 9.625,10.8913437 9.625,11.3752187 C9.625,11.8590937 9.233,12.2502187 8.75,12.2502187 Z" id="Path"></path>
                        </g>
                        <g id="Group-6" transform="translate(21.874781, 6.125000) rotate(-180.000000) translate(-21.874781, -6.125000) translate(15.749781, 0.000000)">
                            <path d="M0.87521875,12.25 C0.65121875,12.25 0.42721875,12.16425 0.25659375,11.993625 C-0.08553125,11.6515 -0.08553125,11.0985 0.25659375,10.756375 L10.7565938,0.256375 C11.0068438,0.00525 11.3830938,-0.06825 11.7103438,0.0665 C12.0375938,0.202125 12.2502188,0.5215 12.2502188,0.875 L12.2502188,8.75 C12.2502188,9.233 11.8590938,9.625 11.3752188,9.625 C10.8913438,9.625 10.5002188,9.233 10.5002188,8.75 L10.5002188,2.98725 L1.49384375,11.993625 C1.32321875,12.16425 1.09921875,12.25 0.87521875,12.25 Z" id="Path"></path>
                            <path d="M11.3752188,1.75 L3.50021875,1.75 C3.01634375,1.75 2.62521875,1.358 2.62521875,0.875 C2.62521875,0.392 3.01634375,0 3.50021875,0 L11.3752188,0 C11.8590938,0 12.2502188,0.392 12.2502188,0.875 C12.2502188,1.358 11.8590938,1.75 11.3752188,1.75 Z" id="Path"></path>
                        </g>
                    </g>
                </g>
                <circle id="Oval" stroke="#000000" stroke-width="2" cx="24" cy="24" r="24"></circle>
            </g>
        </g>
    </g>
</svg>