<?xml version="1.0" encoding="UTF-8" standalone="no"?>
<svg
   xmlns:dc="http://purl.org/dc/elements/1.1/"
   xmlns:cc="http://creativecommons.org/ns#"
   xmlns:rdf="http://www.w3.org/1999/02/22-rdf-syntax-ns#"
   xmlns:svg="http://www.w3.org/2000/svg"
   xmlns="http://www.w3.org/2000/svg"
   xmlns:sodipodi="http://sodipodi.sourceforge.net/DTD/sodipodi-0.dtd"
   xmlns:inkscape="http://www.inkscape.org/namespaces/inkscape"
   width="126px"
   height="102px"
   viewBox="0 0 126 102"
   version="1.1"
   id="svg42"
   sodipodi:docname="Imagine-Shrinked-new.svg"
   inkscape:version="0.92.4 (5da689c313, 2019-01-14)">
  <metadata
     id="metadata48">
    <rdf:RDF>
      <cc:Work
         rdf:about="">
        <dc:format>image/svg+xml</dc:format>
        <dc:type
           rdf:resource="http://purl.org/dc/dcmitype/StillImage" />
      </cc:Work>
    </rdf:RDF>
  </metadata>
  <defs
     id="defs46" />
  <sodipodi:namedview
     pagecolor="#ffffff"
     bordercolor="#666666"
     borderopacity="1"
     objecttolerance="10"
     gridtolerance="10"
     guidetolerance="10"
     inkscape:pageopacity="0"
     inkscape:pageshadow="2"
     inkscape:window-width="1920"
     inkscape:window-height="1001"
     id="namedview44"
     showgrid="false"
     inkscape:zoom="6.5442039"
     inkscape:cx="77.729807"
     inkscape:cy="42.019922"
     inkscape:window-x="-9"
     inkscape:window-y="-9"
     inkscape:window-maximized="1"
     inkscape:current-layer="Group-89" />
  <!-- Generator: Sketch 59.1 (86144) - https://sketch.com -->
  <title
     id="title2">Group 2 Copy</title>
  <desc
     id="desc4">Created with Sketch.</desc>
  <g
     id="Page-1"
     stroke="none"
     stroke-width="1"
     fill="none"
     fill-rule="evenodd">
    <g
       id="03.Architect_Leading_pratices-collapsed"
       transform="translate(-23.000000, -284.000000)">
      <g
         id="Group-2-Copy"
         transform="translate(26.000000, 285.000000)">
        <g
           id="Group-89"
           transform="translate(0.530396, 0.000000)">
          <g
             id="Group-8"
             transform="translate(51.720698, 15.778364)"
             fill="#0097A9"
             fill-rule="nonzero">
            <path
               id="Stroke-7"
               d="M10.089985,-2.31721719 L16.0943361,5.76397843 L6.07016461,6.69882672 L5.97730813,5.70314722 L13.216,5.028 L7.74285686,2.58642171 C5.50099161,1.77852443 3.20689472,1.13302876 0.885181191,0.660674924 L0.013292164,0.491679237 L0.194460933,-0.491772784 C2.86785815,0.00071294431 5.50882555,0.718396294 8.11597579,1.65936634 L8.11597579,1.65936634 L13.623,4.115 L9.28729711,-1.72081784 L10.089985,-2.31721719 Z" />
          </g>
          <line
             x1="11.0621151"
             y1="31.0422164"
             x2="11.0621151"
             y2="31.0422164"
             id="Stroke-9"
             stroke="#00A651"
             stroke-width="2.6" />
          <path
             id="Stroke-11"
             d="M3.64022155,39.692108 L6.15580394,49.4404309 L5.18752388,49.6902983 L3.37,42.649 L1.81526854,48.4961529 C1.39300644,50.8351101 1.1541075,53.2028511 1.10623196,55.568335 L1.09724781,56.455225 C1.09724781,63.1431509 2.61522472,69.6794121 5.50674302,75.5848741 L5.50674302,75.5848741 L4.60862308,76.0246246 C1.65015255,69.9824235 0.097247813,63.2957664 0.097247813,56.455225 C0.097247813,53.7351415 0.345636667,51.0079532 0.840008022,48.2788558 L0.840008022,48.2788558 L2.404,42.394 L-2.66802549,47.6018472 L-3.38437809,46.9041087 L3.64022155,39.692108 Z"
             fill="#0097A9"
             fill-rule="nonzero" />
          <path
             id="Stroke-13"
             d="M74.0056251,85.0623571 L74.7263438,85.7555848 C65.7065038,95.1331197 54.68684,100.315303 43.0303522,100.315303 C35.9173954,100.315303 29.0586657,98.4142002 22.6141934,94.7418007 L22.6141934,94.7418007 L17.61,91.358 L20.8628216,97.8601137 L19.9684779,98.3074942 L15.4643994,89.3035377 L25.4980884,90.1299999 L25.4159976,91.1266248 L18.17,90.53 L23.1417376,93.8931413 C29.2103209,97.3497416 35.6774371,99.1977509 42.3808978,99.3098759 L43.0303522,99.3153034 C54.4003721,99.3153034 65.1659053,94.252629 74.0056251,85.0623571 L74.0056251,85.0623571 Z"
             fill="#0097A9"
             fill-rule="nonzero" />
          <path
             id="Stroke-15"
             d="M79.585958,37.4541258 C83.6701815,43.5998032 85.8455173,50.5993628 85.8455173,57.869985 C85.8455173,60.4029998 85.5765383,62.916382 85.0349434,65.4339214 L85.0349434,65.4339214 L83.168,71.188 L88.513471,66.2617336 L89.1912175,66.9970293 L81.7885044,73.8203564 L79.8014319,63.9507315 L80.7817606,63.7533598 L82.216,70.881 L84.0704221,65.174968 C84.5326826,63.015433 84.7907013,60.8204553 84.8376825,58.6080676 L84.8455173,57.869985 C84.8455173,50.7991638 82.7298335,43.9915458 78.7531021,38.0076156 L78.7531021,38.0076156 Z"
             fill="#0097A9"
             fill-rule="nonzero" />
          <path
             d="M64.4157827,31.2137203 C64.4157827,25.9093087 68.7942313,21.6094987 74.1944292,21.6094987 C79.5951041,21.6094987 83.9730757,25.9093087 83.9730757,31.2137203 C83.9730757,36.5181319 79.5951041,40.817942 74.1944292,40.817942 C68.7942313,40.817942 64.4157827,36.5181319 64.4157827,31.2137203"
             id="Fill-17"
             fill="#FFFFFF" />
          <path
             d="M64.4157827,31.2137203 C64.4157827,25.9093087 68.7942313,21.6094987 74.1944292,21.6094987 C79.5951041,21.6094987 83.9730757,25.9093087 83.9730757,31.2137203 C83.9730757,36.5181319 79.5951041,40.817942 74.1944292,40.817942 C68.7942313,40.817942 64.4157827,36.5181319 64.4157827,31.2137203 Z"
             id="Stroke-19"
             stroke="#0097A9" />
          <path
             d="M63.7295619,81.4643799 C63.7295619,76.0657951 68.2612171,71.6886544 73.8513188,71.6886544 C79.4419025,71.6886544 83.9730757,76.0657951 83.9730757,81.4643799 C83.9730757,86.8634417 79.4419025,91.2401055 73.8513188,91.2401055 C68.2612171,91.2401055 63.7295619,86.8634417 63.7295619,81.4643799"
             id="Fill-21"
             fill="#FFFFFF" />
          <path
             d="M63.7295619,81.4643799 C63.7295619,76.0657951 68.2612171,71.6886544 73.8513188,71.6886544 C79.4419025,71.6886544 83.9730757,76.0657951 83.9730757,81.4643799 C83.9730757,86.8634417 79.4419025,91.2401055 73.8513188,91.2401055 C68.2612171,91.2401055 63.7295619,86.8634417 63.7295619,81.4643799 Z"
             id="Stroke-23"
             stroke="#0097A9" />
          <path
             d="M0.25413741,81.4643799 C0.25413741,76.0657951 4.78579256,71.6886544 10.3758943,71.6886544 C15.966478,71.6886544 20.4976512,76.0657951 20.4976512,81.4643799 C20.4976512,86.8634417 15.966478,91.2401055 10.3758943,91.2401055 C4.78579256,91.2401055 0.25413741,86.8634417 0.25413741,81.4643799"
             id="Fill-25"
             fill="#FFFFFF" />
          <path
             d="M0.25413741,81.4643799 C0.25413741,76.0657951 4.78579256,71.6886544 10.3758943,71.6886544 C15.966478,71.6886544 20.4976512,76.0657951 20.4976512,81.4643799 C20.4976512,86.8634417 15.966478,91.2401055 10.3758943,91.2401055 C4.78579256,91.2401055 0.25413741,86.8634417 0.25413741,81.4643799 Z"
             id="Stroke-27"
             stroke="#0097A9" />
          <path
             id="Stroke-29"
             d="M70.0913828,4.14459897 L78.9734683,8.88448413 L70.3104064,14.0137444 L69.8009279,13.153261 L76.056,9.449 L69.9984264,9.58365559 C50.7985231,10.4523492 35.7844149,14.6209387 24.4495614,21.0387763 L23.8950737,21.3562164 C19.3968651,23.9599523 15.8108897,26.7465384 13.0473336,29.5294296 C12.0833504,30.5001573 11.291526,31.3999116 10.6607208,32.2053505 C10.441373,32.4854231 10.2581093,32.7331569 10.1095405,32.9456306 L10.1095405,32.9456306 L9.94196893,33.1939968 L9.09426765,32.6635229 C9.10779806,32.6419013 9.1262813,32.6132551 9.14980714,32.5777725 L9.14980714,32.5777725 L9.41576324,32.195678 C9.45989181,32.1345453 9.50623978,32.0712659 9.55482902,32.0058857 L9.55482902,32.0058857 L9.87343492,31.5887623 C10.5281027,30.7528547 11.3458183,29.8236801 12.3377662,28.8247921 C15.1625849,25.9802096 18.8184391,23.1393221 23.3941081,20.4907493 C34.9342638,13.8108641 50.2812886,9.47472825 69.9647336,8.58428966 L69.9647336,8.58428966 L76.035,8.449 L69.6205802,5.02683753 L70.0913828,4.14459897 Z"
             fill="#0097A9"
             fill-rule="nonzero" />
          <path
             id="Stroke-35"
             d="M113.000966,3.76968833 L121.862401,8.54806988 L113.177163,13.6396913 L112.671424,12.7770052 L118.942,9.1 L101.13752,9.41812615 L101.119671,8.41828546 L118.925,8.1 L112.52634,4.64987567 L113.000966,3.76968833 Z"
             fill="#0097A9"
             fill-rule="nonzero" />
          <path
             d="M1.28346862,31.2137203 C1.28346862,25.9093087 5.66191721,21.6094987 11.0621151,21.6094987 C16.46279,21.6094987 20.8407616,25.9093087 20.8407616,31.2137203 C20.8407616,36.5181319 16.46279,40.817942 11.0621151,40.817942 C5.66191721,40.817942 1.28346862,36.5181319 1.28346862,31.2137203"
             id="Fill-41"
             fill="#FFFFFF" />
          <path
             d="M1.28346862,31.2137203 C1.28346862,25.9093087 5.66191721,21.6094987 11.0621151,21.6094987 C16.46279,21.6094987 20.8407616,25.9093087 20.8407616,31.2137203 C20.8407616,36.5181319 16.46279,40.817942 11.0621151,40.817942 C5.66191721,40.817942 1.28346862,36.5181319 1.28346862,31.2137203 Z"
             id="Stroke-43"
             stroke="#0097A9" />
          <polygon
             id="Fill-61"
             fill="#000000"
             points="75.5560629 80.2638522 75.5560629 80.2638522 75.8489076 80.2221768 76.142267 80.1388259 76.4124664 80.0137995 76.63789 79.8465831 76.8180229 79.6382058 76.9760253 79.388153 77.0666064 79.1170053 77.1108677 78.8247625 77.1108677 78.5952902 77.0666064 78.323628 76.9760253 78.0735752 76.8180229 77.8235224 76.63789 77.5940501 76.4124664 77.4268338 76.142267 77.2812269 75.8489076 77.2395515 75.5560629 77.176781 75.2179276 77.2395515 74.9472135 77.2812269 74.677014 77.4268338 74.4737211 77.5940501 74.2935881 77.8235224 74.1355858 78.0735752 74.0455193 78.323628 74.022874 78.5952902 74.022874 78.8247625 74.0455193 79.1170053 74.1355858 79.388153 74.2935881 79.6382058 74.4737211 79.8465831 74.677014 80.0137995 74.9472135 80.1388259 75.2179276 80.2221768"
             style="fill:#0097a9;fill-opacity:1" />
          <polygon
             id="Fill-63"
             points="72.6626864 79.5778364 72.6626864 79.5778364 72.3122236 79.5989314 71.9867589 79.6827968 71.6862922 79.8088522 71.4358216 79.9976781 71.2353471 80.2081135 71.0848687 80.4602243 70.9848765 80.7118206 70.9348804 81.0267018 70.9348804 81.2160422 70.9848765 81.5309235 71.0848687 81.7830343 71.2353471 82.0346306 71.4358216 82.223971 71.6862922 82.4338918 71.9867589 82.5388522 72.3122236 82.6232322 72.6626864 82.6649077 72.9886412 82.6232322 73.339104 82.5388522 73.5895746 82.4338918 73.8650432 82.223971 74.0650276 82.0346306 74.2409942 81.7830343 74.3409864 81.5309235 74.3659844 81.2160422 74.3659844 81.0267018 74.3409864 80.7118206 74.2409942 80.4602243 74.0650276 80.2081135 73.8650432 79.9976781 73.5895746 79.8088522 73.339104 79.6827968 72.9886412 79.5989314"
             fill="#000000"
             style="fill:#0097a9;fill-opacity:1" />
          <polygon
             id="Fill-65"
             fill="#000000"
             points="77.7469943 80.9126517 76.6831805 80.2638522 76.4284211 80.4207784 76.1968215 80.5324274 75.8730969 80.5998285 75.5956921 80.6219525 75.2946127 80.5998285 75.017208 80.5324274 74.7166433 80.4207784 74.4855584 80.2638522 74.3471134 80.3312533 74.4392385 80.666715 74.4855584 81.0021768 74.4855584 81.2033509 74.4392385 81.5393272 74.3929186 81.8747889 74.2307989 82.1433641 74.022874 82.4114248 74.5781982 82.8590501 74.7629632 83.0154617 74.8787629 83.2171504 74.9482428 83.4183245 74.9708881 83.6642612 74.9708881 84.2682982 74.9482428 84.3799472 78.0243991 84.3799472 78.0475591 84.3799472 78.1170389 84.3578232 78.1401989 84.3351847 78.1401989 84.2682982 78.1401989 81.5840897 78.1170389 81.3824011 78.0243991 81.2033509 77.8859541 81.0469393"
             style="fill:#0097a9;fill-opacity:1" />
          <polygon
             id="Fill-67"
             points="74.3659844 83.9518734 74.3659844 83.4945295 74.3659844 83.3591557 74.3196645 83.2237819 74.2270247 83.1048725 74.0654197 83.0207212 73.5100955 82.6649077 73.2326908 82.8002814 72.955286 82.8848901 72.6315613 82.952577 72.330482 82.969956 71.9835973 82.952577 71.6598727 82.8848901 71.3819533 82.8002814 71.1508684 82.6649077 70.549739 83.0207212 70.4334245 83.1048725 70.3412994 83.2237819 70.2718195 83.3591557 70.2486596 83.4945295 70.2486596 83.9518734 70.2718195 84.0026385 70.2718195 84.0195602 70.3412994 84.0369393 70.3644594 84.0369393 74.2501847 84.0369393 74.3196645 84.0369393 74.3428245 84.0195602 74.3659844 84.0026385"
             fill="#000000"
             style="fill:#0097a9;fill-opacity:1" />
          <polygon
             id="Fill-69"
             fill="#000000"
             points="12.7627317 30.8307124 12.7627317 30.8307124 12.6769945 30.7699208 12.5917416 30.7499736 12.4851756 30.7699208 12.421236 30.8307124 12.3572963 30.8710818 12.3359831 30.99219 12.3572963 31.0729288 12.421236 31.1536675 13.1463695 31.9605805 13.0824299 31.9605805 11.1196769 31.9605805 10.160098 30.6288654 11.2693538 29.0953034 13.0184903 29.0953034 13.0824299 29.0953034 13.1463695 29.0953034 12.421236 29.9026913 12.3572963 29.9829551 12.3359831 30.0641689 12.3572963 30.1449077 12.421236 30.2256464 12.4851756 30.2859631 12.5917416 30.2859631 12.6769945 30.2859631 12.7627317 30.2256464 13.9146139 29.0349868 13.9359271 28.954248 13.9785535 28.8735092 13.9359271 28.7927704 13.9146139 28.7120317 12.7627317 27.521372 12.6769945 27.4610554 12.5917416 27.4406332 12.4851756 27.4610554 12.421236 27.521372 12.3572963 27.5617414 12.3359831 27.6828496 12.3572963 27.7635884 12.421236 27.8243799 13.1463695 28.6312929 13.1463695 28.6512401 13.0824299 28.6312929 13.0184903 28.6312929 11.5677387 28.6312929 11.1836165 28.6312929 11.0983637 28.6512401 11.0135953 28.7120317 9.86122869 30.2660158 8.68803331 28.7120317 8.60229607 28.6512401 8.51704323 28.6312929 7.57877756 28.6312929 6.68265392 28.6312929 6.06408641 28.6312929 5.93572275 28.6512401 5.89309633 28.7120317 5.82964109 28.7927704 5.80832788 28.8735092 5.82964109 28.954248 5.89309633 29.0349868 5.93572275 29.0953034 6.06408641 29.0953034 6.68265392 29.0953034 8.43227478 29.0953034 9.58415695 30.6288654 8.58098286 31.9605805 5.99966239 31.9605805 5.91440954 31.9605805 5.82964109 32.0208971 5.76521707 32.1016359 5.74390386 32.1823747 5.76521707 32.2631135 5.82964109 32.3438522 5.91440954 32.4041689 5.99966239 32.4041689 8.73065973 32.4041689 8.81591257 32.4041689 8.858539 32.3438522 9.86122869 31.0121372 10.8426052 32.3438522 10.9491712 32.4041689 13.0824299 32.4041689 13.1463695 32.4041689 12.421236 33.2115567 12.3572963 33.2922955 12.3359831 33.3730343 12.3572963 33.4532982 12.421236 33.5340369 12.4851756 33.5948285 12.5917416 33.6147757 12.6769945 33.5948285 12.7627317 33.5340369 13.9146139 32.3438522 13.9359271 32.2631135 13.9785535 32.1823747 13.9359271 32.1016359 13.9146139 32.0208971"
             style="fill:#0097a9;fill-opacity:1" />
          <path
             d="M79.8557509,9.77572559 C79.8557509,4.37714074 84.387406,0 89.9775078,0 C95.5680915,0 100.099265,4.37714074 100.099265,9.77572559 C100.099265,15.1747873 95.5680915,19.5514512 89.9775078,19.5514512 C84.387406,19.5514512 79.8557509,15.1747873 79.8557509,9.77572559"
             id="Fill-71"
             fill="#FFFFFF" />
          <path
             d="M79.8557509,9.77572559 C79.8557509,4.37714074 84.387406,0 89.9775078,0 C95.5680915,0 100.099265,4.37714074 100.099265,9.77572559 C100.099265,15.1747873 95.5680915,19.5514512 89.9775078,19.5514512 C84.387406,19.5514512 79.8557509,15.1747873 79.8557509,9.77572559 Z"
             id="Stroke-73"
             stroke="#0097A9" />
          <polygon
             id="Fill-75"
             fill="#000000"
             points="71.8448092 30.5277045 71.8448092 30.5277045 72.2035311 29.9889077 72.6826848 29.4006491 72.9703829 29.1067599 73.2812409 28.8128707 73.6399628 28.5185013 74.022874 28.2246121 73.6878267 28.1511398 73.3291048 28.1266491 72.9703829 28.1511398 72.6106316 28.2246121 72.2519097 28.3225752 71.9410517 28.47 71.6533536 28.6654459 71.3661702 28.9353245 71.126336 29.204723 70.9348804 29.4986121 70.9348804 29.5725646 70.9827443 29.621066"
             style="fill:#0097a9;fill-opacity:1" />
          <polygon
             id="Fill-77"
             fill="#000000"
             points="75.0522052 33.0553298 75.8216303 33.9341161 75.8839049 33.9577836 75.9461794 33.9341161 76.1963069 33.7442612 76.4042318 33.5065567 76.6327433 33.2688522 76.799495 32.9369921 76.9446307 32.6277704 77.0280065 32.2953958 77.090281 31.9393536 77.1108677 31.6069789 77.090281 31.2504222 77.0069052 30.8707124 76.7783937 31.2504222 76.5287809 31.6069789 76.279168 31.915686 76.0295552 32.2007256 75.509743 32.6756201"
             style="fill:#0097a9;fill-opacity:1" />
          <polygon
             id="Fill-79"
             fill="#000000"
             points="71.0419308 33.9577836 71.0419308 33.9577836 71.2349876 33.9577836 71.5565965 33.9577836 71.7926564 33.9362885 71.9857132 33.8507652 72.1142652 33.7647845 72.1998141 33.6577661 72.2428173 33.5292524 72.307322 33.4217766 72.307322 33.2717678 72.307322 33.1647493 72.2428173 33.0142832 72.1998141 32.9072647 72.1142652 32.7787511 72.0282589 32.6927704 71.8997069 32.6502375 71.7711548 32.6072471 71.6211012 32.585752 71.5135933 32.6072471 71.3635397 32.6502375 71.2349876 32.6927704 71.1489813 32.7787511 71.0634324 32.9072647 71.0204293 33.0787687 70.956382 33.2287775 70.956382 33.4002814 70.9348804 33.7007564 70.956382 33.8722603 70.9774261 33.9362885"
             style="fill:#0097a9;fill-opacity:1" />
          <polygon
             id="Fill-81"
             fill="#000000"
             points="76.9126185 29.4986807 76.9126185 29.4986807 77.1009175 29.0551715 77.2656791 28.5705013 77.3833659 28.0863456 77.4539781 27.5414776 77.4069033 27.5214116 77.3833659 27.4606992 77.3598286 27.4406332 77.3127538 27.4406332 76.7007821 27.4807652 76.08833 27.5615435 75.5464901 27.7030343 75.0522052 27.8640765"
             style="fill:#0097a9;fill-opacity:1" />
          <path
             d="M75.0211881,28.1266491 L75.0211881,28.1266491 L74.6258562,28.312971 L74.2511797,28.540591 L73.9187743,28.7893404 L73.6281598,29.0371293 L73.3365846,29.2858786 L73.0872806,29.5341478 L72.6708132,30.0518153 L72.3590631,30.4864063 L72.1304143,30.8379208 L71.9642116,31.2110449 L71.9642116,31.2729921 L72.0060025,31.3142902 L73.586369,32.9081108 L73.6488151,32.9287599 L73.7107808,32.9287599 L74.0436665,32.742438 L74.4178627,32.5148179 L74.8751603,32.2041214 L75.3742487,31.7906596 L75.624033,31.5419103 L75.8733371,31.2729921 L76.1231214,30.9829446 L76.3522506,30.6520792 L76.580419,30.3000844 L76.7677572,29.9067916 L75.0211881,28.1266491 Z M75.1249446,30.7346755 L75.1249446,30.7346755 L75.0211881,30.817752 L74.8962959,30.8796992 L74.7920589,30.9003483 L74.6469918,30.9209974 L74.5009641,30.9003483 L74.3972075,30.8796992 L74.2929705,30.817752 L74.1685587,30.7346755 L74.0854574,30.6314301 L74.0436665,30.5070554 L73.9812204,30.3826807 L73.9812204,30.2583061 L73.9812204,30.1344116 L74.0436665,30.0105172 L74.0854574,29.9067916 L74.1685587,29.7824169 L74.2929705,29.6998206 L74.3972075,29.6580422 L74.5009641,29.5965752 L74.6469918,29.5965752 L74.7920589,29.5965752 L74.8962959,29.6580422 L75.0211881,29.6998206 L75.1249446,29.7824169 L75.2085263,29.9067916 L75.2709724,30.0105172 L75.2911473,30.1344116 L75.3118026,30.2583061 L75.2911473,30.3826807 L75.2709724,30.5070554 L75.2085263,30.6314301 L75.1249446,30.7346755 Z"
             id="Fill-83"
             fill="#000000"
             style="fill:#0097a9;fill-opacity:1" />
          <path
             d="M94.0334158,6.86015831 L87.2733861,6.86015831 L87.1883633,6.9029853 L87.1460921,6.94534678 L87.0822049,7.00865624 L87.0610693,7.0938447 L87.0610693,11.5092141 L87.0822049,11.5944026 L87.1460921,11.6791255 L87.1883633,11.742435 L87.2733861,11.742435 L88.6721785,11.742435 L88.6721785,13.2502243 L88.7144497,13.3135337 L88.7567209,13.3773087 L88.7994725,13.3773087 L88.8835346,13.3349472 L90.9183165,11.742435 L94.0334158,11.742435 L94.1184386,11.742435 L94.1818454,11.6791255 L94.2241166,11.5944026 L94.2663878,11.5092141 L94.2663878,7.0938447 L94.2241166,7.00865624 L94.1818454,6.94534678 L94.1184386,6.9029853 L94.0334158,6.86015831 Z M87.8877595,10.5116246 L90.8337741,10.5116246 L90.8337741,9.93858085 L87.8877595,9.93858085 L87.8877595,10.5116246 Z M87.8877595,8.62211647 L92.2109506,8.62211647 L92.2109506,8.09143423 L87.8877595,8.09143423 L87.8877595,8.62211647 Z"
             id="Fill-85"
             fill="#000000"
             style="fill:#0097a9;fill-opacity:1" />
          <path
             d="M15.0078847,82.0049114 C15.0078847,81.538339 14.8021378,81.1068187 14.4932788,80.7842443 C14.5963909,80.5687209 14.6307616,80.3171981 14.6307616,80.1016748 C14.6307616,79.1680563 13.9443022,78.4139616 13.0520958,78.3779621 C12.8463489,77.6953926 12.2291082,77.2288202 11.508278,77.2288202 C11.3020537,77.2288202 11.0619361,77.2648197 10.8566666,77.3728182 C10.5473302,77.0132969 10.1358364,76.8337731 9.68949447,76.8337731 C9.27800068,76.8337731 8.90040022,76.9777711 8.59201856,77.2648197 C8.11178334,77.1208217 7.52795861,77.2648197 7.15083552,77.6598668 C7.01335268,77.6238673 6.8763472,77.5878678 6.77323506,77.5878678 C5.84713533,77.5878678 5.12630513,78.3779621 5.12630513,79.3115806 L5.12630513,79.4551049 C4.43984564,79.850152 4.02835184,80.6042468 4.02835184,81.4303405 C4.02835184,82.6870072 4.98929966,83.7286242 6.22473579,83.7286242 C6.49874674,83.7286242 6.77323506,83.6566252 7.01335268,83.5491004 C7.32221171,83.9086217 7.76855359,84.1236713 8.2144181,84.1236713 C8.55717047,84.1236713 8.86650688,84.0156728 9.1409952,83.836149 C9.31237139,84.0876718 9.58685971,84.2671956 9.86134803,84.4107199 L9.86134803,86.421955 C9.86134803,86.6374783 10.0327242,86.7810026 10.2389485,86.7810026 L12.4343777,86.7810026 C12.640602,86.7810026 12.8119782,86.6374783 12.8119782,86.421955 C12.8119782,86.421955 12.8119782,85.7753851 13.25832,85.4883365 C13.7385553,85.1652884 14.2875319,84.6982422 14.2531612,83.9086217 C14.2531612,83.7646237 14.2531612,83.6210994 14.2187905,83.4771014 C14.6995031,83.1540533 15.0078847,82.6154818 15.0078847,82.0049114 M13.6354431,82.9030041 C13.532331,82.9390036 13.4296962,83.0460548 13.3953255,83.1185275 C13.3609548,83.2260523 13.3609548,83.3695766 13.4296962,83.4771014 C13.4984376,83.6210994 13.532331,83.7646237 13.532331,83.9441475 C13.532331,84.1956703 13.4296962,84.4827189 12.8463489,84.8417666 C12.3661136,85.1652884 12.1942601,85.6678603 12.125996,86.0269079 L10.6160716,86.0269079 L10.6160716,84.0876718 C10.6160716,83.9086217 10.4790661,83.7286242 10.3072125,83.7286242 C9.96446017,83.6566252 9.68949447,83.4411019 9.552489,83.0820543 C9.51811829,82.9745295 9.41500615,82.866531 9.27800068,82.8310052 C9.1409952,82.8310052 9.00351235,82.866531 8.93477093,82.9745295 C8.76339474,83.2260523 8.48890642,83.3335771 8.2144181,83.3335771 C7.90555907,83.3335771 7.63107074,83.1540533 7.45921718,82.866531 C7.35658242,82.6870072 7.11646481,82.6510077 6.94461125,82.7590062 C6.70449364,82.9030041 6.4648534,82.9745295 6.22473579,82.9745295 C5.40079345,82.9745295 4.74918204,82.29196 4.74918204,81.4303405 C4.74918204,80.8197701 5.09241179,80.2451991 5.67528178,80.0296758 C5.84713533,79.922151 5.91539939,79.7426272 5.88150605,79.5631034 C5.84713533,79.4551049 5.84713533,79.3835796 5.84713533,79.3115806 C5.84713533,78.8090087 6.25862913,78.3779621 6.77323506,78.3779621 C6.8763472,78.3779621 7.01335268,78.3779621 7.11646481,78.4499611 C7.25394766,78.4854869 7.42532384,78.4499611 7.52795861,78.3424362 C7.76855359,78.0189144 8.2144181,77.9109159 8.55717047,78.0549139 C8.72902403,78.1264393 8.90040022,78.0904398 9.00351235,77.9473891 C9.17488854,77.7318658 9.41500615,77.5878678 9.68949447,77.5878678 C9.99883088,77.5878678 10.3072125,77.7678653 10.4790661,78.0549139 C10.5134368,78.1624387 10.6160716,78.1984382 10.7191837,78.2344377 C10.7874478,78.2344377 10.8905599,78.2344377 10.993672,78.1624387 C11.1306775,78.0549139 11.3369018,77.9829149 11.508278,77.9829149 C11.9885132,77.9829149 12.3661136,78.3424362 12.4343777,78.8090087 C12.4343777,78.9165335 12.4692258,79.024532 12.5718605,79.0600578 C12.640602,79.1325305 12.7437141,79.1680563 12.8463489,79.1325305 L12.9838317,79.1325305 C13.4984376,79.1325305 13.9099314,79.5631034 13.9099314,80.1016748 C13.9099314,80.2811986 13.8416674,80.4967219 13.7385553,80.6402463 C13.6698138,80.7482448 13.6354431,80.8557696 13.6698138,80.9277686 C13.6698138,81.0352934 13.7385553,81.1432919 13.8416674,81.1792914 C14.1161557,81.3588152 14.2531612,81.6813896 14.2531612,82.0049114 C14.2531612,82.435958 14.0130436,82.7950057 13.6354431,82.9030041 M7.25394766,79.3475801 C7.56232932,79.922151 7.66544145,80.8917691 7.66544145,80.9992939 C7.6993348,81.1792914 7.5971774,81.3228157 7.45921718,81.394341 C7.35658242,81.46634 7.18472886,81.4303405 7.0820941,81.3228157 C6.97945933,81.2508167 6.49874674,81.4303405 6.05288223,81.7538623 C5.98414081,81.7893881 5.91539939,81.8253876 5.84713533,81.8253876 C5.7440232,81.8253876 5.60701772,81.7538623 5.5382763,81.6458638 C5.43516416,81.5018658 5.46953488,81.2508167 5.64091106,81.1068187 C5.77839391,80.9992939 6.32689318,80.6042468 6.8763472,80.5687209 C6.80760578,80.2451991 6.73934172,79.922151 6.63622959,79.7066277 C6.53311745,79.5275776 6.60185888,79.2755811 6.77323506,79.1680563 C6.94461125,79.0600578 7.18472886,79.1325305 7.25394766,79.3475801 M8.52327713,80.1736738 C8.38579429,80.0656753 8.35190095,79.8861515 8.38579429,79.7066277 C8.420165,79.6346287 8.45453571,79.4911044 8.76339474,79.2755811 C8.72902403,79.1680563 8.76339474,79.024532 8.8316588,78.952533 C8.93477093,78.7730092 9.1409952,78.7010102 9.31237139,78.8090087 C9.41500615,78.8450082 9.44937686,78.9165335 9.48422495,78.9885325 L9.552489,78.9885325 C9.72434256,79.024532 9.86134803,79.1680563 9.86134803,79.3475801 C9.89571874,79.5275776 9.79260661,79.7066277 9.62123042,79.7426272 C9.44937686,79.8146262 9.24362997,79.8861515 9.1409952,79.9581505 C9.1409952,80.0296758 9.10662449,80.1016748 9.03788307,80.1736738 C8.96961901,80.2451991 8.86650688,80.2811986 8.76339474,80.2811986 C8.69465332,80.2811986 8.59201856,80.2451991 8.52327713,80.1736738 M10.5473302,80.8917691 C10.2389485,81.2863425 10.444218,81.5018658 10.4790661,81.538339 C10.6160716,81.6458638 10.6504423,81.8613871 10.5473302,82.0049114 C10.4790661,82.1489094 10.375954,82.1844352 10.2389485,82.1844352 L10.1014656,82.1844352 C9.48422495,81.8969129 8.93477093,82.1489094 8.93477093,82.1489094 C8.72902403,82.2564342 8.52327713,82.1489094 8.45453571,81.9689119 C8.35190095,81.7893881 8.420165,81.5743385 8.62638927,81.46634 C8.62638927,81.46634 9.07177641,81.2508167 9.65560113,81.2863425 C9.65560113,81.0352934 9.72434256,80.7482448 9.92961209,80.424723 C10.0670949,80.2811986 10.3072125,80.2451991 10.444218,80.3531976 C10.6160716,80.4967219 10.6504423,80.7122453 10.5473302,80.8917691 M11.3369018,79.8861515 C11.3369018,79.6706282 11.508278,79.5275776 11.7145022,79.5275776 C11.8858784,79.5275776 12.2630015,79.6346287 12.7437141,80.4607225 C12.8463489,80.6402463 12.8119782,80.8917691 12.640602,80.9992939 C12.5718605,81.0352934 12.5031191,81.0352934 12.4343777,81.0352934 C12.2973722,81.0352934 12.1942601,80.9992939 12.125996,80.8557696 C11.8515077,80.424723 11.6796542,80.2811986 11.6452834,80.2811986 C11.4739073,80.2451991 11.3369018,80.1016748 11.3369018,79.8861515 M13.532331,81.8253876 C13.532331,82.0409109 13.3609548,82.1844352 13.1552079,82.1844352 C12.6062313,82.1844352 12.4343777,82.6510077 12.4004844,82.6870072 L12.4004844,82.7234803 C12.4004844,82.7590062 12.2291082,83.1900528 12.0228839,83.5491004 C12.0228839,83.6210994 12.125996,83.7286242 12.2291082,83.7646237 C12.4004844,83.8721485 12.4692258,84.0876718 12.4004844,84.2671956 C12.3317429,84.4107199 12.1942601,84.4827189 12.0572546,84.4827189 C12.0228839,84.4827189 11.9546198,84.4827189 11.9197718,84.4467194 C11.8166596,84.4107199 11.4051658,84.1956703 11.3020537,83.8006232 C11.2337896,83.5850999 11.2681604,83.3335771 11.4051658,83.1540533 C11.5426487,82.9030041 11.6796542,82.5794823 11.7145022,82.4714839 C11.7145022,82.3999585 11.6113901,82.2204347 11.4739073,82.1129099 C11.3020537,82.0049114 11.3020537,81.7538623 11.4051658,81.5743385 C11.5426487,81.394341 11.7483956,81.394341 11.9197718,81.5018658 C11.9546198,81.538339 12.0572546,81.6098643 12.1942601,81.7893881 C12.4343777,81.5743385 12.7437141,81.4303405 13.1891012,81.4303405 C13.3953255,81.4303405 13.532331,81.6098643 13.532331,81.8253876"
             id="Fill-87"
             fill="#000000"
             style="fill:#0097a9;fill-opacity:1" />
        </g>
        <circle
           id="Oval-Copy-5"
           fill-opacity="0.53"
           fill="#0097A9"
           cx="42.3908609"
           cy="57.3643411"
           r="25.5813953" />
        <circle
           id="Oval-Copy-4"
           fill="#0097A9"
           cx="42.7784578"
           cy="56.9767442"
           r="17.4418605" />
      </g>
    </g>
  </g>
</svg>
