<?xml version="1.0" encoding="utf-8"?>
<!-- Generator: Adobe Illustrator 24.1.0, SVG Export Plug-In . SVG Version: 6.00 Build 0)  -->
<svg version="1.1" id="Layer_1" xmlns="http://www.w3.org/2000/svg" xmlns:xlink="http://www.w3.org/1999/xlink" x="0px" y="0px"
	 viewBox="0 0 400.8 346.6" style="enable-background:new 0 0 400.8 346.6;" xml:space="preserve">
<style type="text/css">
	.st0{fill-rule:evenodd;clip-rule:evenodd;fill:#0097A9;}
	.st1{fill:#0097A9;}
	.st2{fill:#0097A9;fill-opacity:0.2;}
	.st3{fill:#FFFFFF;}
	.st4{display:none;}
	.st5{display:inline;fill:#0097A9;}
</style>
<g id="background">
	<path id="Fill-21-Copy" class="st0" d="M199.3,75.2c0.1-3.1,2.7-5.4,5.8-5.3c3,0.1,5.3,2.5,5.3,5.5v0.1c-0.1,3.1-2.7,5.4-5.8,5.3
		C201.6,80.7,199.3,78.3,199.3,75.2C199.3,75.3,199.3,75.3,199.3,75.2"/>
	<path id="Stroke-15" class="st1" d="M203.4,75c0.3-0.6,1-0.9,1.7-0.6c9.3,4.4,18,10.1,25.9,16.9l0.8,0.7l6.5,6.4l-3.1-10.9
		c-0.2-0.6,0.1-1.3,0.7-1.5l0.1-0.1c0.6-0.2,1.3,0.1,1.5,0.7V87l4.4,15.4c0.2,0.7-0.2,1.4-0.9,1.6c-0.2,0-0.4,0.1-0.5,0h-0.1
		l-15.5-4.3c-0.7-0.2-1.1-0.9-0.9-1.5c0.2-0.6,0.8-1,1.4-0.9h0.1l10.9,3l-6.4-6.4c-7.8-6.9-16.6-12.7-26.1-17.2
		C203.4,76.4,203.1,75.6,203.4,75z"/>
	<path id="Stroke-11" class="st1" d="M48.7,154.4v0.1l4.3,17.9c0.2,0.8-0.3,1.6-1.1,1.8s-1.5-0.2-1.8-1v-0.1l-2.9-12.2l-2.8,9.7
		c-2.3,10.2-3.5,20.6-3.5,31c0,17.4,3.3,34.6,9.9,50.7c0.3,0.8-0.1,1.6-0.8,2c-0.8,0.3-1.6-0.1-2-0.8l0,0
		c-6.7-16.5-10.1-34-10.1-51.8c0-10.3,1.1-20.5,3.4-30.6l0.3-1.2l2.9-9.8l-9,8.9c-0.5,0.5-1.4,0.6-2,0.1l-0.1-0.1
		c-0.5-0.5-0.6-1.4-0.1-2l0.1-0.1l13-12.9c0.6-0.6,1.5-0.6,2.1,0C48.5,154,48.6,154.2,48.7,154.4z"/>
	<path id="Stroke-13" class="st1" d="M109.2,310.4c0.1,0.8-0.5,1.5-1.2,1.6h-0.1l-12.6,1.1l9.2,4.1c20.2,8,41.7,12.1,63.4,12
		c27.8,0.1,55.2-6.7,79.8-19.8c0.7-0.4,1.6-0.1,2,0.7c0.3,0.7,0.1,1.6-0.6,2c-25,13.4-52.9,20.3-81.2,20.2c-21.7,0-43.2-4-63.4-11.8
		l-1.1-0.4L94,316l7.5,10.2c0.5,0.6,0.4,1.5-0.2,2l-0.1,0.1c-0.6,0.4-1.5,0.4-2-0.2l-0.1-0.1l-10.9-14.8c-0.5-0.7-0.4-1.6,0.3-2.1
		c0.2-0.1,0.4-0.2,0.6-0.3h0.1l18.3-1.7C108.4,309,109.1,309.6,109.2,310.4z"/>
	<path id="Stroke-15-2" class="st1" d="M287.7,150.1c14.1,25.6,17.9,55.7,10.4,84.1l-0.3,1l-3.3,9.6l9.4-8.4c0.6-0.5,1.4-0.5,2,0
		l0.1,0.1c0.5,0.6,0.5,1.4,0,2l-0.1,0.1l-13.7,12.2c-0.6,0.5-1.6,0.5-2.1-0.1c-0.2-0.2-0.3-0.4-0.3-0.6V250l-3.3-18.1
		c-0.2-0.8,0.4-1.6,1.2-1.8c0.8-0.2,1.5,0.3,1.7,1.1v0.1l2.3,12.4l3.3-9.5c7.6-27.8,4-57.5-9.9-82.8c-0.4-0.7-0.1-1.6,0.6-2
		S287.3,149.4,287.7,150.1L287.7,150.1z"/>
	<path id="Stroke-29" class="st1" d="M254.8,47.7l0.1,0.1l16.1,8.8c0.7,0.4,1,1.3,0.6,2c-0.1,0.2-0.3,0.4-0.4,0.5l-0.1,0.1
		l-15.9,9.2c-0.7,0.4-1.6,0.1-2-0.6s-0.2-1.5,0.4-1.9l0.1-0.1l10.9-6.4l-10.2,0.2c-38.6,1.1-72.1,6.7-100.8,15.9
		c-23.5,7.5-43,17.2-58.8,28.4c-13.7,9.7-23.1,18.6-28.2,26.8c-0.4,0.7-1.4,0.9-2.1,0.5c-0.7-0.4-0.9-1.4-0.5-2.1
		c5.4-8.6,15-17.8,29-27.6c16-11.3,35.8-21.2,59.6-28.8c28.6-9.2,61.8-14.8,100.1-16h1.6l10.2-0.2l-11.1-6c-0.7-0.4-1-1.2-0.7-1.9
		l0.1-0.1C253.2,47.7,254.1,47.4,254.8,47.7z"/>
	<path id="Stroke-35" class="st1" d="M383.8,46.8l0.1,0.1l16.1,8.7c0.7,0.4,1,1.3,0.6,2c-0.1,0.2-0.3,0.4-0.4,0.5l-0.1,0.1
		l-15.8,9.3c-0.7,0.4-1.6,0.2-2-0.5s-0.2-1.5,0.4-2l0.1-0.1l10.9-6.4l-10.2,0.2l-42,0.7c-0.8,0.1-1.5-0.6-1.6-1.4s0.6-1.5,1.4-1.6
		h0.1l42-0.7l10.2-0.2l-11.1-6c-0.7-0.4-1-1.2-0.7-1.9l0.1-0.1C382.2,46.7,383.1,46.4,383.8,46.8z"/>
	<circle id="Oval-Copy-5" class="st2" cx="171.3" cy="205.9" r="67"/>
	<circle id="Oval-Copy-4" class="st1" cx="171.3" cy="204.9" r="49"/>
</g>
<g id="Imagine_x5F_Define_x5F_off">
	<circle class="st3" cx="265.6" cy="292.8" r="26.6"/>
	<path class="st1" d="M265.6,265.3c15.1,0,27.5,12.4,27.5,27.5s-12.4,27.5-27.5,27.5s-27.5-12.4-27.5-27.5S250.5,265.3,265.6,265.3
		 M265.6,262.8c-16.6,0-30,13.4-30,30s13.4,30,30,30c16.6,0,30-13.4,30-30S282.2,262.8,265.6,262.8L265.6,262.8z"/>
	<path class="st1" d="M271.1,302.9c-1.8-0.8-3.1-0.9-4.4-0.9c-0.8,0-1.4-0.1-1.9-0.3c-0.8-0.4-1.5-2.8-1.2-3.5c1-1.4,2-3.9,2.5-6
		c0.9-3.8,0.5-6.6-1.1-8.6c-2.1-2.6-5.5-2.6-5.8-2.6c-0.3,0-3.6,0-5.8,2.6c-1.6,2-2,4.9-1.1,8.6c0.5,2.1,1.5,4.5,2.5,6
		c0.1,0.8-0.5,3.1-1.2,3.5c-0.4,0.3-1,0.3-1.9,0.3c-1.1,0-2.6,0.1-4.4,0.9c-0.6,0.3-0.9,1-0.6,1.6c0.2,0.5,0.6,0.8,1.1,0.8
		c0.1,0,0.4,0,0.5-0.1c1.2-0.6,2.4-0.6,3.4-0.8c1,0,2-0.1,2.9-0.6c1.6-0.9,2.2-3.3,2.4-3.9c0.2-1,0.4-2.4-0.2-3.1
		c-0.9-1.1-1.8-3.4-2.2-5.1c-0.8-2.9-0.5-5,0.6-6.4c1.4-1.6,3.8-1.6,3.8-1.6l0,0l0,0c0,0,2.4,0,3.8,1.6c1.1,1.4,1.2,3.5,0.6,6.4
		c-0.5,1.9-1.4,4-2.2,5.1c-0.6,0.9-0.5,2.1-0.2,3.1c0.1,0.8,0.9,3,2.4,3.9c0.9,0.5,1.9,0.5,2.9,0.6c1.1,0,2.1,0.1,3.4,0.8
		c0.9,0.1,1,0.1,1.2,0.1c0.5,0,0.9-0.2,1.1-0.8C272,303.9,271.7,303.2,271.1,302.9z"/>
	<path class="st1" d="M283.7,300.5c-1-0.6-2.1-0.8-3.1-0.9c-0.6-0.1-1.4-0.2-1.8-0.4c-0.6-0.5-0.8-1.7-0.6-2c0.8-1,1.6-3,2-4.7
		c0.8-2.9,0.4-5.3-0.9-6.9c-1.9-2.2-4.7-2.2-5-2.2s-3.1,0-5,2.2c-1.2,1.6-1.6,3.9-0.9,6.9c0.4,1.7,1.2,3.6,2,4.7
		c0.1,0.3,0,1.5-0.6,2.1c-0.5,0.4-0.6,1.2-0.3,1.7c0.3,0.4,0.6,0.5,1,0.5c0.2,0,0.5-0.1,0.8-0.2c1.8-1.2,2.2-4.1,1.2-5.5
		c-0.6-0.9-1.4-2.5-1.6-3.9c-0.5-2.1-0.4-3.6,0.4-4.6c1-1.2,2.9-1.2,3-1.2s2,0,3,1.2c0.8,1,0.9,2.5,0.4,4.6c-0.4,1.4-1,3.1-1.6,3.9
		c-0.9,1.2-0.5,4.1,1.2,5.5c0,0,0,0,0.1,0.1c0.8,0.5,1.8,0.6,2.8,0.8c0.9,0.1,1.8,0.3,2.2,0.6c0.2,0.1,0.4,0.3,0.6,0.3
		c0.4,0,0.9-0.3,1.1-0.6C284.5,301.7,284.4,300.9,283.7,300.5z"/>
</g>
<g id="Imagine_x5F_Define_x5F_on" class="st4">
	<path class="st5" d="M265.6,269.2c-13.3,0-24,10.7-24,24s10.7,24,24,24c13.3,0,24-10.7,24-24C289.6,279.9,278.9,269.2,265.6,269.2z
		 M270.5,302.6c-0.2,0.4-0.5,0.6-0.9,0.6c-0.1,0-0.3,0-0.4-0.1c-1-0.5-1.9-0.5-2.7-0.6c-0.8,0-1.6-0.1-2.3-0.5
		c-1.3-0.7-1.8-2.6-1.9-3.1c-0.2-0.8-0.3-1.9,0.2-2.5c0.7-0.9,1.4-2.7,1.8-4.1c0.6-2.3,0.4-4-0.5-5.1c-1.1-1.3-3-1.3-3-1.3l0,0l0,0
		c0,0-1.9,0-3,1.3c-0.9,1.1-1,2.8-0.5,5.1c0.4,1.5,1.1,3.2,1.8,4.1c0.5,0.7,0.4,1.7,0.2,2.5c-0.1,0.6-0.7,2.4-1.9,3.1
		c-0.7,0.4-1.5,0.4-2.3,0.5c-0.9,0-1.7,0.1-2.7,0.6c-0.5,0.1-0.7,0.1-0.8,0.1c-0.4,0-0.7-0.2-0.9-0.6c-0.2-0.5,0-1.1,0.5-1.3
		c1.4-0.6,2.5-0.7,3.5-0.7c0.6,0,1.1-0.1,1.5-0.2c0.6-0.3,1.2-2.2,1-2.8c-0.8-1.1-1.6-3.1-2-4.8c-0.7-3-0.4-5.3,0.9-6.9
		c1.7-2.1,4.4-2.1,4.6-2.1s2.9,0,4.6,2.1c1.3,1.6,1.6,3.9,0.9,6.9c-0.4,1.7-1.2,3.6-2,4.8c-0.1,0.6,0.4,2.5,1,2.8
		c0.3,0.2,0.8,0.2,1.5,0.2c0.9,0,2.1,0.1,3.5,0.7C270.5,301.5,270.7,302.1,270.5,302.6z M280.4,300.8c-0.2,0.3-0.5,0.5-0.9,0.5
		c-0.2,0-0.4,0-0.5-0.2c-0.4-0.3-1.1-0.4-1.8-0.5c-0.8-0.1-1.6-0.2-2.2-0.6l-0.1-0.1c-1.4-1-1.8-3.3-1-4.4c0.5-0.7,1.1-2,1.3-3.1
		c0.4-1.7,0.3-2.9-0.3-3.7c-0.8-1-2.3-1-2.4-1s-1.6,0-2.4,1c-0.6,0.8-0.7,2-0.3,3.7c0.3,1.1,0.8,2.5,1.3,3.1c0.7,1,0.4,3.3-1,4.4
		c-0.1,0.2-0.3,0.3-0.5,0.3c-0.3,0-0.6-0.1-0.8-0.4c-0.3-0.4-0.2-1.1,0.2-1.4c0.6-0.4,0.6-1.4,0.5-1.7c-0.6-0.8-1.3-2.4-1.6-3.8
		c-0.6-2.3-0.3-4.2,0.7-5.5c1.5-1.8,3.8-1.8,4-1.8s2.5,0,4,1.8c1,1.3,1.3,3.1,0.7,5.5c-0.3,1.4-1,2.9-1.6,3.8
		c-0.1,0.2,0,1.2,0.5,1.6c0.3,0.2,0.8,0.2,1.4,0.3c0.8,0.1,1.8,0.3,2.5,0.7C280.6,299.7,280.7,300.3,280.4,300.8z"/>
</g>
<g id="Imagine_x5F_Refine_x5F_off">
	<circle class="st3" cx="316.4" cy="51.4" r="28.8"/>
	<path class="st1" d="M316.4,23.9c15.1,0,27.5,12.4,27.5,27.5s-12.4,27.5-27.5,27.5s-27.5-12.4-27.5-27.5S301.3,23.9,316.4,23.9
		 M316.4,21.4c-16.6,0-30,13.4-30,30s13.4,30,30,30s30-13.4,30-30S333,21.4,316.4,21.4L316.4,21.4z"/>
	<g>
		<path class="st1" d="M333.9,37.7h-35c-0.8,0-1.2,0.5-1.2,1.2v22.5c0,0.7,0.5,1.2,1.2,1.2h5v6.2c0,0.5,0.4,1,0.9,1.1
			c0.1,0,0.2,0.1,0.4,0.1c0.4,0,0.8-0.1,1-0.5l5.9-7h21.9c0.8,0,1.2-0.5,1.2-1.2V38.9C335.1,38.1,334.6,37.7,333.9,37.7z
			 M332.6,60.2h-21.2c-0.4,0-0.8,0.1-1,0.5l-4,4.8v-4c0-0.8-0.5-1.2-1.2-1.2h-5v-20h32.5V60.2z"/>
		<path class="st1" d="M303.9,46.4h25c0.8,0,1.2-0.5,1.2-1.2c0-0.7-0.5-1.2-1.2-1.2h-25c-0.8,0-1.2,0.5-1.2,1.2
			C302.6,45.9,303.1,46.4,303.9,46.4z"/>
		<path class="st1" d="M303.9,51.4h25c0.8,0,1.2-0.5,1.2-1.2c0-0.7-0.5-1.2-1.2-1.2h-25c-0.8,0-1.2,0.5-1.2,1.2
			C302.6,50.9,303.1,51.4,303.9,51.4z"/>
		<path class="st1" d="M303.9,56.4h25c0.8,0,1.2-0.5,1.2-1.2c0-0.7-0.5-1.2-1.2-1.2h-25c-0.8,0-1.2,0.5-1.2,1.2
			C302.6,55.9,303.1,56.4,303.9,56.4z"/>
	</g>
</g>
<g id="Imagine_x5F_Refine_x5F_on" class="st4">
	<path class="st5" d="M316.4,27.4c-13.3,0-24,10.7-24,24s10.7,24,24,24s24-10.7,24-24S329.7,27.4,316.4,27.4z M331.4,59.4
		c0,0.6-0.4,1-1,1h-17.5l-4.7,5.6c-0.2,0.3-0.5,0.4-0.8,0.4c-0.1,0-0.2,0-0.3-0.1c-0.4-0.1-0.7-0.5-0.7-0.9v-5h-4c-0.6,0-1-0.4-1-1
		v-18c0-0.6,0.4-1,1-1h28c0.6,0,1,0.4,1,1V59.4z M303.4,58.4h4c0.6,0,1,0.4,1,1v3.2l3.2-3.9c0.2-0.2,0.5-0.4,0.8-0.4h17V42.4h-26
		V58.4z M306.4,45.4h20c0.6,0,1,0.4,1,1s-0.4,1-1,1h-20c-0.6,0-1-0.4-1-1C305.4,45.8,305.8,45.4,306.4,45.4z M306.4,49.4h20
		c0.6,0,1,0.4,1,1s-0.4,1-1,1h-20c-0.6,0-1-0.4-1-1C305.4,49.8,305.8,49.4,306.4,49.4z M306.4,53.4h20c0.6,0,1,0.4,1,1s-0.4,1-1,1
		h-20c-0.6,0-1-0.4-1-1C305.4,53.8,305.8,53.4,306.4,53.4z"/>
</g>
<g id="Imagine_x5F_Apply_x5F_off">
	<circle class="st3" cx="61.3" cy="275.4" r="27.5"/>
	<path class="st1" d="M61.3,247.9c15.1,0,27.5,12.4,27.5,27.5s-12.4,27.5-27.5,27.5s-27.5-12.4-27.5-27.5
		C33.8,260.3,46.2,247.9,61.3,247.9 M61.3,245.4c-16.6,0-30,13.4-30,30s13.4,30,30,30s30-13.4,30-30S77.9,245.4,61.3,245.4
		L61.3,245.4z"/>
	<path class="st1" d="M80.1,276c0-1.5-0.6-3-1.8-4c0.2-0.8,0.5-1.5,0.5-2.2c0-3-2.4-5.5-5.4-5.6c-0.7-2.2-2.9-3.8-5.2-3.8
		c-0.8,0-1.5,0.1-2.2,0.5c-1-1.1-2.5-1.8-4-1.8c-1.4,0-2.6,0.5-3.8,1.4c-1.8-0.4-3.6,0-5,1.2c-0.4-0.1-0.9-0.1-1.2-0.1
		c-3.1,0-5.6,2.5-5.6,5.6c0,0.1,0,0.2,0,0.4c-2.4,1.4-3.8,3.8-3.8,6.5c0,4.1,3.4,7.5,7.5,7.5c1,0,1.9-0.1,2.8-0.5
		c1,1.1,2.5,1.8,4.1,1.8c1.1,0,2.1-0.4,3.1-0.9c0.6,0.9,1.5,1.5,2.5,1.9v6.5c0,0.8,0.5,1.2,1.2,1.2h7.5c0.6,0,1.2-0.5,1.2-1.2
		c0,0,0-2,1.5-3c1.6-1,3.5-2.6,3.5-5.1c0-0.5-0.1-1-0.2-1.4C79,279.8,80.1,278,80.1,276z M75.4,279c-0.4,0.1-0.6,0.4-0.8,0.8
		c-0.1,0.4-0.1,0.8,0.1,1.1c0.2,0.5,0.4,1,0.4,1.5c0,0.9-0.4,1.8-2.3,3c-1.6,1-2.2,2.8-2.5,3.9H65V283c0-0.6-0.5-1.1-1.1-1.2
		c-1.1-0.1-2.1-1-2.5-2c-0.1-0.4-0.5-0.8-1-0.8c-0.5-0.1-0.9,0.1-1.1,0.5c-0.5,0.5-1.5,0.9-2.4,0.9c-1.1,0-2.1-0.6-2.6-1.5
		c-0.4-0.6-1.1-0.8-1.8-0.4c-0.8,0.5-1.6,0.8-2.5,0.8c-2.8,0-5-2.2-5-5c0-2,1.2-3.9,3.1-4.6c0.6-0.3,0.9-0.9,0.7-1.5
		c-0.1-0.4-0.1-0.6-0.1-0.9c0-1.8,1.4-3.1,3.1-3.1c0.4,0,0.7,0.1,1.1,0.2c0.5,0.3,1.1,0.1,1.4-0.4c0.9-1,2.4-1.4,3.6-0.9
		c0.5,0.3,1.1,0.1,1.4-0.4c0.6-0.8,1.5-1.1,2.4-1.1c1.1,0,2.1,0.5,2.6,1.5c0.1,0.2,0.5,0.5,0.9,0.6c0.4,0.1,0.8,0,1-0.2
		c0.5-0.4,1.1-0.6,1.9-0.6c1.5,0,2.9,1.1,3.1,2.8c0,0.4,0.2,0.6,0.5,0.9c0.2,0.2,0.6,0.2,1,0.2c0.1,0,0.4,0,0.5,0
		c1.8,0,3.1,1.4,3.1,3.1c0,0.6-0.2,1.2-0.6,1.7c-0.2,0.3-0.2,0.6-0.2,1c0,0.4,0.2,0.6,0.6,0.9c0.9,0.6,1.5,1.6,1.5,2.6
		C77.6,277.4,76.7,278.5,75.4,279z M53.7,267.3c1,1.9,1.4,5.1,1.4,5.5c0,0.5-0.2,1-0.6,1.2c-0.5,0.2-1,0.1-1.4-0.1
		c-0.4-0.3-2,0.2-3.4,1.4c-0.4,0-0.6,0.1-0.9,0.1c-0.4,0-0.7-0.1-1-0.5c-0.4-0.5-0.2-1.4,0.3-1.8c0.5-0.4,2.4-1.6,4.2-1.9
		c-0.1-1-0.5-2.1-0.9-2.8s-0.1-1.4,0.5-1.8C52.5,266.5,53.3,266.6,53.7,267.3z M57.9,270c-0.4-0.4-0.6-0.9-0.4-1.5
		c0-0.2,0.2-0.8,1.2-1.4c-0.1-0.4,0-0.9,0.1-1.1c0.4-0.6,1.1-0.8,1.8-0.5c0.2,0.1,0.5,0.4,0.5,0.6c0,0,0.1,0,0.3,0
		c0.6,0,1.1,0.5,1.1,1.1s-0.2,1.1-0.9,1.4c-0.6,0.1-1.2,0.5-1.6,0.6c0,0.3-0.1,0.5-0.4,0.8c-0.2,0.2-0.5,0.4-0.9,0.4
		S58.2,270.3,57.9,270z M64.8,272.4c-1,1.2-0.2,2-0.1,2.1c0.5,0.4,0.5,1.1,0.2,1.6c-0.2,0.3-0.8,0.5-1.1,0.5c-0.1,0-0.4,0-0.5-0.1
		c-2.1-0.9-3.9,0-4,0c-0.6,0.2-1.4,0-1.6-0.6s0-1.4,0.6-1.6c0.1,0,1.5-0.8,3.5-0.6c0-0.9,0.2-1.7,1-2.8c0.4-0.5,1.2-0.6,1.8-0.3
		C65.1,271,65.2,271.9,64.8,272.4z M67.6,269.1c0-0.6,0.6-1.2,1.2-1.2l0,0c0.6,0,1.9,0.4,3.5,3.1c0.4,0.6,0.2,1.4-0.4,1.8
		c-0.1,0.1-0.4,0.1-0.6,0.1c-0.4,0-0.9-0.3-1-0.6c-1-1.5-1.5-1.9-1.6-2C68,270.3,67.6,269.8,67.6,269.1z M75.1,275.4
		c0,0.8-0.6,1.2-1.2,1.2c-1.9,0-2.5,1.5-2.5,1.6l0,0l0,0c0,0.1-0.6,1.5-1.4,2.6c0,0.2,0.4,0.6,0.8,0.8c0.6,0.3,0.9,1,0.6,1.6
		c-0.4,0.6-0.8,0.9-1.2,0.9c-0.1,0-0.4,0-0.5-0.1c-0.2-0.1-1.6-0.9-2.1-2.2c-0.2-0.8-0.1-1.4,0.2-2.1c0.5-0.8,1-1.9,1.1-2.2
		c0-0.2-0.4-0.8-0.8-1.1c-0.5-0.4-0.6-1.3-0.2-1.8c0.4-0.5,1.2-0.6,1.8-0.3c0.1,0.1,0.5,0.4,0.9,0.9c0.9-0.5,1.9-1,3.4-1
		C74.6,274.1,75.1,274.8,75.1,275.4z"/>
</g>
<g id="Imagine_x5F_Apply_x5F_on" class="st4">
	<path class="st5" d="M73.2,273.8c-0.2-0.1-0.4-0.4-0.5-0.7c-0.1-0.3,0-0.6,0.2-0.8c0.3-0.4,0.5-0.9,0.5-1.4c0-1.4-1.1-2.5-2.5-2.5
		c-0.1,0-0.3,0-0.4,0c-0.3,0-0.5,0-0.8-0.2c-0.2-0.2-0.4-0.4-0.4-0.7c-0.2-1.2-1.2-2.2-2.5-2.2c-0.5,0-1,0.2-1.5,0.5
		c-0.2,0.2-0.5,0.2-0.8,0.2c-0.3-0.1-0.5-0.2-0.7-0.5c-0.5-0.7-1.3-1.2-2.1-1.2c-0.7,0-1.4,0.3-1.9,0.9c-0.3,0.3-0.7,0.4-1.1,0.3
		c-1-0.4-2.2-0.1-2.9,0.7c-0.3,0.3-0.7,0.4-1.1,0.3c-0.3-0.1-0.6-0.2-0.9-0.2c-1.4,0-2.5,1.1-2.5,2.5c0,0.2,0,0.4,0.1,0.6
		c0.1,0.5-0.1,1-0.6,1.2c-1.4,0.7-2.4,2.2-2.4,3.8c0,2.2,1.8,4,4,4c0.7,0,1.4-0.2,2-0.6c0.5-0.3,1.1-0.1,1.4,0.3
		c0.5,0.8,1.3,1.2,2.1,1.2c0.7,0,1.5-0.3,1.9-0.9c0.2-0.3,0.6-0.4,0.9-0.4c0.4,0.1,0.7,0.3,0.8,0.6c0.3,0.9,1.1,1.5,2,1.6
		c0.5,0.1,0.9,0.5,0.9,1v5h4.1c0.2-0.9,0.7-2.2,2-3.1c1.5-1,1.8-1.7,1.8-2.4c0-0.4-0.1-0.9-0.3-1.2c-0.1-0.3-0.2-0.6-0.1-0.9
		s0.3-0.5,0.6-0.6c1-0.3,1.7-1.3,1.7-2.4C74.4,275,74,274.2,73.2,273.8z M55.9,274.3c-0.4,0.2-0.8,0.1-1.1-0.1s-1.6,0.2-2.7,1.1
		c-0.3,0-0.5,0.1-0.7,0.1c-0.3,0-0.6-0.1-0.8-0.4c-0.3-0.4-0.2-1.1,0.2-1.4s1.9-1.3,3.4-1.5c-0.1-0.8-0.4-1.7-0.7-2.2
		s-0.1-1.1,0.4-1.4s1.1-0.1,1.4,0.4c0.8,1.5,1.1,4.1,1.1,4.4C56.4,273.7,56.2,274.1,55.9,274.3z M58.4,269.9c0-0.2,0.2-0.6,1-1.1
		c-0.1-0.3,0-0.7,0.1-0.9c0.3-0.5,0.9-0.6,1.4-0.4c0.2,0.1,0.4,0.3,0.4,0.5c0,0,0.1,0,0.2,0c0.5,0,0.9,0.4,0.9,0.9s-0.2,0.9-0.7,1.1
		c-0.5,0.1-1,0.4-1.3,0.5c0,0.2-0.1,0.4-0.3,0.6s-0.4,0.3-0.7,0.3s-0.5-0.1-0.7-0.3C58.4,270.8,58.2,270.4,58.4,269.9z M64.1,274.6
		c0.4,0.3,0.4,0.9,0.2,1.3c-0.2,0.3-0.6,0.5-0.9,0.5c-0.1,0-0.3,0-0.4-0.1c-1.7-0.7-3.1,0-3.2,0c-0.5,0.2-1.1,0-1.3-0.5
		s0-1.1,0.5-1.3c0.1,0,1.2-0.6,2.8-0.5c0-0.7,0.2-1.4,0.8-2.2c0.3-0.4,1-0.5,1.4-0.2s0.5,1,0.2,1.4C63.4,274,64,274.6,64.1,274.6z
		 M67.4,269.4L67.4,269.4c0.5,0,1.5,0.3,2.8,2.5c0.3,0.5,0.2,1.1-0.3,1.4c-0.1,0.1-0.3,0.1-0.5,0.1c-0.3,0-0.7-0.2-0.8-0.5
		c-0.8-1.2-1.2-1.5-1.3-1.6c-0.5-0.1-0.8-0.5-0.8-1C66.4,269.8,66.9,269.4,67.4,269.4z M71.4,276.4c-1.5,0-2,1.2-2,1.3l0,0l0,0
		c0,0.1-0.5,1.2-1.1,2.1c0,0.2,0.3,0.5,0.6,0.6c0.5,0.2,0.7,0.8,0.5,1.3c-0.3,0.5-0.6,0.7-1,0.7c-0.1,0-0.3,0-0.4-0.1
		c-0.2-0.1-1.3-0.7-1.7-1.8c-0.2-0.6-0.1-1.1,0.2-1.7c0.4-0.6,0.8-1.5,0.9-1.8c0-0.2-0.3-0.6-0.6-0.9c-0.4-0.3-0.5-1-0.2-1.4
		s1-0.5,1.4-0.2c0.1,0.1,0.4,0.3,0.7,0.7c0.7-0.4,1.5-0.8,2.7-0.8c0.6,0,1,0.5,1,1S71.9,276.4,71.4,276.4z M61.4,251.4
		c-13.3,0-24,10.7-24,24s10.7,24,24,24s24-10.7,24-24S74.7,251.4,61.4,251.4z M74.2,279.7c0.1,0.4,0.2,0.8,0.2,1.1
		c0,2.1-1.4,3.3-2.8,4.1c-1.2,0.9-1.2,2.5-1.2,2.5c0,0.5-0.5,1-1,1h-6c-0.6,0-1-0.4-1-1v-5.3c-0.8-0.3-1.5-0.8-2-1.5
		c-0.7,0.5-1.6,0.7-2.5,0.7c-1.3,0-2.4-0.5-3.3-1.4c-0.7,0.4-1.4,0.5-2.2,0.5c-3.3,0-6-2.7-6-6c0-2.2,1.2-4.1,3-5.2
		c0-0.1,0-0.2,0-0.3c0-2.5,2-4.5,4.5-4.5c0.4,0,0.7,0,1,0.1c1.1-1,2.6-1.3,4-1c0.8-0.7,1.9-1.1,3-1.1c1.2,0,2.4,0.5,3.2,1.4
		c0.6-0.2,1.2-0.4,1.8-0.4c1.9,0,3.6,1.2,4.2,3c2.4,0.1,4.3,2.1,4.3,4.5c0,0.6-0.1,1.2-0.4,1.8c0.9,0.8,1.4,2,1.4,3.2
		C76.4,277.5,75.6,278.9,74.2,279.7z"/>
</g>
<g id="Imagine_x5F_adapt_x5F_off">
	<circle class="st3" cx="72.9" cy="117.5" r="27.4"/>
	<path class="st1" d="M84,112.5l2.9-2.9h-3.2c-3.6,0-5.8,2.8-7.6,5.2c-0.5,0.6-1,1.2-1.4,1.8l-0.6,0.5l0.5,0.6
		c0.5,0.5,0.9,1.1,1.4,1.8c1.9,2.4,4.1,5.2,7.6,5.2h3.2l-2.9-2.9c-0.5-0.5-0.5-1.2,0-1.8c0.5-0.5,1.2-0.5,1.8,0l5,5
		c0.1,0.1,0.2,0.2,0.2,0.4c0.1,0.2,0.1,0.6,0,1c-0.1,0.1-0.1,0.2-0.2,0.4l-5,5c-0.1,0.1-0.4,0.2-0.8,0.2c-0.4,0-0.6-0.1-0.9-0.4
		c-0.5-0.5-0.5-1.2,0-1.8l2.9-2.9h-3.2c-4.8,0-7.6-3.5-9.6-6.1c-0.5-0.6-0.9-1.1-1.2-1.6l-0.4-0.4l-0.2,0.4c-0.4,0.5-0.9,1-1.2,1.6
		c-2.1,2.6-5,6.1-9.8,6.1h-6.2c-0.8,0-1.2-0.5-1.2-1.2s0.5-1.2,1.2-1.2h6.2c3.6,0,5.8-2.8,7.6-5.2c0.5-0.6,1-1.2,1.4-1.8l0.5-0.6
		l-0.5-0.6c-0.5-0.5-0.9-1.1-1.4-1.8c-1.9-2.2-4-5-7.6-5h-6.2c-0.7,0-1.2-0.5-1.2-1.2s0.5-1.2,1.2-1.2h6.2c4.8,0,7.6,3.5,9.6,6.1
		c0.5,0.6,0.9,1.1,1.2,1.6l0.4,0.4l0.2-0.4c0.4-0.5,0.9-1,1.2-1.6c2-2.6,4.9-6.1,9.6-6.1h3.2l-2.9-2.9c-0.5-0.5-0.5-1.2,0-1.8
		c0.5-0.5,1.2-0.5,1.8,0l5,5c0.1,0.1,0.2,0.2,0.2,0.4c0.1,0.2,0.1,0.6,0,1c-0.1,0.1-0.1,0.2-0.2,0.4l-5,5c-0.1,0.2-0.4,0.4-0.7,0.4
		c-0.4,0-0.6-0.1-0.9-0.4C83.5,113.7,83.5,113,84,112.5z"/>
	<path class="st1" d="M72.4,87.2c-16.6,0-30,13.4-30,30s13.4,30,30,30s30-13.4,30-30S89,87.2,72.4,87.2z M72.4,144.6
		c-15.1,0-27.5-12.4-27.5-27.5c0-15.1,12.4-27.5,27.5-27.5s27.5,12.4,27.5,27.5S87.5,144.6,72.4,144.6z"/>
</g>
<g id="Imagine_x5F_Adapt_x5F_on" class="st4">
	<path class="st5" d="M72.9,93.7c-13.3,0-24,10.7-24,24s10.7,24,24,24s24-10.7,24-24S86.2,93.7,72.9,93.7z M81.9,111.7
		c-2.9,0-4.6,2.2-6.1,4.2c-0.4,0.5-0.8,1-1.1,1.4l-0.5,0.4l0.4,0.5c0.4,0.4,0.7,0.9,1.1,1.4c1.5,1.9,3.3,4.2,6.1,4.2h2.6l-2.3-2.3
		c-0.4-0.4-0.4-1,0-1.4s1-0.4,1.4,0l4,4c0.1,0.1,0.2,0.2,0.2,0.3c0.1,0.2,0.1,0.5,0,0.8c-0.1,0.1-0.1,0.2-0.2,0.3l-4,4
		c-0.1,0.1-0.3,0.2-0.6,0.2c-0.3,0-0.5-0.1-0.7-0.3c-0.4-0.4-0.4-1,0-1.4l2.3-2.3h-2.6c-3.8,0-6.1-2.8-7.7-4.9
		c-0.4-0.5-0.7-0.9-1-1.3l-0.3-0.3l-0.2,0.3c-0.3,0.4-0.7,0.8-1,1.3c-1.7,2.1-4,4.9-7.8,4.9h-5c-0.6,0-1-0.4-1-1s0.4-1,1-1h5
		c2.9,0,4.6-2.2,6.1-4.2c0.4-0.5,0.8-1,1.1-1.4l0.4-0.5l-0.4-0.5c-0.4-0.4-0.7-0.9-1.1-1.4c-1.5-1.8-3.2-4-6.1-4h-5
		c-0.6,0-1-0.4-1-1s0.4-1,1-1h5c3.8,0,6.1,2.8,7.7,4.9c0.4,0.5,0.7,0.9,1,1.3l0.3,0.3l0.2-0.3c0.3-0.4,0.7-0.8,1-1.3
		c1.6-2.1,3.9-4.9,7.7-4.9h2.6l-2.3-2.3c-0.4-0.4-0.4-1,0-1.4s1-0.4,1.4,0l4,4c0.1,0.1,0.2,0.2,0.2,0.3c0.1,0.2,0.1,0.5,0,0.8
		c-0.1,0.1-0.1,0.2-0.2,0.3l-4,4c-0.1,0.2-0.3,0.3-0.6,0.3c-0.3,0-0.5-0.1-0.7-0.3c-0.4-0.4-0.4-1,0-1.4l2.3-2.3
		C84.5,111.7,81.9,111.7,81.9,111.7z"/>
</g>
<g id="Imagine_x5F_launch_x5F_off">
	<circle class="st3" cx="278.4" cy="126.8" r="30"/>
	<path class="st1" d="M278.4,99.3c15.1,0,27.5,12.4,27.5,27.5c0,15.1-12.4,27.5-27.5,27.5s-27.5-12.4-27.5-27.5
		S263.3,99.3,278.4,99.3 M278.4,96.8c-16.6,0-30,13.4-30,30s13.4,30,30,30s30-13.4,30-30S295,96.8,278.4,96.8L278.4,96.8z"/>
	<path class="st1" d="M279.1,145.7c-0.4,0-0.6-0.1-0.9-0.4L273,140c-0.8,0.4-1.6,0.5-2.5,0.6c-1.9,0.1-3.4-0.4-4.4-1.4
		c-1.9-1.9-1.6-5-0.8-6.9l-5.2-5.2c-0.4-0.4-0.5-1-0.1-1.5c3.8-6.2,9-5.9,11-5.4c11.5-11.1,21-8.2,21.5-8.1c0.5,0.1,0.8,0.5,0.9,1
		c0.1,0.5,1.8,11-8.2,21.4c0.4,1.9,0.5,6.7-5.1,10.9C279.6,145.7,279.4,145.7,279.1,145.7z M273.2,137.3c0.4,0,0.6,0.1,0.9,0.4
		l5.1,5.1c4.6-4,3.3-8.1,3.3-8.2c-0.1-0.5,0-1,0.2-1.2c8.1-8.1,8.4-16.2,8.1-18.9c-2.4-0.4-9.9-0.6-18.8,8.2
		c-0.1,0.4-0.6,0.4-1.1,0.2c-0.3-0.1-4.8-1.8-8.3,3.2l5.3,5.3c0.5,0.5,0.5,1.2,0,1.7c-0.5,0.5-1.1,3.3,0,4.4c1.1,1.1,3.9,0.5,4.4,0
		C272.5,137.4,272.9,137.3,273.2,137.3z M276.6,133.8c-1.4,0-2.8-0.5-3.8-1.6c-2.1-2.1-2.1-5.5,0-7.6c1-1,2.4-1.6,3.8-1.6
		c1.4,0,2.8,0.5,3.8,1.6c2.1,2.1,2.1,5.5,0,7.6l0,0C279.4,133.3,278,133.8,276.6,133.8z M276.6,125.6c-0.8,0-1.5,0.2-2,0.9
		c-1.1,1.1-1.1,3,0,4.1c1.1,1.1,3,1.1,4.1,0l0,0c1.1-1.1,1.1-3,0-4.1C278.2,125.8,277.4,125.6,276.6,125.6z"/>
</g>
<g id="Imagine_x5F_launch_x5F_on" class="st4">
	<path class="st5" d="M274.2,123.5c-0.3,0.3-0.7,0.3-1.1,0.2c-0.2-0.1-3.8-1.4-6.6,2.6l4.2,4.2c0.4,0.4,0.4,1,0,1.4s-0.9,2.6,0,3.5
		s3.1,0.4,3.5,0c0.2-0.2,0.5-0.3,0.7-0.3c0.3,0,0.5,0.1,0.7,0.3l4.1,4.1c3.7-3.2,2.6-6.5,2.6-6.6c-0.1-0.4,0-0.8,0.2-1
		c6.5-6.5,6.7-13,6.5-15.1C287.2,116.6,281.3,116.4,274.2,123.5z M280.8,131.1c-0.8,0.8-1.9,1.3-3,1.3s-2.2-0.4-3-1.3
		c-1.7-1.7-1.7-4.4,0-6.1c0.8-0.8,1.9-1.3,3-1.3s2.2,0.4,3,1.3C282.4,126.7,282.4,129.5,280.8,131.1z M279.3,126.5
		c0.9,0.9,0.9,2.4,0,3.3c-0.9,0.9-2.4,0.9-3.3,0s-0.9-2.4,0-3.3c0.4-0.4,1-0.7,1.6-0.7C278.3,125.8,278.9,126,279.3,126.5z
		 M279.1,102.8c-13.3,0-24,10.7-24,24s10.7,24,24,24s24-10.7,24-24S292.4,102.8,279.1,102.8z M280.3,141.7c-0.2,0.1-0.4,0.2-0.6,0.2
		c-0.3,0-0.5-0.1-0.7-0.3l-4.2-4.2c-0.6,0.3-1.3,0.4-2,0.5c-1.5,0.1-2.7-0.3-3.5-1.1c-1.5-1.5-1.3-4-0.6-5.5l-4.2-4.2
		c-0.3-0.3-0.4-0.8-0.1-1.2c3-5,7.2-4.7,8.8-4.3c9.2-8.9,16.8-6.6,17.2-6.5c0.4,0.1,0.6,0.4,0.7,0.8s1.4,8.8-6.6,17.1
		C284.7,134.5,284.8,138.4,280.3,141.7z"/>
</g>
</svg>
