<?xml version="1.0" encoding="UTF-8" standalone="no"?>
<svg
   xmlns:dc="http://purl.org/dc/elements/1.1/"
   xmlns:cc="http://creativecommons.org/ns#"
   xmlns:rdf="http://www.w3.org/1999/02/22-rdf-syntax-ns#"
   xmlns:svg="http://www.w3.org/2000/svg"
   xmlns="http://www.w3.org/2000/svg"
   xmlns:sodipodi="http://sodipodi.sourceforge.net/DTD/sodipodi-0.dtd"
   xmlns:inkscape="http://www.inkscape.org/namespaces/inkscape"
   width="288px"
   height="275px"
   viewBox="0 0 288 275"
   version="1.1"
   id="svg68"
   sodipodi:docname="insights-diagram-new.svg"
   inkscape:version="0.92.4 (5da689c313, 2019-01-14)">
  <metadata
     id="metadata72">
    <rdf:RDF>
      <cc:Work
         rdf:about="">
        <dc:format>image/svg+xml</dc:format>
        <dc:type
           rdf:resource="http://purl.org/dc/dcmitype/StillImage" />
      </cc:Work>
    </rdf:RDF>
  </metadata>
  <sodipodi:namedview
     pagecolor="#ffffff"
     bordercolor="#666666"
     borderopacity="1"
     objecttolerance="10"
     gridtolerance="10"
     guidetolerance="10"
     inkscape:pageopacity="0"
     inkscape:pageshadow="2"
     inkscape:window-width="1920"
     inkscape:window-height="1001"
     id="namedview70"
     showgrid="false"
     inkscape:zoom="0.85818182"
     inkscape:cx="-50.597457"
     inkscape:cy="137.5"
     inkscape:window-x="-9"
     inkscape:window-y="-9"
     inkscape:window-maximized="1"
     inkscape:current-layer="Group-4" />
  <!-- Generator: Sketch 60 (88103) - https://sketch.com -->
  <title
     id="title2">Group 4</title>
  <desc
     id="desc4">Created with Sketch.</desc>
  <defs
     id="defs7">
    <polygon
       id="path-1"
       points="0 0 24 0 24 24 0 24" />
  </defs>
  <g
     id="Page-1"
     stroke="none"
     stroke-width="1"
     fill="none"
     fill-rule="evenodd">
    <g
       id="Home"
       transform="translate(-90.000000, -628.000000)">
      <g
         id="Group-4"
         transform="translate(89.000000, 626.000000)">
        <path
           d="m 137.64286,68.153846 c 11.24418,2.521731 21.95241,7.252236 31.59091,13.557693"
           id="Stroke-5"
           inkscape:connector-curvature="0"
           style="stroke:#002fba;stroke-width:2;stroke-linecap:round;stroke-linejoin:round" />
        <line
           x1="40.224026"
           y1="104.759615"
           x2="40.224026"
           y2="104.759615"
           id="Stroke-7"
           stroke="#00A651"
           stroke-width="2" />
        <path
           id="Stroke-9"
           d="m 20.249746,126.73224 0.03539,0.11545 3.272215,13.37367 c 0.131259,0.53646 -0.197221,1.07775 -0.733681,1.20901 -0.498142,0.12188 -1.000451,-0.15264 -1.174761,-0.622 L 21.614654,140.69669 19.249,131.03 l -2.184917,7.8201 c -1.8823,8.27387 -2.856291,16.78429 -2.856291,25.26874 0,11.78941 1.857524,23.39802 5.462559,34.36644 0.172446,0.52467 -0.11309,1.08979 -0.637762,1.26224 -0.524672,0.17245 -1.089798,-0.11309 -1.262244,-0.63776 -3.671298,-11.17003 -5.562553,-22.98943 -5.562553,-34.99092 0,-8.25972 0.906711,-16.5414 2.672041,-24.65439 l 0.246044,-1.10525 2.196123,-7.8652 -7.030607,7.03927 c -0.360275,0.36069 -0.92749,0.38875 -1.319958,0.084 l -0.09426,-0.0831 c -0.360693,-0.36028 -0.388752,-0.92749 -0.08395,-1.31996 l 0.08313,-0.0943 9.72991,-9.74121 c 0.522075,-0.52269 1.395413,-0.31388 1.643478,0.35358 z"
           inkscape:connector-curvature="0"
           style="fill:#002fba;fill-rule:nonzero" />
        <path
           id="Stroke-11"
           d="M54.8911282,244.309086 L55.0057856,244.31514 L68.6946794,245.790501 C69.2437841,245.849682 69.6409455,246.342795 69.5817641,246.8919 C69.52681,247.401783 69.0977003,247.780654 68.5970353,247.784793 L68.4803647,247.778985 L58.585,246.711 L65.1331974,251.385203 C80.1381337,260.991226 96.2721607,266 113.04092,266 C132.259845,266 150.748841,259.330213 167.328118,246.755831 C167.768157,246.422088 168.395431,246.508258 168.729174,246.948297 C169.062917,247.388335 168.976747,248.015609 168.536708,248.349352 C151.621048,261.178861 132.712495,268 113.04092,268 C96.1548591,268 79.9053409,263.039924 64.7572916,253.51361 L64.0131956,253.041423 L57.425,248.34 L61.6515865,257.349318 C61.8693987,257.813601 61.6994247,258.360215 61.273706,258.623741 L61.1709835,258.679364 C60.7067008,258.897176 60.1600868,258.727202 59.8965603,258.301483 L59.8409381,258.198761 L53.9933041,245.734104 C53.6952275,245.098732 54.1258004,244.389985 54.7800943,244.315505 L54.8911282,244.309086 Z"
           fill="#002FBA"
           fill-rule="nonzero" />
        <path
           id="Stroke-13"
           d="M198.740563,127.868181 C205.249376,140.131671 208.655844,153.532688 208.655844,167.340351 C208.655844,173.738586 207.910059,180.081511 206.433328,186.345752 L206.194088,187.334186 L203.717,195.071 L211.007386,188.299344 C211.380874,187.952351 211.94874,187.945485 212.329558,188.26472 L212.420644,188.351314 C212.767638,188.724801 212.774504,189.292668 212.455269,189.673486 L212.368675,189.764572 L202.281923,199.135801 C201.740701,199.638631 200.875767,199.397374 200.65279,198.721113 L200.621737,198.604428 L197.851018,185.117931 C197.739875,184.576945 198.088332,184.04829 198.629318,183.937148 C199.131663,183.833945 199.623374,184.127028 199.780042,184.602568 L199.810101,184.715449 L201.812,194.464 L204.271085,186.788644 C205.849499,180.424051 206.655844,173.91195 206.655844,167.340351 C206.655844,153.863073 203.331077,140.783465 196.973964,128.805798 C196.715048,128.317965 196.900622,127.712606 197.388455,127.45369 C197.876288,127.194774 198.481647,127.380348 198.740563,127.868181 Z"
           fill-rule="nonzero"
           fill="#002FBA" />
        <path
           id="Stroke-23"
           d="m 175.52758,41.27994 0.1057,0.04973 12.10022,6.568655 c 0.64725,0.351364 0.69635,1.243622 0.13216,1.672318 l -0.10593,0.07064 -11.89706,6.929818 c -0.47723,0.277976 -1.08945,0.116451 -1.36743,-0.360778 -0.25812,-0.443141 -0.13728,-1.002673 0.2634,-1.30291 l 0.0974,-0.06451 8.59898,-5.008893 -8.1458,0.122977 C 128.5472,51.382199 92.385455,61.575755 65.484779,77.665892 55.315101,83.748695 47.206315,90.259872 40.955853,96.76383 c -2.181469,2.26994 -3.973863,4.37452 -5.402326,6.25923 -0.497213,0.65601 -0.912863,1.23661 -1.250088,1.73496 -0.198814,0.2938 -0.325479,0.49172 -0.383132,0.58692 -0.28609,0.47241 -0.900976,0.62345 -1.373385,0.33736 -0.47241,-0.2861 -0.62345,-0.90098 -0.337359,-1.37339 0.07491,-0.1237 0.219682,-0.3499 0.437474,-0.67176 0.357119,-0.52774 0.793588,-1.13742 1.312573,-1.82216 1.47496,-1.94606 3.317937,-4.110029 5.554206,-6.436993 C 45.885463,88.747941 54.133308,82.125103 64.458147,75.949493 91.385507,59.843395 127.42319,49.599657 173.85353,48.003279 l 1.41016,-0.04572 8.15931,-0.123554 -8.7439,-4.746625 c -0.45071,-0.244668 -0.638,-0.785594 -0.45149,-1.250241 l 0.0497,-0.105703 c 0.24466,-0.450708 0.78559,-0.637999 1.25024,-0.451491 z"
           inkscape:connector-curvature="0"
           style="fill:#002fba;fill-rule:nonzero" />
        <path
           id="Stroke-29"
           d="m 276.06206,40.440009 0.10599,0.04911 12.13818,6.498241 c 0.64928,0.347598 0.70356,1.239555 0.14187,1.671521 l -0.10551,0.07125 -11.8566,6.998823 c -0.47561,0.280745 -1.08875,0.122779 -1.3695,-0.352826 -0.26069,-0.441634 -0.14311,-1.001859 0.25582,-1.304418 l 0.097,-0.06508 8.56768,-5.058635 -8.15091,0.170454 -32.10549,0.66979 c -0.55217,0.01152 -1.00912,-0.42676 -1.02064,-0.978925 -0.0107,-0.512724 0.36644,-0.943355 0.86247,-1.011481 l 0.11645,-0.0092 32.10549,-0.66979 8.15063,-0.170889 -8.7709,-4.695656 c -0.45212,-0.242046 -0.64255,-0.781874 -0.45875,-1.247598 l 0.0491,-0.10599 c 0.24205,-0.452122 0.78188,-0.642552 1.2476,-0.458747 z"
           inkscape:connector-curvature="0"
           style="fill:#002fba;fill-rule:nonzero" />
        <text
           id="Establish-Business-C"
           font-size="10"
           font-weight="500"
           y="0"
           style="font-style:normal;font-variant:normal;font-weight:bold;font-stretch:normal;font-size:8px;font-family:'Open Sans';-inkscape-font-specification:'Open Sans, Bold';font-variant-ligatures:normal;font-variant-caps:normal;font-variant-numeric:normal;font-feature-settings:normal;text-align:start;writing-mode:lr-tb;text-anchor:start;fill:#2d2d2d"
           x="8">
          <tspan
             x="201.10001"
             y="10"
             id="tspan38"
             style="font-style:normal;font-variant:normal;font-weight:bold;font-stretch:normal;font-size:8px;font-family:'Open Sans';-inkscape-font-specification:'Open Sans, Bold';font-variant-ligatures:normal;font-variant-caps:normal;font-variant-numeric:normal;font-feature-settings:normal;text-align:start;writing-mode:lr-tb;text-anchor:start">Establish</tspan>
          <tspan
             x="187.85001"
             y="23"
             id="tspan40"
             style="font-style:normal;font-variant:normal;font-weight:bold;font-stretch:normal;font-size:8px;font-family:'Open Sans';-inkscape-font-specification:'Open Sans, Bold';font-variant-ligatures:normal;font-variant-caps:normal;font-variant-numeric:normal;font-feature-settings:normal;text-align:start;writing-mode:lr-tb;text-anchor:start">Business Case</tspan>
        </text>
        <text
           id="Create-Digital-Ambit"
           font-size="10"
           font-weight="500"
           style="font-style:normal;font-variant:normal;font-weight:bold;font-stretch:normal;font-size:8px;font-family:'Open Sans';-inkscape-font-specification:'Open Sans, Bold';font-variant-ligatures:normal;font-variant-caps:normal;font-variant-numeric:normal;font-feature-settings:normal;text-align:start;writing-mode:lr-tb;text-anchor:start;fill:#2d2d2d"
           x="8">
          <tspan
             x="216.92"
             y="100"
             id="tspan43"
             style="font-style:normal;font-variant:normal;font-weight:bold;font-stretch:normal;font-size:8px;font-family:'Open Sans';-inkscape-font-specification:'Open Sans, Bold';font-variant-ligatures:normal;font-variant-caps:normal;font-variant-numeric:normal;font-feature-settings:normal;text-align:start;writing-mode:lr-tb;text-anchor:start">Create Digital</tspan>
          <tspan
             x="225.825"
             y="113"
             id="tspan45"
             style="font-style:normal;font-variant:normal;font-weight:bold;font-stretch:normal;font-size:8px;font-family:'Open Sans';-inkscape-font-specification:'Open Sans, Bold';font-variant-ligatures:normal;font-variant-caps:normal;font-variant-numeric:normal;font-feature-settings:normal;text-align:start;writing-mode:lr-tb;text-anchor:start">Ambitions</tspan>
        </text>
        <text
           id="Discover-Scope"
           font-size="10"
           font-weight="500"
           style="font-style:normal;font-variant:normal;font-weight:bold;font-stretch:normal;font-size:8px;font-family:'Open Sans';-inkscape-font-specification:'Open Sans, Bold';font-variant-ligatures:normal;font-variant-caps:normal;font-variant-numeric:normal;font-feature-settings:normal;text-align:start;writing-mode:lr-tb;text-anchor:start;fill:#2d2d2d"
           x="-2"
           y="-8">
          <tspan
             x="215.12"
             y="222"
             id="tspan48"
             style="font-style:normal;font-variant:normal;font-weight:bold;font-stretch:normal;font-size:8px;font-family:'Open Sans';-inkscape-font-specification:'Open Sans, Bold';font-variant-ligatures:normal;font-variant-caps:normal;font-variant-numeric:normal;font-feature-settings:normal;text-align:start;writing-mode:lr-tb;text-anchor:start">Discover</tspan>
          <tspan
             x="221.685"
             y="235"
             id="tspan50"
             style="font-style:normal;font-variant:normal;font-weight:bold;font-stretch:normal;font-size:8px;font-family:'Open Sans';-inkscape-font-specification:'Open Sans, Bold';font-variant-ligatures:normal;font-variant-caps:normal;font-variant-numeric:normal;font-feature-settings:normal;text-align:start;writing-mode:lr-tb;text-anchor:start">Scope</tspan>
        </text>
        <text
           id="Develop-Roadmap"
           font-size="10"
           font-weight="500"
           y="-2"
           style="font-style:normal;font-variant:normal;font-weight:bold;font-stretch:normal;font-size:8px;font-family:'Open Sans';-inkscape-font-specification:'Open Sans, Bold';font-variant-ligatures:normal;font-variant-caps:normal;font-variant-numeric:normal;font-feature-settings:normal;text-align:start;writing-mode:lr-tb;text-anchor:start;fill:#2d2d2d"
           x="12">
          <tspan
             x="16.16"
             y="260"
             id="tspan53"
             style="font-style:normal;font-variant:normal;font-weight:bold;font-stretch:normal;font-size:8px;font-family:'Open Sans';-inkscape-font-specification:'Open Sans, Bold';font-variant-ligatures:normal;font-variant-caps:normal;font-variant-numeric:normal;font-feature-settings:normal;text-align:start;writing-mode:lr-tb;text-anchor:start">Develop</tspan>
          <tspan
             x="12.42"
             y="273"
             id="tspan55"
             style="font-style:normal;font-variant:normal;font-weight:bold;font-stretch:normal;font-size:8px;font-family:'Open Sans';-inkscape-font-specification:'Open Sans, Bold';font-variant-ligatures:normal;font-variant-caps:normal;font-variant-numeric:normal;font-feature-settings:normal;text-align:start;writing-mode:lr-tb;text-anchor:start">Roadmap</tspan>
        </text>
        <text
           id="Estimate-Costs"
           font-size="10"
           font-weight="500"
           style="font-style:normal;font-variant:normal;font-weight:bold;font-stretch:normal;font-size:8px;font-family:'Open Sans';-inkscape-font-specification:'Open Sans, Bold';font-variant-ligatures:normal;font-variant-caps:normal;font-variant-numeric:normal;font-feature-settings:normal;text-align:start;writing-mode:lr-tb;text-anchor:start;fill:#2d2d2d"
           x="-4"
           y="2">
          <tspan
             x="12.98"
             y="58"
             id="tspan58"
             style="font-style:normal;font-variant:normal;font-weight:bold;font-stretch:normal;font-size:8px;font-family:'Open Sans';-inkscape-font-specification:'Open Sans, Bold';font-variant-ligatures:normal;font-variant-caps:normal;font-variant-numeric:normal;font-feature-settings:normal;text-align:start;writing-mode:lr-tb;text-anchor:start">Estimate</tspan>
          <tspan
             x="21.870001"
             y="71"
             id="tspan60"
             style="font-style:normal;font-variant:normal;font-weight:bold;font-stretch:normal;font-size:8px;font-family:'Open Sans';-inkscape-font-specification:'Open Sans, Bold';font-variant-ligatures:normal;font-variant-caps:normal;font-variant-numeric:normal;font-feature-settings:normal;text-align:start;writing-mode:lr-tb;text-anchor:start">Costs</tspan>
        </text>
        <circle
           id="Oval-Copy-8"
           cx="109.5"
           cy="165.99986"
           r="55"
           style="fill:#012169;fill-opacity:0.2" />
        <circle
           id="Oval-Copy-9"
           cx="109.5"
           cy="166"
           r="40"
           style="fill:#002fba" />
      </g>
    </g>
  </g>
</svg>
