<svg version="1.1" id="Layer_1" xmlns="http://www.w3.org/2000/svg" xmlns:xlink="http://www.w3.org/1999/xlink" x="0px" y="0px"
	 viewBox="0 0 305 282" enable-background="new 0 0 305 282" xml:space="preserve">
<g id="Layer_1_1_">
	<path id="Stroke-5" fill="none" stroke="#005587" stroke-width="3" stroke-linecap="round" stroke-linejoin="round" d="M148.6,72.2
		c11.2,2.5,22,7.3,31.6,13.6l2.9,2.3"/>
	<line id="Stroke-7" fill="none" stroke="#00A651" stroke-width="2" x1="55.2" y1="108.8" x2="55.2" y2="108.8"/>
	<path id="Stroke-9" fill="#005587" d="M39.8,135.3v0.1l4.7,17.8c0.2,0.8-0.3,1.6-1.1,1.8s-1.5-0.2-1.8-0.9V154l-3.2-12.2l-2.6,9.8
		c-1.4,7.1-2.1,14.3-2.1,21.5c0,15.8,3.4,31.3,9.8,45.3c0.3,0.8,0,1.6-0.7,2s-1.6,0-2-0.7c-6.6-14.4-10.1-30.3-10.1-46.6
		c0-7,0.6-14,1.9-21l0.2-1.2l2.6-9.9l-8.8,9.1c-0.5,0.6-1.4,0.6-2,0.1l-0.1-0.1c-0.6-0.5-0.6-1.4-0.1-2l0.1-0.1l12.8-13.2
		C38.1,134,39.4,134.3,39.8,135.3z"/>
	<path id="Stroke-11" fill="#005587" d="M77.4,247.7L77.4,247.7l18.4,1.7c0.8,0.1,1.4,0.8,1.4,1.6c-0.1,0.8-0.7,1.4-1.5,1.4h-0.1
		L83,251.3l8.3,5.7l0.7,0.4c13.6,7.9,28,12,42.9,12.2h0.8c19.1,0,37.5-6.6,54-19.1c0.7-0.5,1.6-0.4,2.1,0.3s0.4,1.6-0.3,2.1
		c-17,12.9-36,19.8-55.8,19.8c-15.8,0-31-4.3-45.3-12.6l-0.8-0.4l-0.1-0.1l-8.4-5.8l5.6,11.3c0.3,0.7,0.1,1.5-0.6,1.9l-0.1,0.1
		c-0.7,0.3-1.5,0.1-1.9-0.6l-0.1-0.1l-8.1-16.5c-0.5-1,0.2-2.1,1.2-2.2H77.4z"/>
	<path id="Stroke-13" fill="#005587" d="M211.9,127.1c8,13.4,12.2,28.3,12.2,43.7c0,5.1-0.5,10.2-1.4,15.2l-0.2,1.1v0.1l-2.9,9.8
		l9.1-8.8c0.6-0.5,1.4-0.6,2-0.1l0.1,0.1c0.5,0.6,0.6,1.4,0.1,2l-0.1,0.1l-13.2,12.8c-0.8,0.8-2.1,0.4-2.5-0.6v-0.1l-4.1-17.9
		c-0.2-0.8,0.3-1.6,1.1-1.8s1.5,0.3,1.8,1v0.1l2.8,12.3l2.9-9.7l0.2-1c0.8-4.5,1.3-9,1.4-13.6v-1.1c0-14.9-4.1-29.3-11.8-42.2
		c-0.4-0.7-0.2-1.6,0.5-2.1C210.6,126.2,211.5,126.4,211.9,127.1z"/>
	<path id="Stroke-23" fill="#005587" d="M190.9,46.7l0.1,0.1l16.2,8.7c1,0.5,1.1,1.9,0.2,2.5l-0.1,0.1l-15.8,9.3
		c-0.7,0.4-1.6,0.2-2.1-0.5c-0.4-0.7-0.2-1.5,0.4-2l0.1-0.1l10.9-6.4l-10.2,0.2c-44.9,1.8-79.8,11.9-105.9,27.5
		c-10.1,6.1-18.2,12.5-24.4,19c-2.2,2.3-3.9,4.3-5.4,6.2c-0.5,0.6-0.9,1.2-1.2,1.7c-0.2,0.3-0.3,0.5-0.4,0.6
		c-0.4,0.7-1.4,0.9-2.1,0.5c-0.7-0.4-0.9-1.4-0.5-2.1c0.1-0.1,0.2-0.4,0.5-0.7c0.4-0.5,0.8-1.2,1.3-1.8c1.5-2,3.3-4.1,5.6-6.5
		c6.4-6.7,14.7-13.3,25-19.5c26.3-15.7,61.2-25.9,106-27.9l1.4-0.1l10.2-0.2l-11.1-6c-0.7-0.4-1-1.2-0.7-1.9l0.1-0.1
		C189.4,46.7,190.2,46.4,190.9,46.7z"/>
	<path id="Stroke-29" fill="#005587" d="M287.5,45.8l0.1,0.1l16.2,8.7c1,0.5,1.1,1.9,0.2,2.5l-0.1,0.1L288,66.5
		c-0.7,0.4-1.6,0.2-2.1-0.5c-0.4-0.7-0.2-1.5,0.4-2l0.1-0.1l10.9-6.4l-10.2,0.2l-28.4,0.6c-0.8,0-1.5-0.6-1.5-1.5
		c0-0.8,0.6-1.4,1.3-1.5h0.1l28.4-0.6l10.2-0.2l-11.1-6c-0.7-0.4-1-1.2-0.7-1.9l0.1-0.1C285.9,45.8,286.8,45.5,287.5,45.8z"/>
	<circle id="Oval-Copy-8" fill-rule="evenodd" clip-rule="evenodd" fill="#005587" fill-opacity="0.2" cx="127.5" cy="172" r="55"/>
	<circle id="Oval-Copy-9" fill-rule="evenodd" clip-rule="evenodd" fill="#005587" cx="127.5" cy="172" r="40"/>
	<circle fill="#005587" cx="148.5" cy="71.5" r="3.8"/>
	<rect x="188.1" y="1" fill="none" width="92.3" height="21.2"/>
	<rect x="4.4" y="56.1" fill="none" width="92.3" height="21.2"/>
	<rect x="212.7" y="96.8" fill="none" width="92.3" height="21.2"/>
	<rect x="221" y="222" fill="none" width="92.3" height="21.2"/>
	<rect x="-22" y="257.8" fill="none" width="92.3" height="21.2"/>
</g>
<g id="Establish_x5F_on" display="none">
	<g display="inline">
		<path fill="#005587" d="M245.7,48.3c0,0.1,0,0.3-0.1,0.4c-1.2,2.8-4.4,4.6-7.9,4.6s-6.6-1.8-7.9-4.6c-0.1-0.1-0.1-0.3-0.1-0.4v-5
			h-3v20h22v-20h-3V48.3z M245.7,61.3h-16c-0.6,0-1-0.4-1-1s0.4-1,1-1h16c0.6,0,1,0.4,1,1S246.3,61.3,245.7,61.3z M246.7,56.3
			c0,0.6-0.4,1-1,1h-16c-0.6,0-1-0.4-1-1s0.4-1,1-1h16C246.3,55.3,246.7,55.7,246.7,56.3z"/>
		<path fill="#005587" d="M237.7,51.3c2.6,0,5.1-1.3,6-3.2v-7.8h-12v7.8C232.5,49.7,234.7,51.3,237.7,51.3z M234,44.6
			c0.4-0.4,1-0.4,1.4,0l1.3,1.3v-2.6c0-0.6,0.4-1,1-1s1,0.4,1,1v2.6l1.3-1.3c0.4-0.4,1-0.4,1.4,0s0.4,1,0,1.4l-3,3
			c-0.2,0.2-0.4,0.3-0.7,0.3s-0.5-0.1-0.7-0.3l-3-3C233.6,45.6,233.6,45,234,44.6z"/>
		<path fill="#005587" d="M237.7,28.3c-13.3,0-24,10.7-24,24s10.7,24,24,24s24-10.7,24-24S251,28.3,237.7,28.3z M250.7,64.3
			c0,0.6-0.4,1-1,1h-24c-0.6,0-1-0.4-1-1v-22c0-0.6,0.4-1,1-1h4v-2c0-0.6,0.4-1,1-1h14c0.6,0,1,0.4,1,1v2h4c0.6,0,1,0.4,1,1V64.3z"
			/>
	</g>
</g>
<g id="Establish_x5F_off">

		<ellipse transform="matrix(0.2076 -0.9782 0.9782 0.2076 137.1948 273.9648)" fill="#FFFFFF" cx="237.7" cy="52.3" rx="23.5" ry="23.5"/>
	<path fill="#005587" d="M249.7,41.3h-4v-2c0-0.6-0.4-1-1-1h-14c-0.6,0-1,0.4-1,1v2h-4c-0.6,0-1,0.4-1,1v22c0,0.6,0.4,1,1,1h24
		c0.6,0,1-0.4,1-1v-22C250.7,41.7,250.3,41.3,249.7,41.3z M231.7,40.3h12v7.8c-1,1.9-3.4,3.2-6,3.2c-3,0-5.1-1.6-6-3.2V40.3z
		 M248.7,63.3h-22v-20h3v5c0,0.1,0,0.3,0.1,0.4c1.2,2.7,4.4,4.6,7.9,4.6s6.7-1.8,7.9-4.6c0.1-0.1,0.1-0.3,0.1-0.4v-5h3V63.3z
		 M234,46c-0.4-0.4-0.4-1,0-1.4s1-0.4,1.4,0l1.3,1.3v-2.6c0-0.6,0.4-1,1-1s1,0.4,1,1v2.6l1.3-1.3c0.4-0.4,1-0.4,1.4,0s0.4,1,0,1.4
		l-3,3c-0.2,0.2-0.4,0.3-0.7,0.3s-0.5-0.1-0.7-0.3L234,46z M246.7,56.3c0,0.6-0.4,1-1,1h-16c-0.6,0-1-0.4-1-1s0.4-1,1-1h16
		C246.3,55.3,246.7,55.7,246.7,56.3z M246.7,60.3c0,0.6-0.4,1-1,1h-16c-0.6,0-1-0.4-1-1s0.4-1,1-1h16
		C246.3,59.3,246.7,59.7,246.7,60.3z"/>
	<path fill="#005587" d="M237.7,30.3c12.1,0,22,9.9,22,22s-9.9,22-22,22s-22-9.9-22-22S225.6,30.3,237.7,30.3 M237.7,28.3
		c-13.3,0-24,10.7-24,24s10.7,24,24,24s24-10.7,24-24S251,28.3,237.7,28.3L237.7,28.3z"/>
</g>
<g id="Create_x5F_on" display="none">
	<path display="inline" fill="#005587" d="M199.9,104.3h-8v-8h8V104.3z M186.9,91.3h18v18h-18V91.3z M189.9,105.3c0,0.6,0.4,1,1,1
		h10c0.6,0,1-0.4,1-1v-10c0-0.6-0.4-1-1-1h-10c-0.6,0-1,0.4-1,1V105.3z M219.9,100.3c0,13.3-10.7,24-24,24s-24-10.7-24-24
		s10.7-24,24-24S219.9,87,219.9,100.3z M206.9,99.3v-2h3c0.6,0,1-0.4,1-1s-0.4-1-1-1h-3v-5c0-0.6-0.4-1-1-1h-5v-3c0-0.6-0.4-1-1-1
		s-1,0.4-1,1v3h-2v-3c0-0.6-0.4-1-1-1s-1,0.4-1,1v3h-2v-3c0-0.6-0.4-1-1-1s-1,0.4-1,1v3h-5c-0.6,0-1,0.4-1,1v5h-3c-0.6,0-1,0.4-1,1
		s0.4,1,1,1h3v2h-3c-0.6,0-1,0.4-1,1s0.4,1,1,1h3v2h-3c-0.6,0-1,0.4-1,1s0.4,1,1,1h3v5c0,0.6,0.4,1,1,1h5v3c0,0.6,0.4,1,1,1
		s1-0.4,1-1v-3h2v3c0,0.6,0.4,1,1,1s1-0.4,1-1v-3h2v3c0,0.6,0.4,1,1,1s1-0.4,1-1v-3h5c0.6,0,1-0.4,1-1v-5h3c0.6,0,1-0.4,1-1
		s-0.4-1-1-1h-3v-2h3c0.6,0,1-0.4,1-1s-0.4-1-1-1H206.9z"/>
</g>
<g id="Create_x5F_off">
	<circle fill="#FFFFFF" cx="195.9" cy="100.3" r="22.2"/>
	<g>
		<path fill="#005587" d="M209.9,101.3c0.6,0,1-0.4,1-1s-0.4-1-1-1h-3v-2h3c0.6,0,1-0.4,1-1s-0.4-1-1-1h-3v-5c0-0.6-0.4-1-1-1h-5v-3
			c0-0.6-0.4-1-1-1s-1,0.4-1,1v3h-2v-3c0-0.6-0.4-1-1-1s-1,0.4-1,1v3h-2v-3c0-0.6-0.4-1-1-1s-1,0.4-1,1v3h-5c-0.6,0-1,0.4-1,1v5h-3
			c-0.6,0-1,0.4-1,1s0.4,1,1,1h3v2h-3c-0.6,0-1,0.4-1,1s0.4,1,1,1h3v2h-3c-0.6,0-1,0.4-1,1s0.4,1,1,1h3v5c0,0.6,0.4,1,1,1h5v3
			c0,0.6,0.4,1,1,1s1-0.4,1-1v-3h2v3c0,0.6,0.4,1,1,1s1-0.4,1-1v-3h2v3c0,0.6,0.4,1,1,1s1-0.4,1-1v-3h5c0.6,0,1-0.4,1-1v-5h3
			c0.6,0,1-0.4,1-1s-0.4-1-1-1h-3v-2H209.9z M204.9,109.3h-18v-18h18V109.3z"/>
		<path fill="#005587" d="M200.9,94.3h-10c-0.6,0-1,0.4-1,1v10c0,0.6,0.4,1,1,1h10c0.6,0,1-0.4,1-1v-10
			C201.9,94.7,201.5,94.3,200.9,94.3z M199.9,104.3h-8v-8h8V104.3z"/>
	</g>
	<path fill="#005587" d="M195.9,78.3c12.1,0,22,9.9,22,22s-9.9,22-22,22s-22-9.9-22-22S183.8,78.3,195.9,78.3 M195.9,76.3
		c-13.3,0-24,10.7-24,24s10.7,24,24,24s24-10.7,24-24S209.2,76.3,195.9,76.3L195.9,76.3z"/>
</g>
<g id="Estimate_x5F_on" display="none">
	<circle display="inline" fill="#FFFFFF" cx="55.2" cy="105.8" r="23"/>
	<path display="inline" fill="#005587" d="M60.2,99.3h-10v-2h10V99.3z M46.2,93.3h18v26h-18C46.2,119.3,46.2,93.3,46.2,93.3z
		 M54.2,116.3c0-0.6-0.4-1-1-1s-1,0.4-1,1s0.4,1,1,1S54.2,116.9,54.2,116.3z M54.2,112.3c0-0.6-0.4-1-1-1s-1,0.4-1,1s0.4,1,1,1
		S54.2,112.9,54.2,112.3z M54.2,108.3c0-0.6-0.4-1-1-1s-1,0.4-1,1s0.4,1,1,1S54.2,108.9,54.2,108.3z M54.2,104.3c0-0.6-0.4-1-1-1
		s-1,0.4-1,1s0.4,1,1,1S54.2,104.9,54.2,104.3z M58.2,116.3c0-0.6-0.4-1-1-1s-1,0.4-1,1s0.4,1,1,1S58.2,116.9,58.2,116.3z
		 M58.2,112.3c0-0.6-0.4-1-1-1s-1,0.4-1,1s0.4,1,1,1S58.2,112.9,58.2,112.3z M58.2,108.3c0-0.6-0.4-1-1-1s-1,0.4-1,1s0.4,1,1,1
		S58.2,108.9,58.2,108.3z M58.2,104.3c0-0.6-0.4-1-1-1s-1,0.4-1,1s0.4,1,1,1S58.2,104.9,58.2,104.3z M62.2,112.3c0-0.6-0.4-1-1-1
		s-1,0.4-1,1v4c0,0.6,0.4,1,1,1s1-0.4,1-1V112.3z M62.2,108.3c0-0.6-0.4-1-1-1s-1,0.4-1,1s0.4,1,1,1S62.2,108.9,62.2,108.3z
		 M62.2,104.3c0-0.6-0.4-1-1-1s-1,0.4-1,1s0.4,1,1,1S62.2,104.9,62.2,104.3z M48.2,100.3c0,0.6,0.4,1,1,1h12c0.6,0,1-0.4,1-1v-4
		c0-0.6-0.4-1-1-1h-12c-0.6,0-1,0.4-1,1V100.3z M48.2,104.3c0,0.6,0.4,1,1,1s1-0.4,1-1s-0.4-1-1-1S48.2,103.7,48.2,104.3z
		 M48.2,108.3c0,0.6,0.4,1,1,1s1-0.4,1-1s-0.4-1-1-1S48.2,107.7,48.2,108.3z M48.2,112.3c0,0.6,0.4,1,1,1s1-0.4,1-1s-0.4-1-1-1
		S48.2,111.7,48.2,112.3z M48.2,116.3c0,0.6,0.4,1,1,1s1-0.4,1-1s-0.4-1-1-1S48.2,115.7,48.2,116.3z M79.2,106.3
		c0,13.3-10.7,24-24,24s-24-10.7-24-24s10.7-24,24-24S79.2,93,79.2,106.3z M66.2,92.3c0-0.6-0.4-1-1-1h-20c-0.6,0-1,0.4-1,1v28
		c0,0.6,0.4,1,1,1h20c0.6,0,1-0.4,1-1V92.3z"/>
</g>
<g id="Estimate_x5F_off">
	<circle fill="#FFFFFF" cx="55.2" cy="105.8" r="23"/>
	<path fill="#005587" d="M65.2,90.8h-20c-0.6,0-1,0.4-1,1v28c0,0.6,0.4,1,1,1h20c0.6,0,1-0.4,1-1v-28C66.2,91.2,65.8,90.8,65.2,90.8
		z M64.2,118.8h-18v-26h18V118.8z M49.2,100.8h12c0.6,0,1-0.4,1-1v-4c0-0.6-0.4-1-1-1h-12c-0.6,0-1,0.4-1,1v4
		C48.2,100.4,48.6,100.8,49.2,100.8z M50.2,96.8h10v2h-10V96.8z M48.2,103.8c0-0.6,0.4-1,1-1s1,0.4,1,1s-0.4,1-1,1
		S48.2,104.4,48.2,103.8z M54.2,103.8c0,0.6-0.4,1-1,1s-1-0.4-1-1s0.4-1,1-1S54.2,103.2,54.2,103.8z M58.2,103.8c0,0.6-0.4,1-1,1
		s-1-0.4-1-1s0.4-1,1-1S58.2,103.2,58.2,103.8z M62.2,103.8c0,0.6-0.4,1-1,1s-1-0.4-1-1s0.4-1,1-1S62.2,103.2,62.2,103.8z
		 M48.2,107.8c0-0.6,0.4-1,1-1s1,0.4,1,1s-0.4,1-1,1S48.2,108.4,48.2,107.8z M54.2,107.8c0,0.6-0.4,1-1,1s-1-0.4-1-1s0.4-1,1-1
		S54.2,107.2,54.2,107.8z M58.2,107.8c0,0.6-0.4,1-1,1s-1-0.4-1-1s0.4-1,1-1S58.2,107.2,58.2,107.8z M62.2,107.8c0,0.6-0.4,1-1,1
		s-1-0.4-1-1s0.4-1,1-1S62.2,107.2,62.2,107.8z M48.2,111.8c0-0.6,0.4-1,1-1s1,0.4,1,1s-0.4,1-1,1S48.2,112.4,48.2,111.8z
		 M54.2,111.8c0,0.6-0.4,1-1,1s-1-0.4-1-1s0.4-1,1-1S54.2,111.2,54.2,111.8z M58.2,111.8c0,0.6-0.4,1-1,1s-1-0.4-1-1s0.4-1,1-1
		S58.2,111.2,58.2,111.8z M62.2,111.8v4c0,0.6-0.4,1-1,1s-1-0.4-1-1v-4c0-0.6,0.4-1,1-1S62.2,111.2,62.2,111.8z M48.2,115.8
		c0-0.6,0.4-1,1-1s1,0.4,1,1s-0.4,1-1,1S48.2,116.4,48.2,115.8z M54.2,115.8c0,0.6-0.4,1-1,1s-1-0.4-1-1s0.4-1,1-1
		S54.2,115.2,54.2,115.8z M58.2,115.8c0,0.6-0.4,1-1,1s-1-0.4-1-1s0.4-1,1-1S58.2,115.2,58.2,115.8z"/>
	<path fill="#005587" d="M55.2,83.8c12.1,0,22,9.9,22,22s-9.9,22-22,22s-22-9.9-22-22S43.1,83.8,55.2,83.8 M55.2,81.8
		c-13.3,0-24,10.7-24,24s10.7,24,24,24s24-10.7,24-24S68.5,81.8,55.2,81.8L55.2,81.8z"/>
</g>
<g id="Develop_x5F_on" display="none">
	<circle display="inline" fill="#FFFFFF" cx="50.2" cy="225.1" r="23.3"/>
	<path display="inline" fill="#005587" d="M53.2,221.5c0,1.7-1.3,3-3,3s-3-1.3-3-3s1.3-3,3-3S53.2,219.8,53.2,221.5z M59.2,221.5
		c0,1.7-0.3,3-1.2,4.4l-7.8,11.8L42.4,226c-0.9-1.5-1.2-2.8-1.2-4.5c0-5,4-9,9-9l0,0l0,0C55.2,212.5,59.2,216.5,59.2,221.5z
		 M55.2,221.5c0-2.8-2.2-5-5-5s-5,2.2-5,5s2.2,5,5,5S55.2,224.3,55.2,221.5z M74.2,225.5c0,13.3-10.7,24-24,24s-24-10.7-24-24
		s10.7-24,24-24S74.2,212.2,74.2,225.5z M61.2,221.5c0-6.1-4.9-11-11-11l0,0l0,0c-6.1,0-11,4.9-11,11c0,2.1,0.4,3.7,1.5,5.6l8.6,13
		c0.2,0.3,0.5,0.4,0.8,0.4l0,0l0,0c0.3,0,0.6-0.2,0.8-0.4l8.6-13.1C60.7,225.2,61.2,223.6,61.2,221.5z"/>
</g>
<g id="Develop_x5F_off">
	<circle fill="#FFFFFF" cx="50.1" cy="225" r="23.2"/>
	<g>
		<path fill="#005587" d="M50.2,210.5L50.2,210.5L50.2,210.5c-6.1,0-11,4.9-11,11c0,2.1,0.4,3.7,1.5,5.6l8.6,13
			c0.2,0.3,0.5,0.4,0.8,0.4l0,0l0,0c0.3,0,0.6-0.2,0.8-0.4l8.6-13.1c1.1-1.8,1.5-3.4,1.5-5.5C61.2,215.4,56.3,210.5,50.2,210.5z
			 M58,225.9l-7.8,11.8L42.4,226c-0.9-1.5-1.2-2.8-1.2-4.5c0-5,4-9,9-9l0,0l0,0c5,0,9,4,9,9C59.2,223.2,58.8,224.5,58,225.9z"/>
		<path fill="#005587" d="M50.2,216.5c-2.8,0-5,2.2-5,5s2.2,5,5,5s5-2.2,5-5S53,216.5,50.2,216.5z M50.2,224.5c-1.7,0-3-1.3-3-3
			s1.3-3,3-3s3,1.3,3,3S51.9,224.5,50.2,224.5z"/>
	</g>
	<path fill="#005587" d="M50.2,203.5c12.1,0,22,9.9,22,22s-9.9,22-22,22s-22-9.9-22-22C28.2,213.4,38.1,203.5,50.2,203.5
		 M50.2,201.5c-13.3,0-24,10.7-24,24s10.7,24,24,24s24-10.7,24-24S63.5,201.5,50.2,201.5L50.2,201.5z"/>
</g>
<g id="Discover_x5F_on" display="none">
	<path display="inline" fill="#005587" d="M200.1,227.2l0.7,2.6l-8.7,2.4l-0.7-2.6L200.1,227.2z M208.6,224.2l-6.7,1.8l1.1,3.9
		l6.8-1.8l-0.5-1.9L208.6,224.2z M225.9,231.6c0,13.3-10.7,24-24,24s-24-10.7-24-24s10.7-24,24-24S225.9,218.3,225.9,231.6z
		 M216,228.4l-2.1-7.7c-0.1-0.3-0.2-0.5-0.5-0.6c-0.2-0.1-0.5-0.2-0.8-0.1l-3.9,1.1c-0.5,0.1-0.8,0.7-0.7,1.2l-7.7,2.1
		c-0.4,0.1-0.7,0.5-0.7,0.9l-9.7,2.6l-0.2-0.6c-0.1-0.5-0.7-0.8-1.2-0.7s-0.8,0.7-0.7,1.2l2.1,7.7c0.1,0.4,0.5,0.7,1,0.7
		c0.1,0,0.2,0,0.3,0c0.5-0.1,0.8-0.7,0.7-1.2l-0.2-0.6l9.1-2.5l-4.8,13.4c-0.2,0.5,0.1,1.1,0.6,1.3c0.1,0,0.2,0.1,0.3,0.1
		c0.4,0,0.8-0.3,0.9-0.7l3.1-8.6v8.2c0,0.6,0.4,1,1,1s1-0.4,1-1v-8.2l3.1,8.6c0.1,0.4,0.5,0.7,0.9,0.7c0.1,0,0.2,0,0.3-0.1
		c0.5-0.2,0.8-0.8,0.6-1.3L203,232l7.1-1.9l0,0c0.1,0.4,0.5,0.7,1,0.7c0.1,0,0.2,0,0.3,0l3.9-1.1c0.3-0.1,0.5-0.2,0.6-0.5
		C216,228.9,216,228.7,216,228.4z M210.3,222.7l1.6,5.8l1.9-0.5l-1.6-5.8L210.3,222.7z"/>
</g>
<g id="Discover_x5F_off">
	<path fill="#005587" d="M201.9,208.3c12.1,0,22,9.9,22,22s-9.9,22-22,22s-22-9.9-22-22S189.8,208.3,201.9,208.3 M201.9,206.3
		c-13.3,0-24,10.7-24,24s10.7,24,24,24s24-10.7,24-24S215.2,206.3,201.9,206.3L201.9,206.3z"/>
	<path fill="#005587" d="M215.9,228.4l-2.1-7.7c-0.1-0.3-0.2-0.5-0.5-0.6c-0.2-0.1-0.5-0.2-0.8-0.1l-3.9,1.1
		c-0.5,0.1-0.8,0.7-0.7,1.2l-7.7,2.1c-0.4,0.1-0.7,0.5-0.7,0.9l-9.7,2.6l-0.2-0.6c-0.1-0.5-0.7-0.8-1.2-0.7s-0.8,0.7-0.7,1.2
		l2.1,7.7c0.1,0.4,0.5,0.7,1,0.7c0.1,0,0.2,0,0.3,0c0.5-0.1,0.8-0.7,0.7-1.2l-0.2-0.6l0,0l9.1-2.5l-4.8,13.4
		c-0.2,0.5,0.1,1.1,0.6,1.3c0.1,0,0.2,0.1,0.3,0.1c0.4,0,0.8-0.3,0.9-0.7l3.1-8.6v8.2c0,0.6,0.4,1,1,1s1-0.4,1-1v-8.2l3.1,8.6
		c0.1,0.4,0.5,0.7,0.9,0.7c0.1,0,0.2,0,0.3-0.1c0.5-0.2,0.8-0.8,0.6-1.3l-4.8-13.3l7.1-1.9l0,0c0.1,0.4,0.5,0.7,1,0.7
		c0.1,0,0.2,0,0.3,0l3.9-1.1c0.3-0.1,0.5-0.2,0.6-0.5C215.9,228.9,215.9,228.7,215.9,228.4z M191.3,229.6l8.7-2.4l0.7,2.6l-8.7,2.4
		L191.3,229.6z M202.8,229.9l-1-3.9l6.8-1.8l0.5,1.9l0.5,1.9L202.8,229.9z M211.8,228.5l-1.6-5.8l1.9-0.5l1.6,5.8L211.8,228.5z"/>
</g>
</svg>
