<?xml version="1.0" encoding="utf-8"?>
<!-- Generator: Adobe Illustrator 19.2.1, SVG Export Plug-In . SVG Version: 6.00 Build 0)  -->
<svg version="1.0" id="Plus" xmlns="http://www.w3.org/2000/svg" xmlns:xlink="http://www.w3.org/1999/xlink" x="0px" y="0px"
	 viewBox="0 0 52 52" enable-background="new 0 0 52 52" xml:space="preserve">
<path d="M26,4c12.1,0,22,9.9,22,22c0,12.1-9.9,22-22,22C13.9,48,4,38.1,4,26C4,13.9,13.9,4,26,4 M26,2C12.7,2,2,12.7,2,26
	s10.7,24,24,24c13.3,0,24-10.7,24-24S39.3,2,26,2L26,2z"/>
<path d="M40,25H27V12c0-0.6-0.4-1-1-1s-1,0.4-1,1v13H12c-0.6,0-1,0.4-1,1s0.4,1,1,1h13v13c0,0.6,0.4,1,1,1s1-0.4,1-1V27h13
	c0.6,0,1-0.4,1-1S40.6,25,40,25z"/>
</svg>
