<?xml version="1.0" encoding="UTF-8"?>
<svg width="48px" height="48px" viewBox="0 0 48 48" version="1.1" xmlns="http://www.w3.org/2000/svg" xmlns:xlink="http://www.w3.org/1999/xlink">
    <!-- Generator: Sketch 62 (91390) - https://sketch.com -->
    <title>Bin_POS Copy 2</title>
    <desc>Created with Sketch.</desc>
    <g id="all-pages" stroke="none" stroke-width="1" fill="none" fill-rule="evenodd">
        <g id="Drop-Down_User_Main" transform="translate(-406.000000, -388.000000)" fill="#000000" fill-rule="nonzero">
            <g id="Bin_POS-Copy-2" transform="translate(406.000000, 388.000000)">
                <g id="Group-7">
                    <path d="M15,15 L33,15 C33.6,15 34,14.6 34,14 C34,13.4 33.6,13 33,13 L29.6,13 C28.8,10.6 26.5,9 24,9 C21.6,9 19.5,10.4 18.5,12.6 C18.5,12.6 18.5,12.6 18.5,12.6 C18.4,12.7 18.4,12.9 18.4,13 L15,13 C14.4,13 14,13.4 14,14 C14,14.6 14.4,15 15,15 Z M24,11 C25.5,11 26.8,11.8 27.5,13 L20.6,13 C21.3,11.8 22.6,11 24,11 Z M33,17 L32,17 L16,17 L15,17 C14.4,17 14,17.4 14,18 C14,18.6 14.4,19 15,19 L15,38 C15,38.6 15.4,39 16,39 L32,39 C32.6,39 33,38.6 33,38 L33,19 C33.6,19 34,18.6 34,18 C34,17.4 33.6,17 33,17 Z M31,37 L17,37 L17,19 L31,19 L31,37 Z M19,34 L19,22 C19,21.4 19.4,21 20,21 C20.6,21 21,21.4 21,22 L21,34 C21,34.6 20.6,35 20,35 C19.4,35 19,34.6 19,34 Z M23,34 L23,22 C23,21.4 23.4,21 24,21 C24.6,21 25,21.4 25,22 L25,34 C25,34.6 24.6,35 24,35 C23.4,35 23,34.6 23,34 Z M27,34 L27,22 C27,21.4 27.4,21 28,21 C28.6,21 29,21.4 29,22 L29,34 C29,34.6 28.6,35 28,35 C27.4,35 27,34.6 27,34 Z" id="Shape"></path>
                    <path d="M24,2 C36.1,2 46,11.9 46,24 C46,36.1 36.1,46 24,46 C11.9,46 2,36.1 2,24 C2,11.9 11.9,2 24,2 L24,2 Z M24,0 C10.7,0 0,10.7 0,24 C0,37.3 10.7,48 24,48 C37.3,48 48,37.3 48,24 C48,10.7 37.3,0 24,0 L24,0 Z" id="Shape"></path>
                </g>
            </g>
        </g>
    </g>
</svg>