<?xml version="1.0" encoding="UTF-8" standalone="no"?>
<svg
   xmlns:dc="http://purl.org/dc/elements/1.1/"
   xmlns:cc="http://creativecommons.org/ns#"
   xmlns:rdf="http://www.w3.org/1999/02/22-rdf-syntax-ns#"
   xmlns:svg="http://www.w3.org/2000/svg"
   xmlns="http://www.w3.org/2000/svg"
   xmlns:sodipodi="http://sodipodi.sourceforge.net/DTD/sodipodi-0.dtd"
   xmlns:inkscape="http://www.inkscape.org/namespaces/inkscape"
   width="219px"
   height="222px"
   viewBox="0 0 219 222"
   version="1.1"
   id="svg32"
   sodipodi:docname="run-diagram.svg"
   inkscape:version="0.92.4 (5da689c313, 2019-01-14)">
  <metadata
     id="metadata38">
    <rdf:RDF>
      <cc:Work
         rdf:about="">
        <dc:format>image/svg+xml</dc:format>
        <dc:type
           rdf:resource="http://purl.org/dc/dcmitype/StillImage" />
      </cc:Work>
    </rdf:RDF>
  </metadata>
  <defs
     id="defs36" />
  <sodipodi:namedview
     pagecolor="#ffffff"
     bordercolor="#666666"
     borderopacity="1"
     objecttolerance="10"
     gridtolerance="10"
     guidetolerance="10"
     inkscape:pageopacity="0"
     inkscape:pageshadow="2"
     inkscape:window-width="1920"
     inkscape:window-height="1001"
     id="namedview34"
     showgrid="false"
     inkscape:zoom="1.5033982"
     inkscape:cx="23.737322"
     inkscape:cy="124.9237"
     inkscape:window-x="-9"
     inkscape:window-y="-9"
     inkscape:window-maximized="1"
     inkscape:current-layer="Group-28" />
  <!-- Generator: Sketch 55.2 (78181) - https://sketchapp.com -->
  <title
     id="title2">Group 2</title>
  <desc
     id="desc4">Created with Sketch.</desc>
  <g
     id="Page-1"
     stroke="none"
     stroke-width="1"
     fill="none"
     fill-rule="evenodd">
    <g
       id="Desktop-HD"
       transform="translate(-110.000000, -112.000000)">
      <g
         id="Group-2"
         transform="translate(110.000000, 120.000000)">
        <g
           id="Group">
          <g
             id="Group-28">
            <g
               id="Group-4"
               transform="matrix(0.91049906,0,0,0.79407556,10.274165,54.694709)">
              <g
                 id="Spin_POS"
                 transform="translate(0,123.54783)" />
              <g
                 id="Bar_chart_1_POS"
                 transform="translate(10.852174)" />
              <path
                 id="Stroke-1"
                 d="m 48.785643,152.74976 3.81622,9.28415 -1.535475,0.93217 -5.96209,-14.50467 13.295859,1.33998 -0.141852,2.07878 -8.511082,-0.85776 5.723382,4.7102 c 13.305234,9.75555 28.170879,14.94419 43.568906,14.94419 34.587569,0 65.672699,-25.90996 81.141119,-66.43519 l 1.55703,0.87775 c -15.74086,41.23901 -47.41911,67.64335 -82.698149,67.64335 -15.715573,0 -30.886824,-5.29531 -44.493359,-15.27345 z"
                 inkscape:connector-curvature="0"
                 style="fill:#86bc40;fill-rule:nonzero;stroke-width:0.94607651" />
            </g>
            <path
               id="Stroke-3"
               d="m 177.5649,102.42938 2.8724,-8.116656 1.86535,0.504911 -4.48755,12.680685 -10.06086,-9.938942 1.46205,-1.131983 6.44051,6.362475 -1.65618,-6.727862 C 165.24458,69.098158 139.08053,47.089926 104.70119,37.675395 l 0.58347,-1.629707 c 34.98608,9.58068 61.65148,32.010632 70.60957,59.60318 z"
               inkscape:connector-curvature="0"
               style="fill:#86bc40;fill-rule:nonzero;stroke-width:0.91304642" />
            <path
               id="Stroke-5"
               d="m 39.497127,73.304705 -10.112734,5.083578 -1.398458,-1.485062 15.79915,-7.942086 1.085342,13.989164 -2.46324,0.102019 -0.69478,-8.95515 -4.371325,6.512761 c -6.421259,11.27295 -9.873888,24.191841 -9.873888,37.611761 0,9.61431 1.735801,18.9313 5.10575,27.55803 l -2.372454,0.49473 C 26.766818,137.48459 25,128.00113 25,118.22169 25,104.56663 28.515564,91.412262 35.094503,79.866912 Z"
               inkscape:connector-curvature="0"
               style="fill:#86bc40;fill-rule:nonzero;stroke-width:1.05444086" />
            <path
               id="Stroke-31"
               d="m 200.9939,25.757956 -8.38323,-5.360708 1.07746,-1.684958 13.09714,8.375048 -13.9585,6.843747 -0.88045,-1.795773 8.93463,-4.380581 -8.08882,-0.4579 c -44.95331,-1.848296 -82.58185,4.792338 -113.221487,16.361989 -5.763373,2.182052 -10.765262,4.378131 -14.98388,6.478783 -1.473259,0.733606 -2.742547,1.402311 -3.805137,1.99243 -0.370223,0.205607 -0.687752,0.386435 -0.952246,0.540774 -0.156424,0.09128 -0.259134,0.152644 -0.307789,0.182388 l -1.043183,-1.70639 c 0.06026,-0.03684 0.174701,-0.105215 0.342984,-0.203412 0.276685,-0.161453 0.606535,-0.349297 0.989211,-0.56182 1.088552,-0.604537 2.384344,-1.287206 3.884673,-2.034292 4.277349,-2.129896 9.340303,-4.352786 15.16803,-6.559202 C 109.7468,30.126348 147.64154,23.438734 192.88971,25.299273 Z"
               inkscape:connector-curvature="0"
               style="fill:#86bc40;fill-rule:nonzero" />
            <text
               xml:space="preserve"
               style="font-style:normal;font-variant:normal;font-weight:bold;font-stretch:normal;font-size:6px;line-height:1.25;font-family:'Open Sans';-inkscape-font-specification:'Open Sans, Bold';font-variant-ligatures:normal;font-variant-caps:normal;font-variant-numeric:normal;font-feature-settings:normal;text-align:start;letter-spacing:0px;word-spacing:0px;writing-mode:lr-tb;text-anchor:start;fill:#000000;fill-opacity:1;stroke:none"
               x="23.169491"
               y="185.65254"
               id="text42"><tspan
                 sodipodi:role="line"
                 id="tspan40"
                 x="23.169491"
                 y="185.65254">Optimize</tspan></text>
            <text
               xml:space="preserve"
               style="font-style:normal;font-variant:normal;font-weight:bold;font-stretch:normal;font-size:6px;line-height:1.25;font-family:'Open Sans';-inkscape-font-specification:'Open Sans, Bold';font-variant-ligatures:normal;font-variant-caps:normal;font-variant-numeric:normal;font-feature-settings:normal;text-align:start;letter-spacing:0px;word-spacing:0px;writing-mode:lr-tb;text-anchor:start;fill:#000000;fill-opacity:1;stroke:none"
               x="33.627117"
               y="25.398306"
               id="text46"><tspan
                 sodipodi:role="line"
                 id="tspan44"
                 x="33.627117"
                 y="25.398306"
                 style="font-style:normal;font-variant:normal;font-weight:bold;font-stretch:normal;font-size:6px;font-family:'Open Sans';-inkscape-font-specification:'Open Sans, Bold';font-variant-ligatures:normal;font-variant-caps:normal;font-variant-numeric:normal;font-feature-settings:normal;text-align:start;writing-mode:lr-tb;text-anchor:start">Continue</tspan><tspan
                 sodipodi:role="line"
                 x="33.627117"
                 y="32.898308"
                 id="tspan48"
                 style="font-style:normal;font-variant:normal;font-weight:bold;font-stretch:normal;font-size:6px;font-family:'Open Sans';-inkscape-font-specification:'Open Sans, Bold';font-variant-ligatures:normal;font-variant-caps:normal;font-variant-numeric:normal;font-feature-settings:normal;text-align:start;writing-mode:lr-tb;text-anchor:start">digital innovation</tspan></text>
            <text
               xml:space="preserve"
               style="font-style:normal;font-variant:normal;font-weight:bold;font-stretch:normal;font-size:6px;line-height:1.25;font-family:'Open Sans';-inkscape-font-specification:'Open Sans, Bold';font-variant-ligatures:normal;font-variant-caps:normal;font-variant-numeric:normal;font-feature-settings:normal;text-align:start;letter-spacing:0px;word-spacing:0px;writing-mode:lr-tb;text-anchor:start;fill:#000000;fill-opacity:1;stroke:none"
               x="173.55086"
               y="151.32204"
               id="text52"><tspan
                 sodipodi:role="line"
                 id="tspan50"
                 x="173.55086"
                 y="151.32204">Stabilize</tspan></text>
          </g>
          <ellipse
             id="Oval-Copy-6"
             cx="102.99796"
             cy="114.4683"
             rx="40.1166"
             ry="40.586937"
             style="fill:#86bc40;fill-opacity:0.2;stroke-width:0.93973845" />
          <ellipse
             id="Oval-Copy-7"
             cx="103.58694"
             cy="114.23101"
             rx="28.876404"
             ry="28.876402"
             style="fill:#86bc40;stroke-width:0.92469299" />
        </g>
      </g>
    </g>
  </g>
</svg>
