<?xml version="1.0" encoding="UTF-8"?>
<svg width="273px" height="264px" viewBox="0 0 273 264" version="1.1" xmlns="http://www.w3.org/2000/svg" xmlns:xlink="http://www.w3.org/1999/xlink">
    <!-- Generator: Sketch 60 (88103) - https://sketch.com -->
    <title>Group 29</title>
    <desc>Created with Sketch.</desc>
    <g id="Page-1" stroke="none" stroke-width="1" fill="none" fill-rule="evenodd">
        <g id="Group-6-Copy" transform="translate(-34.000000, -309.000000)">
            <g id="Group-16">
                <g id="Group-40" transform="translate(33.000000, 307.000000)">
                    <g id="Group-29">
                        <path id="Stroke-1" d="M232.122999,205.584759 L233.798271,206.677217 C209.671757,243.674956 170.895131,266 128.652364,266 C106.31612,266 84.7732624,259.682818 65.5592053,247.820806 L64.7599714,247.323349 L58.092,242.724 L62.4612199,251.664099 L60.664376,252.542366 L54.6183146,240.17274 L53.8376332,238.575545 L55.6079931,238.737779 L69.3187141,239.994215 L69.136201,241.98587 L59.225,241.077 L65.859205,245.653079 C84.9245307,257.615322 106.388316,264 128.652364,264 C170.198824,264 208.355573,242.03184 232.122999,205.584759 Z" fill="#86BC40" fill-rule="nonzero"></path>
                        <path id="Stroke-3" d="M155.296518,27.0449727 C198.907914,40.5854781 231.994922,72.4293336 242.758539,111.447291 L243.077864,112.631838 L244.715,120.581 L247.743451,111.101515 L249.648614,111.710083 L245.459178,124.825384 L244.918229,126.518862 L243.751892,125.177165 L234.719086,114.786259 L236.228496,113.47413 L242.756,120.983 L241.131408,113.088305 C231.013484,74.6671081 198.774753,43.0729707 156.002814,29.3649362 L154.703482,28.9550273 L155.296518,27.0449727 Z" fill="#86BC40" fill-rule="nonzero"></path>
                        <path id="Stroke-5" d="M34.8763254,84.801269 L34.8497596,86.5788483 L34.6440186,100.345481 L32.6442419,100.315594 L32.793,90.365 L28.6956527,97.4006319 C16.8130923,119.618356 13.2165664,141.062617 19.7273392,165.624638 L19.9298077,166.377515 L18.0003007,166.903826 C11.1388669,141.749119 14.6300654,119.769209 26.5848393,97.1125664 L26.9496939,96.4257903 L31.063,89.36 L22.4845359,94.3991875 L21.4716171,92.6746598 L33.3434119,85.7016412 L34.8763254,84.801269 Z" fill="#86BC40" fill-rule="nonzero"></path>
                        <path d="M7,211.5 C7,195.759305 19.5363137,183 35,183 C50.4636863,183 63,195.759305 63,211.5 C63,227.239729 50.4636863,240 35,240 C19.5363137,240 7,227.239729 7,211.5 Z" id="Stroke-25" stroke="#86BC40" stroke-width="2" fill="#FFFFFF"></path>
                        <path d="M216,158.5 C216,142.20715 228.7604,129 244.5,129 C260.2396,129 273,142.20715 273,158.5 C273,174.791867 260.2396,188 244.5,188 C228.7604,188 216,174.791867 216,158.5 Z" id="Stroke-29" stroke="#86BC40" stroke-width="2" fill="#FFFFFF"></path>
                        <path id="Stroke-31" d="M237.708364,2.86575291 L249.289493,10.311553 L250.784875,11.2729718 L249.186714,12.0516714 L236.809598,18.0823844 L235.933561,16.2844525 L244.879,11.925 L236.790711,11.4480701 C182.223962,8.93019763 136.585827,16.8708702 99.4743249,30.8749762 C92.5918781,33.4789795 86.6182009,36.0999724 81.5792732,38.6074215 C79.8189057,39.4834079 78.301952,40.2820601 77.0316629,40.9870559 C76.5887451,41.2328702 76.2087095,41.4491508 75.8919627,41.633857 C75.7417414,41.7214563 75.6325439,41.7862367 75.5645782,41.8271534 L75.5213382,41.8533501 L74.4786618,40.1466499 C74.5494372,40.103411 74.684843,40.0225633 74.884476,39.9061503 C75.2134117,39.7143362 75.6057658,39.4910451 76.0611349,39.2383205 C77.3573799,38.5189195 78.9008319,37.7063164 80.6882631,36.8168627 C85.7859032,34.2801974 91.8206247,31.6324208 98.7674004,29.0040788 C135.75209,15.0478253 181.116088,7.07963838 235.252582,9.37807619 L236.895767,9.45087275 L244.996,9.929 L236.626768,4.54805777 L237.708364,2.86575291 Z" fill="#86BC40" fill-rule="nonzero"></path>
                        <path d="M151,27 C151,24.791 152.791,23 155,23 C157.209,23 159,24.791 159,27 C159,29.209 157.209,31 155,31 C152.791,31 151,29.209 151,27" id="Fill-33" fill="#86BC40"></path>
                        <path d="M151,27 C151,24.791 152.791,23 155,23 C157.209,23 159,24.791 159,27 C159,29.209 157.209,31 155,31 C152.791,31 151,29.209 151,27 Z" id="Stroke-35" stroke="#86BC40" stroke-width="2"></path>
                        <path d="M29,63 C29,46.9841356 41.7604,34 57.5,34 C73.2396,34 86,46.9841356 86,63 C86,79.0158644 73.2396,92 57.5,92 C41.7604,92 29,79.0158644 29,63 Z" id="Stroke-39" stroke="#86BC40" stroke-width="2" fill="#FFFFFF"></path>
                        <text id="Optimize" font-family="Montserrat-SemiBold, Montserrat" font-size="10" font-weight="500" fill="#000000">
                            <tspan x="11" y="177">Optimize</tspan>
                        </text>
                        <text id="Stabilize" font-family="Montserrat-SemiBold, Montserrat" font-size="10" font-weight="500" fill="#000000">
                            <tspan x="223" y="200">Stabilize</tspan>
                        </text>
                        <text id="Continue-Digital-Inn" font-family="Montserrat-SemiBold, Montserrat" font-size="10" font-weight="500" fill="#000000">
                            <tspan x="22.81" y="10">Continue</tspan>
                            <tspan x="0.355" y="23">Digital Innovation</tspan>
                        </text>
                        <path d="M254.449524,152 L251.941905,152 L251.697143,152.065 L251.514286,152.131 L251.453333,152.328 L251.330476,152.59 L251.330476,153.312 L251.330476,153.902 L251.269524,154.623 L251.085714,155.344 L250.840952,155.935 L250.59619,156.459 L250.290476,157.115 L249.862857,157.639 L249.49619,158.033 L249.067619,158.492 L248.578095,158.951 L248.088571,159.279 L247.477143,159.542 L246.927619,159.738 L246.254286,159.934 L245.702857,160 L245.030476,160.066 L244.358095,160 L243.746667,159.934 L243.134286,159.738 L242.584762,159.542 L241.972381,159.279 L241.48381,158.951 L240.994286,158.492 L240.504762,158.033 L240.138095,157.639 L239.771429,157.115 L239.465714,156.459 L239.220952,155.935 L238.97619,155.344 L238.792381,154.623 L238.731429,153.902 L238.608571,153.312 L238.608571,152.59 L238.608571,152.328 L238.486667,152.131 L238.302857,152.065 L238.12,152 L235.612381,152 L235.367619,152.065 L235.182857,152.131 L235.122857,152.328 L235,152.59 L235,167.41 L235.122857,167.672 L235.182857,167.803 L235.367619,167.934 L235.612381,168 L238.12,168 L238.302857,167.934 L238.486667,167.803 L238.608571,167.672 L238.608571,167.41 L238.608571,166.689 L251.330476,166.689 L251.330476,167.41 L251.453333,167.672 L251.514286,167.803 L251.697143,167.934 L251.941905,168 L254.449524,168 L254.633333,167.934 L254.817143,167.803 L255,167.672 L255,167.41 L255,152.59 L255,152.328 L254.817143,152.131 L254.633333,152.065 L254.449524,152 Z M251,157 L251,165 L248,165 L248,159.819 L248.90728,159.229 L249.743933,158.573 L250.441507,157.852 L251,157 Z M247,161 L247,166 L245,166 L245,161.492912 L246.030189,161.281357 L247,161 Z M245,161.492912 L245,166 L243,166 L243,161 L243.940907,161.281357 L245,161.492912 Z M242,159.819 L242,165 L239,165 L239,157 L239.667474,157.852 L240.332872,158.573 L241.066782,159.229 L242,159.819 Z" id="Fill-41" fill="#010202"></path>
                        <polygon id="Fill-43" fill="#010202" points="58.733 62 54.333 62 54.066 62.0613333 54 62.3057778 54 69.7555556 54.066 69.9386667 54.333 70 58.733 70 58.933 69.9386667 59 69.7555556 59 62.3057778 58.933 62.0613333"></polygon>
                        <polygon id="Fill-45" fill="#010202" points="51.729 65 47.27 65 47.067 65.133 47 65.4 47 69.733 47.067 69.934 47.27 70 51.729 70 51.932 69.934 52 69.733 52 65.4 51.932 65.133"></polygon>
                        <polygon id="Fill-47" fill="#010202" points="64.605 59 60.394 59 60.131 59.1173333 60 59.3510833 60 69.76625 60.131 69.9413333 60.394 70 64.605 70 64.868 69.9413333 65 69.76625 65 59.3510833 64.868 59.1173333"></polygon>
                        <polygon id="Fill-49" fill="#010202" points="55.9713846 59 55.9713846 59 56.2049231 59 56.3221538 58.937 61.0049231 53.909 61.0049231 56.136 61.0049231 56.391 61.064 56.518 61.2393846 56.646 61.4738462 56.709 61.7073846 56.646 61.8246154 56.518 61.9418462 56.391 62 56.136 62 52.509 61.9418462 52.382 61.8246154 52.191 61.5910769 52 61.4738462 52 58.1369231 52 58.0196923 52 57.8443077 52.191 57.6689231 52.382 57.6689231 52.509 57.6689231 52.764 57.8443077 52.955 58.0196923 53.018 58.1369231 53.146 60.1852308 53.146 55.9713846 57.728 53.5704615 55.182 53.4532308 54.991 53.2206154 54.991 53.0443077 54.991 52.8689231 55.182 50.1172308 58.109 50 58.364 50 58.491 50 58.682 50.1172308 58.937 50.2935385 59 50.4689231 59 50.7024615 59 50.8196923 58.937 53.2206154 56.264 55.6196923 58.937 55.796 59"></polygon>
                        <polygon id="Fill-51" stroke="#000000" fill="#010202" points="27.101 208.746 27.101 208.746 27.165 207.797 27.36 206.848 27.619 205.898 28.007 204.949 28.395 204.189 28.913 203.557 29.431 202.86 30.143 202.353 30.79 201.848 31.438 201.342 32.214 200.962 32.991 200.645 33.832 200.392 34.673 200.266 35.451 200.202 36.357 200.202 37.198 200.266 38.039 200.455 38.946 200.708 39.722 201.088 40.823 201.658 41.923 202.417 42.764 203.366 43.476 204.442 40.305 204.062 40.046 204.062 39.916 204.126 39.722 204.316 39.658 204.569 39.658 204.695 39.787 204.949 39.981 205.075 40.175 205.139 44.706 205.708 44.965 205.708 45.094 205.645 45.288 205.455 45.353 205.329 46 200.898 46 200.645 45.806 200.455 45.612 200.266 45.483 200.202 45.224 200.202 45.03 200.266 44.835 200.455 44.771 200.708 44.447 203.683 43.541 202.48 42.57 201.595 41.47 200.708 40.24 199.949 39.269 199.633 38.428 199.379 37.456 199.126 36.486 199 35.515 199 34.48 199.126 33.574 199.253 32.667 199.506 31.697 199.949 30.855 200.392 30.079 200.898 29.301 201.468 28.589 202.164 28.007 202.86 27.424 203.683 26.907 204.569 26.518 205.582 26.13 206.658 26 207.86 26 209 27.101 209"></polygon>
                        <polygon id="Fill-55" stroke="#000000" fill="#010202" points="44.771 211 44.771 211 44.771 211.253 44.771 212.202 44.577 213.151 44.318 214.101 43.865 215.05 43.542 215.81 43.023 216.442 42.441 217.139 41.793 217.771 41.211 218.278 40.499 218.658 39.722 219.101 38.946 219.354 38.168 219.607 37.263 219.797 36.486 219.86 35.645 219.86 34.739 219.797 33.897 219.607 32.991 219.354 32.214 219.037 31.114 218.404 30.079 217.582 29.172 216.633 28.395 215.62 31.631 216.062 31.89 216.062 32.084 215.873 32.214 215.81 32.343 215.557 32.214 215.304 32.15 215.113 31.956 214.924 31.826 214.86 27.295 214.354 27.037 214.354 26.842 214.417 26.648 214.607 26.584 214.797 26 219.164 26 219.417 26.13 219.607 26.325 219.797 26.518 219.86 26.777 219.86 26.907 219.797 27.101 219.607 27.166 219.354 27.554 216.379 28.395 217.582 29.367 218.531 30.466 219.354 31.697 220.05 32.667 220.493 33.574 220.746 34.48 220.873 35.451 221 36.421 221 37.457 220.873 38.428 220.746 39.269 220.493 40.24 220.113 41.082 219.607 41.923 219.101 42.7 218.531 43.347 217.835 43.995 217.139 44.512 216.316 45.03 215.43 45.483 214.417 45.742 213.342 45.872 212.139 46 211"></polygon>
                        <circle id="Oval" fill-opacity="0.3" fill="#86BC25" cx="131" cy="152" r="55"></circle>
                        <circle id="Oval-Copy-10" fill="#86BC25" cx="131" cy="153" r="40"></circle>
                    </g>
                </g>
            </g>
        </g>
    </g>
</svg>