<?xml version="1.0" encoding="utf-8"?>
<!-- Generator: Adobe Illustrator 24.0.1, SVG Export Plug-In . SVG Version: 6.00 Build 0)  -->
<svg version="1.1" id="Layer_1" xmlns="http://www.w3.org/2000/svg" xmlns:xlink="http://www.w3.org/1999/xlink" x="0px" y="0px"
	 viewBox="0 0 235 245" style="enable-background:new 0 0 235 245;" xml:space="preserve">
<style type="text/css">
	.st0{fill:#86BC40;}
	.st1{fill-rule:evenodd;clip-rule:evenodd;fill:#86BC40;fill-opacity:0.2;}
	.st2{fill-rule:evenodd;clip-rule:evenodd;fill:#86BC25;}
	.st3{clip-path:url(#SVGID_2_);}
	.st4{clip-path:url(#SVGID_4_);fill:#86BC25;}
	.st5{clip-path:url(#SVGID_6_);fill:#86BC25;}
	.st6{clip-path:url(#SVGID_8_);}
	.st7{clip-path:url(#SVGID_10_);fill:#86BC25;}
	.st8{clip-path:url(#SVGID_12_);fill:#86BC25;}
	.st9{clip-path:url(#SVGID_14_);}
	.st10{clip-path:url(#SVGID_16_);fill:#86BC25;}
	.st11{clip-path:url(#SVGID_18_);fill:#86BC25;}
</style>
<path id="Stroke-1" class="st0" d="M207.5,173.8l2.8,1.4c-19.2,41.6-57.8,68.3-101.1,68.3c-17.5,0-34.6-4.5-50.1-12.9l-0.8-0.4
	l-0.1-0.1l-8.9-5.9l6.1,11.7l-2.8,1.5l-8.9-17.1l-1.3-2.5l2.8,0.2l19.1,1.3l-0.2,3.1l-13.2-0.8l8.9,5.8l0.7,0.4
	c14.7,8.1,31,12.4,47.7,12.6h0.9C151.1,240.3,188.8,214.4,207.5,173.8z"/>
<path id="Stroke-3" class="st0" d="M136.3,29.6c35.7,11.2,63.5,36.8,74.3,68.7l0.3,0.9v0.1l2.5,10.4l3.7-12.7l3,0.8l-5.2,18.6
	l-0.7,2.7l-1.9-2.1l-13.1-14.2l2.3-2.1l9,9.8l-2.4-10.3l-0.3-0.8c-10.4-30.5-37-55.3-71.2-66.4l-1-0.3L136.3,29.6z"/>
<path id="Stroke-5" class="st0" d="M21.8,81.7l0.2,2.8l1.5,19.2l-3.1,0.2l-1-13.2l-4.5,9.6l-0.3,0.8c-4.2,11.6-6.5,24.5-6.6,38v1
	c0,10.8,1.4,21.2,4,30.9l0.3,1l-3,0.8c-2.9-10.3-4.4-21.4-4.4-32.8c0-14.2,2.3-27.8,6.8-40.2l0.3-0.9V99l4.5-9.6L5.6,97.1l-1.8-2.5
	l15.7-11.2L21.8,81.7z"/>
<path id="Stroke-31" class="st0" d="M198.9,1.6l16.2,10.3l2.4,1.5l-2.5,1.3l-17.2,8.6l-1.4-2.8l11.8-5.9l-10.5-0.5
	c-45.2-1.4-83.1,5.6-114.1,17.3c-6,2.3-11.2,4.6-15.6,6.8c-1.6,0.7-2.8,1.5-4,2.1c-0.4,0.2-0.7,0.4-0.9,0.5
	c-0.1,0.1-0.2,0.1-0.3,0.2l0,0l-1.7-2.7c0.1,0,0.2-0.1,0.4-0.2c0.3-0.2,0.6-0.4,1-0.6c1.1-0.6,2.5-1.4,4.1-2.1
	c4.5-2.2,9.8-4.6,15.9-6.9c31-11.7,68.9-18.8,114-17.5h1.4l10.6,0.5l-11.2-7L198.9,1.6z"/>
<ellipse id="Oval-Copy-6" class="st1" cx="110.7" cy="135.8" rx="56.4" ry="57.7"/>
<ellipse id="Oval-Copy-7" class="st2" cx="110.7" cy="135.8" rx="41.8" ry="42"/>
<g id="Artwork_10_1_">
	<g>
		<g>
			<defs>
				<rect id="SVGID_1_" x="183.3" y="125.3" width="50.3" height="50.3"/>
			</defs>
			<clipPath id="SVGID_2_">
				<use xlink:href="#SVGID_1_"  style="overflow:visible;"/>
			</clipPath>
			<g class="st3">
				<g>
					<defs>
						<rect id="SVGID_3_" x="183.3" y="125.3" width="50.3" height="50.3"/>
					</defs>
					<clipPath id="SVGID_4_">
						<use xlink:href="#SVGID_3_"  style="overflow:visible;"/>
					</clipPath>
					<path class="st4" d="M208.5,127.4c12.7,0,23.1,10.4,23.1,23.1s-10.3,23.1-23.1,23.1c-12.7,0-23.1-10.4-23.1-23.1
						C185.4,137.8,195.7,127.4,208.5,127.4 M208.5,125.3c-14,0-25.2,11.2-25.2,25.2s11.2,25.2,25.2,25.2s25.2-11.2,25.2-25.2
						C233.6,136.5,222.4,125.3,208.5,125.3"/>
				</g>
				<g>
					<defs>
						<rect id="SVGID_5_" x="183.3" y="125.3" width="50.3" height="50.3"/>
					</defs>
					<clipPath id="SVGID_6_">
						<use xlink:href="#SVGID_5_"  style="overflow:visible;"/>
					</clipPath>
					<path class="st5" d="M218.9,157.8v-3.1h4.2c0.6,0,1-0.4,1-1s-0.4-1-1-1h-4.2v-5.8c1,0.9,2.3,1.7,3.8,2.3c0.1,0,0.2,0.1,0.4,0.1
						c0.4,0,0.8-0.2,0.9-0.6c0.2-0.5-0.1-1.2-0.6-1.4c-1.9-0.8-3.4-2-4.5-3.5v-1.7c0-0.6-0.4-1-1-1s-1,0.4-1,1v1.7
						c-2,2.5-5.1,4.1-8.4,4.1c-3.4,0-6.5-1.5-8.4-4v-1.8c0-0.6-0.4-1-1-1s-1,0.4-1,1v1.7c-1.1,1.5-2.7,2.6-4.6,3.4
						c-0.5,0.2-0.8,0.8-0.6,1.4c0.2,0.4,0.5,0.6,0.9,0.6c0.1,0,0.2,0,0.4-0.1c1.4-0.5,2.7-1.4,3.8-2.3v5.9h-4.2c-0.6,0-1,0.4-1,1
						s0.4,1,1,1h4.2v3.1v1v0.3c-0.7-0.3-1.3-0.9-1.3-0.9c-0.2-0.2-0.4-0.4-0.7-0.4c-0.3,0-0.6,0.1-0.8,0.3c-0.5,0.5-1.1,0.9-1.7,1.2
						c-0.5,0.2-0.8,0.7-0.6,1.4c0.2,0.5,0.7,0.8,1.4,0.6c0.6-0.2,1.1-0.5,1.8-0.9c0.6,0.5,1.6,1.2,2.8,1.2c1.1,0.1,2.3-0.3,3.4-1.2
						c0.6,0.5,1.6,1.2,2.8,1.2c1.1,0.1,2.3-0.3,3.4-1.2c0.6,0.5,1.6,1.2,2.8,1.2c1.1,0.1,2.3-0.3,3.4-1.2c0.6,0.5,1.6,1.2,2.8,1.2
						h0.3c1,0,2.1-0.4,3.1-1.2c0.4,0.3,1,0.7,1.8,0.9c0.5,0.2,1.1-0.1,1.3-0.7c0.2-0.5-0.1-1.2-0.7-1.3c-0.9-0.3-1.6-1-1.6-1
						c-0.2-0.2-0.4-0.4-0.7-0.4c-0.3,0-0.6,0.1-0.8,0.3c-0.4,0.4-0.9,0.7-1.4,0.9v-0.2L218.9,157.8z M200,146.9c2.2,2,5.1,3,8.4,3
						c3.1,0,6.1-1.2,8.4-3.1v5.8H200V146.9z M215.6,158.2c-0.2-0.2-0.4-0.4-0.7-0.4c-0.3,0-0.6,0.1-0.8,0.3
						c-0.8,0.8-1.8,1.3-2.6,1.3c-1.3-0.1-2.1-1.2-2.1-1.2c-0.2-0.2-0.4-0.4-0.7-0.4c-0.3,0-0.6,0.1-0.8,0.3
						c-0.8,0.8-1.8,1.3-2.6,1.3c-1.3-0.1-2.1-1.2-2.1-1.2c-0.2-0.2-0.4-0.4-0.7-0.4c-0.3,0-0.6,0.1-0.8,0.3
						c-0.4,0.4-0.9,0.7-1.4,0.9v-0.2v-1v-3.1H217v3.1v1v0.3C216.1,158.8,215.6,158.2,215.6,158.2"/>
				</g>
			</g>
		</g>
	</g>
</g>
<g id="Artwork_11_1_">
	<g>
		<g>
			<defs>
				<rect id="SVGID_7_" x="1.5" y="165.8" width="50.1" height="50.3"/>
			</defs>
			<clipPath id="SVGID_8_">
				<use xlink:href="#SVGID_7_"  style="overflow:visible;"/>
			</clipPath>
			<g class="st6">
				<g>
					<defs>
						<rect id="SVGID_9_" x="1.5" y="165.8" width="50.1" height="50.3"/>
					</defs>
					<clipPath id="SVGID_10_">
						<use xlink:href="#SVGID_9_"  style="overflow:visible;"/>
					</clipPath>
					<path class="st7" d="M39.1,190.9c0,6.9-5.6,12.6-12.5,12.6c-2.6,0-5.2-0.8-7.3-2.4v2.4c0,0.6-0.4,1-1,1s-1-0.4-1-1v-5.2
						c0-0.6,0.4-1,1-1h5.2c0.6,0,1,0.4,1,1s-0.4,1-1,1h-3.1c1.8,1.4,4,2.1,6.3,2.1c5.7,0,10.4-4.7,10.4-10.5c0-0.6,0.4-1,1-1
						C38.7,189.9,39.1,190.3,39.1,190.9 M26.6,180.4c2.3,0,4.5,0.7,6.3,2.1h-3.1c-0.6,0-1,0.4-1,1s0.4,1,1,1H35c0.6,0,1-0.4,1-1
						v-5.2c0-0.6-0.4-1-1-1s-1,0.4-1,1v2.4c-2.1-1.6-4.7-2.4-7.3-2.4c-6.9,0-12.5,5.7-12.5,12.6c0,0.6,0.4,1,1,1s1-0.4,1-1
						C16.1,185.2,20.8,180.4,26.6,180.4"/>
				</g>
				<g>
					<defs>
						<rect id="SVGID_11_" x="1.5" y="165.8" width="50.1" height="50.3"/>
					</defs>
					<clipPath id="SVGID_12_">
						<use xlink:href="#SVGID_11_"  style="overflow:visible;"/>
					</clipPath>
					<path class="st8" d="M26.6,167.9c12.6,0,23,10.4,23,23.1s-10.4,23-23,23s-23-10.4-23-23.1S14,167.9,26.6,167.9 M26.6,165.8
						C12.7,165.8,1.5,177,1.5,191s11.2,25.2,25.1,25.2S51.7,205,51.7,191S40.5,165.8,26.6,165.8"/>
				</g>
			</g>
		</g>
	</g>
</g>
<g id="Artwork_12_1_">
	<g>
		<g>
			<defs>
				<rect id="SVGID_13_" x="17.4" y="28.8" width="50.1" height="50.3"/>
			</defs>
			<clipPath id="SVGID_14_">
				<use xlink:href="#SVGID_13_"  style="overflow:visible;"/>
			</clipPath>
			<g class="st9">
				<g>
					<defs>
						<rect id="SVGID_15_" x="17.4" y="28.8" width="50.1" height="50.3"/>
					</defs>
					<clipPath id="SVGID_16_">
						<use xlink:href="#SVGID_15_"  style="overflow:visible;"/>
					</clipPath>
					<path class="st10" d="M28.9,62.3v2.1c0,0.6-0.4,1-1,1s-1-0.4-1-1v-2.1c0-0.6,0.4-1,1-1S28.9,61.7,28.9,62.3 M32,59.2
						c-0.6,0-1,0.4-1,1v4.2c0,0.6,0.4,1,1,1s1-0.4,1-1v-4.2C33.1,59.6,32.6,59.2,32,59.2 M36.2,56.1c-0.6,0-1,0.4-1,1v7.3
						c0,0.6,0.4,1,1,1s1-0.4,1-1v-7.3C37.2,56.5,36.8,56.1,36.2,56.1 M40.4,55c-0.6,0-1,0.4-1,1v8.4c0,0.6,0.4,1,1,1s1-0.4,1-1V56
						C41.4,55.4,41,55,40.4,55 M44.5,55c-0.6,0-1,0.4-1,1v8.4c0,0.6,0.4,1,1,1s1-0.4,1-1V56C45.6,55.4,45.2,55,44.5,55 M48.7,51.9
						c-0.6,0-1,0.4-1,1v11.5c0,0.6,0.4,1,1,1s1-0.4,1-1V52.9C49.8,52.3,49.3,51.9,48.7,51.9 M52.9,48.7c-0.6,0-1,0.4-1,1v14.7
						c0,0.6,0.4,1,1,1s1-0.4,1-1V49.8C53.9,49.1,53.5,48.7,52.9,48.7 M55.9,40.9c-0.1-0.2-0.3-0.4-0.5-0.5c-0.1-0.1-0.3-0.1-0.4-0.1
						h-4.2c-0.6,0-1,0.4-1,1s0.4,1,1,1h1.7l-8.4,8.5h-7.9c-0.2,0-0.4,0.1-0.6,0.2l-8.4,6.3c-0.4,0.3-0.5,1-0.2,1.5
						c0.2,0.3,0.5,0.4,0.8,0.4c0.2,0,0.4-0.1,0.6-0.2l8-6.1h8c0.3,0,0.5-0.1,0.7-0.3l8.7-8.7v1.7c0,0.6,0.4,1,1,1s1-0.4,1-1v-4.2
						C56,41.3,56,41.1,55.9,40.9"/>
				</g>
				<g>
					<defs>
						<rect id="SVGID_17_" x="17.4" y="28.8" width="50.1" height="50.3"/>
					</defs>
					<clipPath id="SVGID_18_">
						<use xlink:href="#SVGID_17_"  style="overflow:visible;"/>
					</clipPath>
					<path class="st11" d="M42.5,30.9c12.6,0,23,10.4,23,23.1s-10.4,23-23,23s-23-10.4-23-23.1S29.8,30.9,42.5,30.9 M42.5,28.8
						C28.6,28.8,17.4,40,17.4,54s11.2,25.2,25.1,25.2s25-11.3,25-25.2S56.3,28.8,42.5,28.8"/>
				</g>
			</g>
		</g>
	</g>
</g>
</svg>
