<?xml version="1.0" encoding="UTF-8"?>
<svg width="44px" height="44px" viewBox="0 0 44 44" version="1.1" xmlns="http://www.w3.org/2000/svg" xmlns:xlink="http://www.w3.org/1999/xlink">
    <!-- Generator: Sketch 55.2 (78181) - https://sketchapp.com -->
    <title>Group</title>
    <desc>Created with Sketch.</desc>
    <defs>
        <polygon id="path-1" points="7.29830657e-05 0.172877333 25.9981616 0.172877333 25.9981616 26 7.29830657e-05 26"></polygon>
    </defs>
    <g id="Page-1" stroke="none" stroke-width="1" fill="none" fill-rule="evenodd">
        <g id="Desktop-HD" transform="translate(-218.000000, -195.000000)">
            <g id="Group" transform="translate(218.693512, 195.693512)">
                <!--<path d="M1,21.2247191 C1,10.055229 10.0550112,1 21.2247191,1 C32.395236,1 41.4494382,10.055229 41.4494382,21.2247191 C41.4494382,32.3942092 32.395236,41.4494382 21.2247191,41.4494382 C10.0550112,41.4494382 1,32.3942092 1,21.2247191 Z" id="Stroke-45" stroke="#2D2D2D" stroke-width="2" fill="#FFFFFF" transform="translate(21.224719, 21.224719) rotate(2.000000) translate(-21.224719, -21.224719) "></path>-->
                <g id="Group-10" transform="translate(7.966292, 9.303371)">
                    <g id="Group-3">
                        <mask id="mask-2" fill="white">
                            <use xlink:href="#path-1"></use>
                        </mask>
                        <g id="Clip-2"></g>
                        <path d="M24.4672343,12.4059394 C24.3443253,12.5099394 24.1825475,12.555899 24.023396,12.532 L19.4799616,11.9410909 L19.4274364,11.9410909 C19.2351939,11.8980202 19.0778808,11.7606667 19.0098606,11.5760404 C19.0019818,11.5555556 18.9933152,11.5353333 18.983598,11.5156364 L18.0168707,9.53806061 C17.8582444,9.21214141 17.4650929,9.07688889 17.1391737,9.23577778 C17.0204667,9.29381818 16.9217192,9.38626263 16.8563253,9.50129293 L14.9496586,12.8392727 C14.8411939,13.0362424 14.8411939,13.2752323 14.9496586,13.472202 L17.0191535,17.3695758 C17.0364869,17.4029293 17.0567091,17.4344444 17.0795576,17.4641212 C17.2610323,17.7104646 17.2922848,18.0363838 17.1609717,18.312404 L14.4585475,24.1902424 C14.3020222,24.5198384 13.9553556,24.7165455 13.5918808,24.6810909 L13.4947091,24.6653333 C13.3578808,24.6340808 13.2310323,24.57 13.1244061,24.4788687 C12.8384061,24.2075758 12.7627697,23.781596 12.9379414,23.4283636 L15.2227899,18.4384646 C15.3252141,18.2144444 15.2939616,17.9518182 15.1413758,17.7582626 L11.8821838,13.6113939 C11.1497192,12.6877374 11.0591131,11.4095354 11.653699,10.391596 L13.9044061,6.94331313 C14.1058404,6.64181818 14.0246889,6.23422222 13.7234566,6.03252525 C13.7032343,6.01913131 13.6819616,6.00652525 13.6601636,5.99523232 L11.454103,4.83967677 C11.2004061,4.70705051 10.8902444,4.75379798 10.6872343,4.95523232 L7.97693131,7.63139394 C7.83406263,7.77242424 7.62895152,7.8309899 7.43329495,7.78634343 C7.31248687,7.75929293 7.20402222,7.69389899 7.12339596,7.59987879 C6.92406263,7.34618182 6.95505253,6.98139394 7.19430505,6.76472727 L10.4193556,3.58169697 C10.572204,3.42963636 10.7972747,3.37606061 11.0023859,3.44250505 L11.3805677,3.56593939 C12.8168707,4.02921212 14.2082646,4.62169697 15.5379414,5.3360404 C16.1480222,5.66773737 16.905699,5.54220202 17.3763253,5.03139394 C17.6163657,4.77270707 17.7038202,4.40713131 17.6074364,4.06755556 C17.5008101,3.67624242 17.5134162,3.26181818 17.644204,2.87785859 C17.9617192,1.97494949 18.855699,1.40636364 19.8082444,1.50169697 C20.9325475,1.6269697 21.7424869,2.64018182 21.6169515,3.76448485 C21.6085475,3.84169697 21.5954162,3.91838384 21.5783455,3.9940202 C21.3472343,4.99226263 20.4133354,5.66589899 19.3932949,5.56977778 L19.1569313,5.52250505 C18.6463859,5.42034343 18.149497,5.75151515 18.047598,6.26206061 C17.9871939,6.56381818 18.0778,6.87581818 18.290002,7.09826263 C18.5161232,7.33331313 18.6944465,7.60985859 18.8152545,7.91240404 L19.8657596,10.4730101 C19.9550525,10.6928283 20.1559616,10.8475152 20.3910121,10.8774545 L24.1334364,11.3633131 C24.4564667,11.3969293 24.701497,11.6692727 24.7009726,11.9936162 C24.6883657,12.1585455 24.6048505,12.3098182 24.4724869,12.4085657 L24.4672343,12.4059394 Z M7.39652727,17.7661414 L7.34400202,17.8081616 C7.13967879,17.9922626 6.85761818,18.0639596 6.59026465,17.9998788 L6.49046667,17.9709899 L1.87612323,16.2875556 C1.6507899,16.2050909 1.47062828,16.0317576 1.3797596,15.8095758 C1.28573939,15.5863434 1.29361818,15.3334343 1.4007697,15.1162424 C1.61691111,14.720202 2.0927899,14.5450303 2.51430505,14.7065455 L6.21208283,16.0538182 C6.44161818,16.137596 6.69846667,16.0869091 6.87915354,15.9225051 L10.1120828,12.9705859 C10.2623051,13.4966263 10.513901,13.988 10.8526889,14.4176566 L11.2571333,14.9429091 L7.39652727,17.7661414 Z M24.293901,10.0659394 L20.9322848,9.6299798 L20.0367293,7.42654545 C19.9629313,7.24507071 19.8749515,7.06937374 19.774103,6.90129293 C21.6306081,6.79676768 23.0506283,5.20656566 22.9458404,3.35032323 C22.8413152,1.49355556 21.2513758,0.0735353535 19.3948707,0.178323232 C17.538103,0.283111111 16.1180828,1.87305051 16.2228707,3.72929293 C16.2320626,3.8889697 16.2522848,4.04759596 16.2838,4.20412121 C16.2409919,4.20806061 16.1979212,4.19886869 16.1603657,4.17785859 C14.7600424,3.42727273 13.2948505,2.80511111 11.7823859,2.31846465 L11.404204,2.1950303 C10.7337192,1.97757576 9.9978404,2.1530101 9.49753737,2.64937374 L6.27248687,5.82715152 C5.54422424,6.53072727 5.48460808,7.67814141 6.13592121,8.45341414 C6.82321414,9.24365657 8.0207899,9.32690909 8.81103232,8.63987879 C8.84097172,8.61361616 8.87038586,8.58656566 8.89874949,8.55846465 L11.2623859,6.22109091 L12.4048101,6.81987879 L10.5454162,9.672 L10.5296586,9.69826263 C10.2423455,10.1883232 10.0574566,10.731697 9.98602222,11.2950303 L6.28561818,14.6855354 L2.9607697,13.4748283 C1.90369899,13.0827273 0.721092929,13.5475758 0.21369899,14.5542222 C-0.0526040404,15.1052121 -0.0707252525,15.7433939 0.1638,16.3085657 C0.39569899,16.8724242 0.853981818,17.3131111 1.42703232,17.521899 L6.04137576,19.2027071 C6.28010303,19.2901616 6.53274949,19.3345455 6.78723434,19.3340202 C7.30618384,19.3358586 7.80832525,19.1491313 8.20016364,18.8087677 L12.0660222,15.9750303 L13.8623859,18.2601414 L11.7456182,22.8689697 C11.3170121,23.7595354 11.5315778,24.8263232 12.2708707,25.4823636 C12.537699,25.7129495 12.8567899,25.8755152 13.2005677,25.9548283 C13.2872343,25.9745253 13.3749515,25.9884444 13.4631939,25.9968485 C13.5409313,26.0010505 13.6189313,26.0010505 13.6969313,25.9968485 C14.5431131,25.9968485 15.3118202,25.5031111 15.6637394,24.7336162 L18.3451535,18.8639192 C18.667396,18.1621818 18.5901838,17.3422626 18.1431939,16.7130101 L16.2680424,13.1780606 L17.3868303,11.2214949 L17.7965273,12.0592727 C18.0252747,12.6438788 18.5289919,13.0766869 19.1411737,13.2148283 C19.2015778,13.2279596 19.2619818,13.2384646 19.3171333,13.2463434 L23.8474364,13.8346263 C24.3671737,13.9105253 24.8950525,13.7626667 25.2997596,13.4275556 C25.7057798,13.1003232 25.957901,12.6189293 25.9957192,12.0986667 C26.0464061,11.0807273 25.3047495,10.1951515 24.293901,10.0659394 L24.293901,10.0659394 Z" id="Fill-1" fill="#2D2D2D" mask="url(#mask-2)"></path>
                    </g>
                    <path d="M0.683526999,7 L3.316473,7 C3.69405332,7 4,6.7762 4,6.5 C4,6.224 3.69405332,6 3.316473,6 L0.683526999,6 C0.305946685,6 0,6.224 0,6.5 C0,6.7762 0.305946685,7 0.683526999,7" id="Fill-4" fill="#2D2D2D"></path>
                    <path d="M2.683527,4 L5.316473,4 C5.69405332,4 6,3.7762 6,3.5 C6,3.2238 5.69405332,3 5.316473,3 L2.683527,3 C2.30594668,3 2,3.2238 2,3.5 C2,3.7762 2.30594668,4 2.683527,4" id="Fill-6" fill="#2D2D2D"></path>
                    <path d="M2,10.5 C2,10.7762 2.30594668,11 2.683527,11 L5.316473,11 C5.69405332,11 6,10.7762 6,10.5 C6,10.2238 5.69405332,10 5.316473,10 L2.683527,10 C2.30594668,10 2,10.2238 2,10.5" id="Fill-8" fill="#2D2D2D"></path>
                </g>
            </g>
        </g>
    </g>
</svg>