<?xml version="1.0" encoding="utf-8"?>
<!-- Generator: Adobe Illustrator 24.0.1, SVG Export Plug-In . SVG Version: 6.00 Build 0)  -->
<svg version="1.1" id="Bridge_water_2" xmlns="http://www.w3.org/2000/svg" xmlns:xlink="http://www.w3.org/1999/xlink" x="0px"
	 y="0px" viewBox="0 0 52 52" style="enable-background:new 0 0 52 52;" xml:space="preserve">
<style type="text/css">
	.st0{fill:#86BC25;}
</style>
<path class="st0" d="M26,25.5c3,0,5.8-1.1,8-3V28H18v-5.4C20.1,24.5,22.9,25.5,26,25.5z M18,32v2v0.2c0.4-0.2,0.9-0.5,1.3-0.9
	c0.2-0.2,0.5-0.3,0.8-0.3s0.5,0.2,0.7,0.4c0,0,0.9,1,2,1.1c0.8,0,1.6-0.4,2.5-1.2c0.2-0.2,0.5-0.3,0.8-0.3s0.5,0.2,0.7,0.4
	c0,0,0.9,1,2,1.1c0.8,0,1.6-0.4,2.5-1.2c0.2-0.2,0.5-0.3,0.8-0.3s0.5,0.2,0.7,0.4c0,0,0.5,0.6,1.2,0.9V34v-1v-3H18V32z M50,26
	c0,13.3-10.7,24-24,24S2,39.3,2,26S12.7,2,26,2S50,12.7,50,26z M36,28v-5.5c1,0.9,2.2,1.6,3.6,2.2c0.1,0,0.2,0.1,0.4,0.1
	c0.4,0,0.8-0.2,0.9-0.6c0.2-0.5-0.1-1.1-0.6-1.3C38.5,22.1,37,21,36,19.6V18c0-0.6-0.4-1-1-1s-1,0.4-1,1v1.6c-1.9,2.4-4.9,3.9-8,3.9
	c-3.3,0-6.2-1.4-8-3.8V18c0-0.6-0.4-1-1-1s-1,0.4-1,1v1.6c-1.1,1.4-2.6,2.5-4.4,3.2c-0.5,0.2-0.8,0.8-0.6,1.3
	c0.2,0.4,0.5,0.6,0.9,0.6c0.1,0,0.2,0,0.4-0.1c1.3-0.5,2.6-1.3,3.6-2.2V28h-4c-0.6,0-1,0.4-1,1s0.4,1,1,1h4v2v2v0.3
	c-0.7-0.3-1.2-0.9-1.2-0.9C14.5,33.2,14.3,33,14,33s-0.6,0.1-0.8,0.3c-0.5,0.5-1.1,0.9-1.6,1.1c-0.5,0.2-0.8,0.7-0.6,1.3
	c0.2,0.5,0.7,0.8,1.3,0.6s1.1-0.5,1.7-0.9c0.6,0.5,1.5,1.1,2.7,1.1c1.1,0.1,2.2-0.3,3.3-1.1c0.6,0.5,1.5,1.1,2.7,1.1
	c1.1,0.1,2.2-0.3,3.3-1.1c0.6,0.5,1.5,1.1,2.7,1.1c1.1,0.1,2.2-0.3,3.3-1.1c0.6,0.5,1.5,1.1,2.7,1.1c0.1,0,0.2,0,0.3,0
	c1,0,2-0.4,3-1.1c0.4,0.3,1,0.7,1.7,0.9c0.5,0.2,1.1-0.1,1.2-0.7c0.2-0.5-0.1-1.1-0.7-1.2c-0.9-0.3-1.5-1-1.5-1
	C38.5,33.2,38.3,33,38,33s-0.6,0.1-0.8,0.3c-0.4,0.4-0.9,0.7-1.3,0.9V34v-1v-3h4c0.6,0,1-0.4,1-1s-0.4-1-1-1H36z"/>
</svg>
