<?xml version="1.0" encoding="utf-8"?>
<!-- Generator: Adobe Illustrator 24.0.1, SVG Export Plug-In . SVG Version: 6.00 Build 0)  -->
<svg version="1.1" id="Bar_chart_1" xmlns="http://www.w3.org/2000/svg" xmlns:xlink="http://www.w3.org/1999/xlink" x="0px"
	 y="0px" viewBox="0 0 52 52" style="enable-background:new 0 0 52 52;" xml:space="preserve">
<style type="text/css">
	.st0{fill:#86BC25;}
</style>
<path class="st0" d="M13,34v2c0,0.6-0.4,1-1,1s-1-0.4-1-1v-2c0-0.6,0.4-1,1-1S13,33.4,13,34z M16,31c-0.6,0-1,0.4-1,1v4
	c0,0.6,0.4,1,1,1s1-0.4,1-1v-4C17,31.4,16.6,31,16,31z M20,28c-0.6,0-1,0.4-1,1v7c0,0.6,0.4,1,1,1s1-0.4,1-1v-7
	C21,28.4,20.6,28,20,28z M24,27c-0.6,0-1,0.4-1,1v8c0,0.6,0.4,1,1,1s1-0.4,1-1v-8C25,27.4,24.6,27,24,27z M28,27c-0.6,0-1,0.4-1,1v8
	c0,0.6,0.4,1,1,1s1-0.4,1-1v-8C29,27.4,28.6,27,28,27z M32,24c-0.6,0-1,0.4-1,1v11c0,0.6,0.4,1,1,1c0.6,0,1-0.4,1-1V25
	C33,24.4,32.6,24,32,24z M36,21c-0.6,0-1,0.4-1,1v14c0,0.6,0.4,1,1,1s1-0.4,1-1V22C37,21.4,36.6,21,36,21z M38.9,13.6
	c-0.1-0.2-0.3-0.4-0.5-0.5C38.3,13,38.1,13,38,13h-4c-0.6,0-1,0.4-1,1s0.4,1,1,1h1.6l-8,8H20c-0.2,0-0.4,0.1-0.6,0.2l-8,6
	c-0.4,0.3-0.5,1-0.2,1.4c0.2,0.3,0.5,0.4,0.8,0.4c0.2,0,0.4-0.1,0.6-0.2l7.7-5.8H28c0.3,0,0.5-0.1,0.7-0.3l8.3-8.3V18
	c0,0.6,0.4,1,1,1s1-0.4,1-1v-4C39,13.9,39,13.7,38.9,13.6z"/>
<path class="st0" d="M26,4c12.1,0,22,9.9,22,22s-9.9,22-22,22S4,38.1,4,26S13.9,4,26,4 M26,2C12.7,2,2,12.7,2,26s10.7,24,24,24
	s24-10.7,24-24S39.3,2,26,2L26,2z"/>
</svg>
