<?xml version="1.0" encoding="utf-8"?>
<!-- Generator: Adobe Illustrator 24.0.1, SVG Export Plug-In . SVG Version: 6.00 Build 0)  -->
<svg version="1.1" id="Spin" xmlns="http://www.w3.org/2000/svg" xmlns:xlink="http://www.w3.org/1999/xlink" x="0px" y="0px"
	 viewBox="0 0 52 52" style="enable-background:new 0 0 52 52;" xml:space="preserve">
<style type="text/css">
	.st0{fill:#86BC25;}
</style>
<path class="st0" d="M26,2C12.7,2,2,12.7,2,26s10.7,24,24,24s24-10.7,24-24S39.3,2,26,2z M15,27c-0.6,0-1-0.4-1-1
	c0-6.6,5.4-12,12-12c2.5,0,5,0.8,7,2.3V14c0-0.6,0.4-1,1-1s1,0.4,1,1v5c0,0.6-0.4,1-1,1h-5c-0.6,0-1-0.4-1-1s0.4-1,1-1h3
	c-1.7-1.3-3.8-2-6-2c-5.5,0-10,4.5-10,10C16,26.6,15.6,27,15,27z M26,38c-2.5,0-5-0.8-7-2.3V38c0,0.6-0.4,1-1,1s-1-0.4-1-1v-5
	c0-0.6,0.4-1,1-1h5c0.6,0,1,0.4,1,1s-0.4,1-1,1h-3c1.7,1.3,3.8,2,6,2c5.5,0,10-4.5,10-10c0-0.6,0.4-1,1-1s1,0.4,1,1
	C38,32.6,32.6,38,26,38z"/>
</svg>
