<?xml version="1.0" encoding="utf-8"?>
<!-- Generator: Adobe Illustrator 24.0.1, SVG Export Plug-In . SVG Version: 6.00 Build 0)  -->
<svg version="1.1" id="Microchip" xmlns="http://www.w3.org/2000/svg" xmlns:xlink="http://www.w3.org/1999/xlink" x="0px" y="0px"
	 viewBox="0 0 52 52" style="enable-background:new 0 0 52 52;" xml:space="preserve">
<style type="text/css">
	.st0{fill:#002FBA;}
</style>
<path class="st0" d="M30,30h-8v-8h8V30z M17,17h18v18H17V17z M20,31c0,0.6,0.4,1,1,1h10c0.6,0,1-0.4,1-1V21c0-0.6-0.4-1-1-1H21
	c-0.6,0-1,0.4-1,1V31z M50,26c0,13.3-10.7,24-24,24S2,39.3,2,26S12.7,2,26,2S50,12.7,50,26z M37,25v-2h3c0.6,0,1-0.4,1-1s-0.4-1-1-1
	h-3v-5c0-0.6-0.4-1-1-1h-5v-3c0-0.6-0.4-1-1-1s-1,0.4-1,1v3h-2v-3c0-0.6-0.4-1-1-1s-1,0.4-1,1v3h-2v-3c0-0.6-0.4-1-1-1s-1,0.4-1,1v3
	h-5c-0.6,0-1,0.4-1,1v5h-3c-0.6,0-1,0.4-1,1s0.4,1,1,1h3v2h-3c-0.6,0-1,0.4-1,1s0.4,1,1,1h3v2h-3c-0.6,0-1,0.4-1,1s0.4,1,1,1h3v5
	c0,0.6,0.4,1,1,1h5v3c0,0.6,0.4,1,1,1s1-0.4,1-1v-3h2v3c0,0.6,0.4,1,1,1s1-0.4,1-1v-3h2v3c0,0.6,0.4,1,1,1s1-0.4,1-1v-3h5
	c0.6,0,1-0.4,1-1v-5h3c0.6,0,1-0.4,1-1s-0.4-1-1-1h-3v-2h3c0.6,0,1-0.4,1-1s-0.4-1-1-1H37z"/>
</svg>
