<?xml version="1.0" encoding="utf-8"?>
<!-- Generator: Adobe Illustrator 24.0.1, SVG Export Plug-In . SVG Version: 6.00 Build 0)  -->
<svg version="1.1" id="Telescope" xmlns="http://www.w3.org/2000/svg" xmlns:xlink="http://www.w3.org/1999/xlink" x="0px" y="0px"
	 viewBox="0 0 52 52" style="enable-background:new 0 0 52 52;" xml:space="preserve">
<style type="text/css">
	.st0{fill:#002FBA;}
</style>
<path class="st0" d="M24.2,21.6l0.7,2.6l-8.7,2.4L15.5,24L24.2,21.6z M32.7,18.6L26,20.4l1.1,3.9l6.8-1.8l-0.5-1.9L32.7,18.6z
	 M50,26c0,13.3-10.7,24-24,24S2,39.3,2,26S12.7,2,26,2S50,12.7,50,26z M40.1,22.8L38,15.1c-0.1-0.3-0.2-0.5-0.5-0.6
	c-0.2-0.1-0.5-0.2-0.8-0.1l-3.9,1.1c-0.5,0.1-0.8,0.7-0.7,1.2l-7.7,2.1c-0.4,0.1-0.7,0.5-0.7,0.9L14,22.3l-0.2-0.6
	c-0.1-0.5-0.7-0.8-1.2-0.7c-0.5,0.1-0.8,0.7-0.7,1.2l2.1,7.7c0.1,0.4,0.5,0.7,1,0.7c0.1,0,0.2,0,0.3,0c0.5-0.1,0.8-0.7,0.7-1.2
	l-0.2-0.6l9.1-2.5l-4.8,13.4c-0.2,0.5,0.1,1.1,0.6,1.3c0.1,0,0.2,0.1,0.3,0.1c0.4,0,0.8-0.3,0.9-0.7l3.1-8.6V40c0,0.6,0.4,1,1,1
	s1-0.4,1-1v-8.2l3.1,8.6c0.1,0.4,0.5,0.7,0.9,0.7c0.1,0,0.2,0,0.3-0.1c0.5-0.2,0.8-0.8,0.6-1.3l-4.8-13.3l7.1-1.9l0,0
	c0.1,0.4,0.5,0.7,1,0.7c0.1,0,0.2,0,0.3,0l3.9-1.1c0.3-0.1,0.5-0.2,0.6-0.5C40.1,23.3,40.1,23.1,40.1,22.8z M34.4,17.1l1.6,5.8
	l1.9-0.5l-1.6-5.8L34.4,17.1z"/>
</svg>
