<?xml version="1.0" encoding="utf-8"?>
<!-- Generator: Adobe Illustrator 24.0.1, SVG Export Plug-In . SVG Version: 6.00 Build 0)  -->
<svg version="1.1" id="Calculator" xmlns="http://www.w3.org/2000/svg" xmlns:xlink="http://www.w3.org/1999/xlink" x="0px" y="0px"
	 viewBox="0 0 52 52" style="enable-background:new 0 0 52 52;" xml:space="preserve">
<style type="text/css">
	.st0{fill:#002FBA;}
</style>
<path class="st0" d="M31,19H21v-2h10V19z M17,13h18v26H17V13z M25,36c0-0.6-0.4-1-1-1s-1,0.4-1,1s0.4,1,1,1S25,36.6,25,36z M25,32
	c0-0.6-0.4-1-1-1s-1,0.4-1,1c0,0.6,0.4,1,1,1S25,32.6,25,32z M25,28c0-0.6-0.4-1-1-1s-1,0.4-1,1s0.4,1,1,1S25,28.6,25,28z M25,24
	c0-0.6-0.4-1-1-1s-1,0.4-1,1s0.4,1,1,1S25,24.6,25,24z M29,36c0-0.6-0.4-1-1-1s-1,0.4-1,1s0.4,1,1,1S29,36.6,29,36z M29,32
	c0-0.6-0.4-1-1-1s-1,0.4-1,1c0,0.6,0.4,1,1,1S29,32.6,29,32z M29,28c0-0.6-0.4-1-1-1s-1,0.4-1,1s0.4,1,1,1S29,28.6,29,28z M29,24
	c0-0.6-0.4-1-1-1s-1,0.4-1,1s0.4,1,1,1S29,24.6,29,24z M33,32c0-0.6-0.4-1-1-1s-1,0.4-1,1v4c0,0.6,0.4,1,1,1c0.6,0,1-0.4,1-1V32z
	 M33,28c0-0.6-0.4-1-1-1s-1,0.4-1,1s0.4,1,1,1C32.6,29,33,28.6,33,28z M33,24c0-0.6-0.4-1-1-1s-1,0.4-1,1s0.4,1,1,1
	C32.6,25,33,24.6,33,24z M19,20c0,0.6,0.4,1,1,1h12c0.6,0,1-0.4,1-1v-4c0-0.6-0.4-1-1-1H20c-0.6,0-1,0.4-1,1V20z M19,24
	c0,0.6,0.4,1,1,1s1-0.4,1-1s-0.4-1-1-1S19,23.4,19,24z M19,28c0,0.6,0.4,1,1,1s1-0.4,1-1s-0.4-1-1-1S19,27.4,19,28z M19,32
	c0,0.6,0.4,1,1,1s1-0.4,1-1c0-0.6-0.4-1-1-1S19,31.4,19,32z M19,36c0,0.6,0.4,1,1,1s1-0.4,1-1s-0.4-1-1-1S19,35.4,19,36z M50,26
	c0,13.3-10.7,24-24,24S2,39.3,2,26S12.7,2,26,2S50,12.7,50,26z M37,12c0-0.6-0.4-1-1-1H16c-0.6,0-1,0.4-1,1v28c0,0.6,0.4,1,1,1h20
	c0.6,0,1-0.4,1-1V12z"/>
</svg>
