<?xml version="1.0" encoding="utf-8"?>
<!-- Generator: Adobe Illustrator 24.0.1, SVG Export Plug-In . SVG Version: 6.00 Build 0)  -->
<svg version="1.1" id="Telescope" xmlns="http://www.w3.org/2000/svg" xmlns:xlink="http://www.w3.org/1999/xlink" x="0px" y="0px"
	 viewBox="0 0 52 52" style="enable-background:new 0 0 52 52;" xml:space="preserve">
<style type="text/css">
	.st0{fill:#002FBA;}
</style>
<path class="st0" d="M26,4c12.1,0,22,9.9,22,22s-9.9,22-22,22S4,38.1,4,26S13.9,4,26,4 M26,2C12.7,2,2,12.7,2,26s10.7,24,24,24
	s24-10.7,24-24S39.3,2,26,2L26,2z"/>
<path class="st0" d="M40.1,22.8L38,15.1c-0.1-0.3-0.2-0.5-0.5-0.6c-0.2-0.1-0.5-0.2-0.8-0.1l-3.9,1.1c-0.5,0.1-0.8,0.7-0.7,1.2
	l-7.7,2.1c-0.4,0.1-0.7,0.5-0.7,0.9L14,22.3l-0.2-0.6c-0.1-0.5-0.7-0.8-1.2-0.7c-0.5,0.1-0.8,0.7-0.7,1.2l2.1,7.7
	c0.1,0.4,0.5,0.7,1,0.7c0.1,0,0.2,0,0.3,0c0.5-0.1,0.8-0.7,0.7-1.2l-0.2-0.6l0,0l9.1-2.5l-4.8,13.4c-0.2,0.5,0.1,1.1,0.6,1.3
	c0.1,0,0.2,0.1,0.3,0.1c0.4,0,0.8-0.3,0.9-0.7l3.1-8.6V40c0,0.6,0.4,1,1,1s1-0.4,1-1v-8.2l3.1,8.6c0.1,0.4,0.5,0.7,0.9,0.7
	c0.1,0,0.2,0,0.3-0.1c0.5-0.2,0.8-0.8,0.6-1.3l-4.8-13.3l7.1-1.9l0,0c0.1,0.4,0.5,0.7,1,0.7c0.1,0,0.2,0,0.3,0l3.9-1.1
	c0.3-0.1,0.5-0.2,0.6-0.5C40.1,23.3,40.1,23.1,40.1,22.8z M15.5,24l8.7-2.4l0.7,2.6l-8.7,2.4L15.5,24z M27,24.3l-1-3.9l6.8-1.8
	l0.5,1.9l0.5,1.9L27,24.3z M36,22.9l-1.6-5.8l1.9-0.5l1.6,5.8L36,22.9z"/>
</svg>
