<?xml version="1.0" encoding="utf-8"?>
<!-- Generator: Adobe Illustrator 24.0.1, SVG Export Plug-In . SVG Version: 6.00 Build 0)  -->
<svg version="1.1" id="Submit_RFP" xmlns="http://www.w3.org/2000/svg" xmlns:xlink="http://www.w3.org/1999/xlink" x="0px" y="0px"
	 viewBox="0 0 52 52" style="enable-background:new 0 0 52 52;" xml:space="preserve">
<style type="text/css">
	.st0{fill:#002FBA;}
</style>
<g>
	<path class="st0" d="M34,22c0,0.1,0,0.3-0.1,0.4C32.7,25.2,29.5,27,26,27s-6.6-1.8-7.9-4.6C18,22.3,18,22.1,18,22v-5h-3v20h22V17
		h-3V22z M34,35H18c-0.6,0-1-0.4-1-1s0.4-1,1-1h16c0.6,0,1,0.4,1,1S34.6,35,34,35z M35,30c0,0.6-0.4,1-1,1H18c-0.6,0-1-0.4-1-1
		s0.4-1,1-1h16C34.6,29,35,29.4,35,30z"/>
	<path class="st0" d="M26,25c2.6,0,5.1-1.3,6-3.2V14H20v7.8C20.8,23.4,23,25,26,25z M22.3,18.3c0.4-0.4,1-0.4,1.4,0l1.3,1.3V17
		c0-0.6,0.4-1,1-1s1,0.4,1,1v2.6l1.3-1.3c0.4-0.4,1-0.4,1.4,0s0.4,1,0,1.4l-3,3C26.5,22.9,26.3,23,26,23s-0.5-0.1-0.7-0.3l-3-3
		C21.9,19.3,21.9,18.7,22.3,18.3z"/>
	<path class="st0" d="M26,2C12.7,2,2,12.7,2,26s10.7,24,24,24s24-10.7,24-24S39.3,2,26,2z M39,38c0,0.6-0.4,1-1,1H14
		c-0.6,0-1-0.4-1-1V16c0-0.6,0.4-1,1-1h4v-2c0-0.6,0.4-1,1-1h14c0.6,0,1,0.4,1,1v2h4c0.6,0,1,0.4,1,1V38z"/>
</g>
</svg>
