<?xml version="1.0" encoding="utf-8"?>
<!-- Generator: Adobe Illustrator 24.0.1, SVG Export Plug-In . SVG Version: 6.00 Build 0)  -->
<svg version="1.1" id="Navigation_1" xmlns="http://www.w3.org/2000/svg" xmlns:xlink="http://www.w3.org/1999/xlink" x="0px"
	 y="0px" viewBox="0 0 52 52" style="enable-background:new 0 0 52 52;" xml:space="preserve">
<style type="text/css">
	.st0{fill:#002FBA;}
</style>
<g>
	<path class="st0" d="M26,11L26,11L26,11c-6.1,0-11,4.9-11,11c0,2.1,0.4,3.7,1.5,5.6l8.6,13c0.2,0.3,0.5,0.4,0.8,0.4l0,0l0,0
		c0.3,0,0.6-0.2,0.8-0.4l8.6-13.1c1.1-1.8,1.5-3.4,1.5-5.5C37,15.9,32.1,11,26,11z M33.8,26.4L26,38.2l-7.8-11.7
		C17.3,25,17,23.7,17,22c0-5,4-9,9-9l0,0l0,0c5,0,9,4,9,9C35,23.7,34.6,25,33.8,26.4z"/>
	<path class="st0" d="M26,17c-2.8,0-5,2.2-5,5s2.2,5,5,5s5-2.2,5-5S28.8,17,26,17z M26,25c-1.7,0-3-1.3-3-3s1.3-3,3-3s3,1.3,3,3
		S27.7,25,26,25z"/>
</g>
<path class="st0" d="M26,4c12.1,0,22,9.9,22,22s-9.9,22-22,22S4,38.1,4,26S13.9,4,26,4 M26,2C12.7,2,2,12.7,2,26s10.7,24,24,24
	s24-10.7,24-24S39.3,2,26,2L26,2z"/>
</svg>
