<?xml version="1.0" encoding="utf-8"?>
<!-- Generator: Adobe Illustrator 24.0.1, SVG Export Plug-In . SVG Version: 6.00 Build 0)  -->
<svg version="1.1" id="Submit_RFP" xmlns="http://www.w3.org/2000/svg" xmlns:xlink="http://www.w3.org/1999/xlink" x="0px" y="0px"
	 viewBox="0 0 52 52" style="enable-background:new 0 0 52 52;" xml:space="preserve">
<style type="text/css">
	.st0{fill:#002FBA;}
</style>
<path class="st0" d="M38,15h-4v-2c0-0.6-0.4-1-1-1H19c-0.6,0-1,0.4-1,1v2h-4c-0.6,0-1,0.4-1,1v22c0,0.6,0.4,1,1,1h24
	c0.6,0,1-0.4,1-1V16C39,15.4,38.6,15,38,15z M20,14h12v7.8c-1,1.9-3.4,3.2-6,3.2c-3,0-5.1-1.6-6-3.2V14z M37,37H15V17h3v5
	c0,0.1,0,0.3,0.1,0.4c1.2,2.7,4.4,4.6,7.9,4.6s6.7-1.8,7.9-4.6C34,22.3,34,22.1,34,22v-5h3V37z M22.3,19.7c-0.4-0.4-0.4-1,0-1.4
	s1-0.4,1.4,0l1.3,1.3V17c0-0.6,0.4-1,1-1s1,0.4,1,1v2.6l1.3-1.3c0.4-0.4,1-0.4,1.4,0s0.4,1,0,1.4l-3,3C26.5,22.9,26.3,23,26,23
	s-0.5-0.1-0.7-0.3L22.3,19.7z M35,30c0,0.6-0.4,1-1,1H18c-0.6,0-1-0.4-1-1s0.4-1,1-1h16C34.6,29,35,29.4,35,30z M35,34
	c0,0.6-0.4,1-1,1H18c-0.6,0-1-0.4-1-1s0.4-1,1-1h16C34.6,33,35,33.4,35,34z"/>
<path class="st0" d="M26,4c12.1,0,22,9.9,22,22s-9.9,22-22,22S4,38.1,4,26S13.9,4,26,4 M26,2C12.7,2,2,12.7,2,26s10.7,24,24,24
	s24-10.7,24-24S39.3,2,26,2L26,2z"/>
</svg>
