<?xml version="1.0" encoding="utf-8"?>
<!-- Generator: Adobe Illustrator 24.0.1, SVG Export Plug-In . SVG Version: 6.00 Build 0)  -->
<svg version="1.1" id="Calculator" xmlns="http://www.w3.org/2000/svg" xmlns:xlink="http://www.w3.org/1999/xlink" x="0px" y="0px"
	 viewBox="0 0 52 52" style="enable-background:new 0 0 52 52;" xml:space="preserve">
<style type="text/css">
	.st0{fill:#002FBA;}
</style>
<path class="st0" d="M36,11H16c-0.6,0-1,0.4-1,1v28c0,0.6,0.4,1,1,1h20c0.6,0,1-0.4,1-1V12C37,11.4,36.6,11,36,11z M35,39H17V13h18
	V39z M20,21h12c0.6,0,1-0.4,1-1v-4c0-0.6-0.4-1-1-1H20c-0.6,0-1,0.4-1,1v4C19,20.6,19.4,21,20,21z M21,17h10v2H21V17z M19,24
	c0-0.6,0.4-1,1-1s1,0.4,1,1s-0.4,1-1,1S19,24.6,19,24z M25,24c0,0.6-0.4,1-1,1s-1-0.4-1-1s0.4-1,1-1S25,23.4,25,24z M29,24
	c0,0.6-0.4,1-1,1s-1-0.4-1-1s0.4-1,1-1S29,23.4,29,24z M33,24c0,0.6-0.4,1-1,1s-1-0.4-1-1s0.4-1,1-1C32.6,23,33,23.4,33,24z M19,28
	c0-0.6,0.4-1,1-1s1,0.4,1,1s-0.4,1-1,1S19,28.6,19,28z M25,28c0,0.6-0.4,1-1,1s-1-0.4-1-1s0.4-1,1-1S25,27.4,25,28z M29,28
	c0,0.6-0.4,1-1,1s-1-0.4-1-1s0.4-1,1-1S29,27.4,29,28z M33,28c0,0.6-0.4,1-1,1s-1-0.4-1-1s0.4-1,1-1C32.6,27,33,27.4,33,28z M19,32
	c0-0.6,0.4-1,1-1s1,0.4,1,1c0,0.6-0.4,1-1,1S19,32.6,19,32z M25,32c0,0.6-0.4,1-1,1s-1-0.4-1-1c0-0.6,0.4-1,1-1S25,31.4,25,32z
	 M29,32c0,0.6-0.4,1-1,1s-1-0.4-1-1c0-0.6,0.4-1,1-1S29,31.4,29,32z M33,32v4c0,0.6-0.4,1-1,1s-1-0.4-1-1v-4c0-0.6,0.4-1,1-1
	C32.6,31,33,31.4,33,32z M19,36c0-0.6,0.4-1,1-1s1,0.4,1,1s-0.4,1-1,1S19,36.6,19,36z M25,36c0,0.6-0.4,1-1,1s-1-0.4-1-1s0.4-1,1-1
	S25,35.4,25,36z M29,36c0,0.6-0.4,1-1,1s-1-0.4-1-1s0.4-1,1-1S29,35.4,29,36z"/>
<path class="st0" d="M26,4c12.1,0,22,9.9,22,22s-9.9,22-22,22S4,38.1,4,26S13.9,4,26,4 M26,2C12.7,2,2,12.7,2,26s10.7,24,24,24
	s24-10.7,24-24S39.3,2,26,2L26,2z"/>
</svg>
