<?xml version="1.0" encoding="utf-8"?>
<!-- Generator: Adobe Illustrator 24.0.1, SVG Export Plug-In . SVG Version: 6.00 Build 0)  -->
<svg version="1.1" id="Microchip" xmlns="http://www.w3.org/2000/svg" xmlns:xlink="http://www.w3.org/1999/xlink" x="0px" y="0px"
	 viewBox="0 0 52 52" style="enable-background:new 0 0 52 52;" xml:space="preserve">
<style type="text/css">
	.st0{fill:#002FBA;}
</style>
<g>
	<path class="st0" d="M40,27c0.6,0,1-0.4,1-1s-0.4-1-1-1h-3v-2h3c0.6,0,1-0.4,1-1s-0.4-1-1-1h-3v-5c0-0.6-0.4-1-1-1h-5v-3
		c0-0.6-0.4-1-1-1s-1,0.4-1,1v3h-2v-3c0-0.6-0.4-1-1-1s-1,0.4-1,1v3h-2v-3c0-0.6-0.4-1-1-1s-1,0.4-1,1v3h-5c-0.6,0-1,0.4-1,1v5h-3
		c-0.6,0-1,0.4-1,1s0.4,1,1,1h3v2h-3c-0.6,0-1,0.4-1,1s0.4,1,1,1h3v2h-3c-0.6,0-1,0.4-1,1s0.4,1,1,1h3v5c0,0.6,0.4,1,1,1h5v3
		c0,0.6,0.4,1,1,1s1-0.4,1-1v-3h2v3c0,0.6,0.4,1,1,1s1-0.4,1-1v-3h2v3c0,0.6,0.4,1,1,1s1-0.4,1-1v-3h5c0.6,0,1-0.4,1-1v-5h3
		c0.6,0,1-0.4,1-1s-0.4-1-1-1h-3v-2H40z M35,35H17V17h18V35z"/>
	<path class="st0" d="M31,20H21c-0.6,0-1,0.4-1,1v10c0,0.6,0.4,1,1,1h10c0.6,0,1-0.4,1-1V21C32,20.4,31.6,20,31,20z M30,30h-8v-8h8
		V30z"/>
</g>
<path class="st0" d="M26,4c12.1,0,22,9.9,22,22s-9.9,22-22,22S4,38.1,4,26S13.9,4,26,4 M26,2C12.7,2,2,12.7,2,26s10.7,24,24,24
	s24-10.7,24-24S39.3,2,26,2L26,2z"/>
</svg>
