<?xml version="1.0" encoding="utf-8"?>
<!-- Generator: Adobe Illustrator 24.0.1, SVG Export Plug-In . SVG Version: 6.00 Build 0)  -->
<svg version="1.1" id="Navigation_1" xmlns="http://www.w3.org/2000/svg" xmlns:xlink="http://www.w3.org/1999/xlink" x="0px"
	 y="0px" viewBox="0 0 52 52" style="enable-background:new 0 0 52 52;" xml:space="preserve">
<style type="text/css">
	.st0{fill:#002FBA;}
</style>
<path class="st0" d="M29,22c0,1.7-1.3,3-3,3s-3-1.3-3-3s1.3-3,3-3S29,20.3,29,22z M35,22c0,1.7-0.3,3-1.2,4.4L26,38.2l-7.8-11.7
	C17.3,25,17,23.7,17,22c0-5,4-9,9-9l0,0l0,0C31,13,35,17,35,22z M31,22c0-2.8-2.2-5-5-5s-5,2.2-5,5s2.2,5,5,5S31,24.8,31,22z M50,26
	c0,13.3-10.7,24-24,24S2,39.3,2,26S12.7,2,26,2S50,12.7,50,26z M37,22c0-6.1-4.9-11-11-11l0,0l0,0c-6.1,0-11,4.9-11,11
	c0,2.1,0.4,3.7,1.5,5.6l8.6,13c0.2,0.3,0.5,0.4,0.8,0.4l0,0l0,0c0.3,0,0.6-0.2,0.8-0.4l8.6-13.1C36.5,25.7,37,24.1,37,22z"/>
</svg>
