<?xml version="1.0" encoding="utf-8"?>
<!-- Generator: Adobe Illustrator 24.0.1, SVG Export Plug-In . SVG Version: 6.00 Build 0)  -->
<svg version="1.1" id="Layer_1" xmlns="http://www.w3.org/2000/svg" xmlns:xlink="http://www.w3.org/1999/xlink" x="0px" y="0px"
	 viewBox="0 0 305 254" style="enable-background:new 0 0 305 254;" xml:space="preserve">
<style type="text/css">
	.st0{fill-rule:evenodd;clip-rule:evenodd;fill:#C6D70C;fill-opacity:0.2;}
	.st1{fill-rule:evenodd;clip-rule:evenodd;fill:#C6D70C;}
	.st2{fill:#C4D600;}
	.st3{fill-rule:evenodd;clip-rule:evenodd;fill:#C4D600;}
	.st4{fill:none;}
	.st5{font-family:'Open Sans Semibold';}
	.st6{font-size:10px;}
	.st7{font-size:9px;}
</style>
<title>Deliver - wheel</title>
<desc>Created with Sketch.</desc>
<g id="Deliver---wheel" transform="translate(44.325843, 319.000000)">
	<circle id="Oval-Copy-6" class="st0" cx="85.7" cy="-175.4" r="55"/>
	<circle id="Oval-Copy-7" class="st1" cx="85.7" cy="-175.4" r="40"/>
	<path id="Stroke-1" class="st2" d="M174.5-141.4c0.8,0.2,1.3,1,1.1,1.8c-8.3,31.3-33,55.3-64.6,61.8C98-75,84.7-75.5,72-79.1
		l-0.8-0.2l-0.1,0L61.6-83l8,9.8c0.5,0.6,0.4,1.5-0.1,2l-0.1,0.1c-0.6,0.5-1.5,0.4-2-0.1l-0.1-0.1L55.7-85.5
		c-0.7-0.9-0.3-2.2,0.8-2.4l0.1,0l18.2-2.6c0.8-0.1,1.6,0.5,1.7,1.3c0.1,0.8-0.4,1.5-1.1,1.7l-0.1,0l-12.5,1.8l9.4,3.6l0.7,0.2
		c11.9,3.3,24.4,3.8,36.7,1.4l0.8-0.2c30.5-6.3,54.3-29.5,62.3-59.7C172.9-141.2,173.7-141.6,174.5-141.4z"/>
	<path id="Stroke-3" class="st2" d="M109.1-263.8c34.4,10,60.8,33.3,70.3,62l0.3,0.9l0,0.1l2.1,10l3.8-12c0.3-0.8,1.1-1.2,1.9-1
		c0.7,0.2,1.2,1,1,1.7l0,0.1l-5.5,17.5c-0.3,1.1-1.7,1.4-2.5,0.6l-0.1-0.1l-12.1-13.8c-0.5-0.6-0.5-1.6,0.1-2.1c0.6-0.5,1.5-0.5,2,0
		l0.1,0.1l8.3,9.5l-2.1-9.9l-0.2-0.8c-9-27.5-34.3-49.9-67.3-59.8l-1-0.3c-0.8-0.2-1.3-1.1-1-1.9
		C107.5-263.6,108.3-264.1,109.1-263.8z"/>
	<path id="Stroke-5" class="st2" d="M1.6-226.2l0,0.1l-1.3,18.3c-0.1,0.8-0.8,1.4-1.6,1.4c-0.8-0.1-1.4-0.7-1.4-1.5l0-0.1l0.9-12.6
		l-5.6,8.4l-0.3,0.6c-3.3,6.9-5.3,14.6-5.9,22.7l-0.1,0.8c-0.5,7.2,0.2,14.2,2,20.8c0.2,0.8-0.3,1.6-1.1,1.8
		c-0.8,0.2-1.6-0.3-1.8-1.1c-1.9-6.9-2.6-14.3-2.1-21.8c0.5-8.7,2.7-17.1,6.3-24.7l0.4-0.7l0.1-0.2l5.6-8.5l-11.2,5.8
		c-0.7,0.4-1.5,0.1-1.9-0.5l-0.1-0.1c-0.4-0.7-0.1-1.5,0.5-1.9l0.1-0.1l16.3-8.4C0.4-228.1,1.6-227.3,1.6-226.2z"/>
	<path id="Stroke-19" class="st2" d="M184.2-289.7l0.1,0.1l15.6,9.7c1,0.6,0.9,2,0,2.5l-0.1,0.1l-16.4,8.2c-0.7,0.4-1.6,0.1-2-0.7
		c-0.4-0.7-0.1-1.5,0.5-1.9l0.1-0.1l11.3-5.7l-10.2-0.5c-2.9-0.1-5.8-0.1-8.7-0.2c-17.1-0.2-33.4,0.7-49,2.5
		c-23.8,2.8-44.6,7.5-62.6,13.5c-6.3,2.1-11.7,4.2-16.3,6.2c-1.6,0.7-3,1.3-4.1,1.9c-0.4,0.2-0.7,0.4-1,0.5
		c-0.2,0.1-0.3,0.1-0.3,0.2c-0.7,0.4-1.6,0.1-2-0.6c-0.4-0.7-0.1-1.6,0.6-2c0.1,0,0.2-0.1,0.4-0.2c0.3-0.2,0.7-0.3,1.1-0.5
		c1.2-0.6,2.6-1.2,4.2-2c4.7-2.1,10.2-4.2,16.5-6.3c18.1-6.1,39.2-10.8,63.2-13.6c15.7-1.8,32.1-2.7,49.4-2.5c2.2,0,4.4,0.1,6.6,0.1
		l2.2,0.1l10.2,0.5l-10.7-6.7c-0.7-0.4-0.9-1.3-0.5-1.9l0.1-0.1C182.6-289.8,183.5-290,184.2-289.7z"/>
	<path id="Fill-21" class="st3" d="M106.7-262.3c0.1-1.9,1.3-3.5,2.9-3.4c1.5,0.1,2.7,1.7,2.6,3.6c-0.1,1.9-1.3,3.5-2.9,3.4
		C107.8-258.8,106.6-260.4,106.7-262.3"/>
	<path id="Stroke-45" class="st2" d="M-15.2-150.6l0.1,0l13.5,2.5c0.7,0.1,1,1,0.6,1.6l-0.1,0.1l-9.2,10.3c-0.4,0.4-1,0.4-1.4,0.1
		c-0.4-0.3-0.4-0.9-0.2-1.3l0.1-0.1l6.6-7.4l-7.6,2.6l-0.4,0.2c-12.4,6.6-20.5,19.4-20.6,33.7l0,0.5c0,0.6-0.4,1-1,1s-1-0.4-1-1
		c0-15.3,8.5-29,21.7-36l0.4-0.2l0.1-0.1l7.7-2.6l-9.8-1.8c-0.5-0.1-0.9-0.5-0.8-1l0-0.1C-16.2-150.2-15.7-150.6-15.2-150.6z"/>
	<path id="Stroke-45_1_" class="st2" d="M-31.7-90.3l0-0.1l-2.2-7.9l-2.4,9.7l0,0.1c-0.2,0.5-0.7,0.7-1.2,0.6
		c-0.5-0.1-0.9-0.7-0.7-1.2l3.4-13.4l0-0.1c0.3-0.7,1.1-0.9,1.6-0.3l9.7,9.8l0.1,0.1c0.3,0.4,0.3,1-0.1,1.3l-0.1,0.1
		c-0.4,0.3-1,0.3-1.3-0.1l-7-7.1l2.1,7.8l0.2,0.4c6.2,13.8,19.9,22.8,35.3,22.8c0.6,0,1,0.4,1,1s-0.4,1-1,1
		C-10.7-65.8-25.3-75.5-31.7-90.3z"/>
	<path id="Stroke-45_2_" class="st2" d="M39.2-127l0.1,0.1l2.6,7.7l1.8-9.8l0-0.1c0.1-0.5,0.6-0.8,1.1-0.7c0.5,0.1,0.9,0.6,0.8,1.2
		l-2.5,13.5l0,0.1c-0.2,0.7-1.1,0.9-1.6,0.4l-10.3-9.2l-0.1-0.1c-0.3-0.4-0.3-0.9,0-1.3l0.1-0.1c0.4-0.3,0.9-0.3,1.3,0l7.4,6.6
		l-2.6-7.6l0,0.1C30.8-139,17.6-147.2,3-147.2c-0.6,0-1-0.4-1-1s0.4-1,1-1C18.4-149.2,32.3-140.5,39.2-127z"/>
	<path id="Stroke-45_3_" class="st2" d="M26.7-67.9l-0.1,0L13-70.5c-0.7-0.1-1-1-0.6-1.6l0.1-0.1l9.2-10.2c0.4-0.4,1-0.4,1.4-0.1
		c0.4,0.3,0.4,0.9,0.2,1.3L23.2-81l-6.7,7.4l7.6-2.6l0.4-0.2c12.6-6.5,20.7-19.4,20.9-33.8l0-0.5c0-0.6,0.4-1,1-1c0.6,0,1,0.4,1,1
		c0,15.3-8.6,29.2-21.9,36.1L25-74.4l-0.1,0.1l-7.7,2.6l9.8,1.9c0.5,0.1,0.8,0.6,0.8,1.1l0,0.1C27.6-68.2,27.2-67.9,26.7-67.9z"/>
	<rect x="-8.1" y="-287.9" class="st4" width="58" height="21.2"/>
	<text transform="matrix(1 0 0 1 -8.0684 -280.3468)" class="st5 st6">Validate</text>
	<rect x="141.6" y="-317.8" class="st4" width="58" height="21.2"/>
	<text transform="matrix(1 0 0 1 141.579 -310.1607)" class="st5 st6">Deploy</text>
	<rect x="187.4" y="-127.6" class="st4" width="72.5" height="48.8"/>
	<text transform="matrix(1 0 0 1 187.8495 -120.0143)"><tspan x="0" y="0" class="st5 st6">Activate digital</tspan><tspan x="5.5" y="12" class="st5 st6">organization</tspan></text>
	<rect x="-21.5" y="-162.4" class="st4" width="50.9" height="18.6"/>
	<text transform="matrix(1 0 0 1 -21.4784 -154.8324)" class="st5 st6">Construct</text>
	<rect x="55.8" y="-108.2" class="st4" width="61.1" height="18.6"/>
	<text transform="matrix(1 0 0 1 55.7686 -100.5864)" class="st5 st6">Experience</text>
	<rect x="-15.8" y="-84.5" class="st4" width="61.1" height="18.6"/>
	<text transform="matrix(1 0 0 1 -15.8143 -77.6655)" class="st5 st7">Sprints</text>
</g>
</svg>
