<svg width="28" height="28" viewBox="0 0 28 28" fill="none" xmlns="http://www.w3.org/2000/svg">
<circle cx="13" cy="13" r="12" fill="none" stroke="black" />
<path transform="translate(4, 4)" d="M15.3462 4.69227C15.3462 4.63458 15.3462 4.57689 15.2885 4.4615C15.2308 4.40381 15.2308 4.34612 15.1731 4.28842L11.7116 0.826886C11.6539 0.769193 11.5962 0.711501 11.5385 0.711501C11.4808 0.653809 11.3654 0.653809 11.3077 0.653809H4.96158C4.61542 0.653809 4.38465 0.884578 4.38465 1.23073V2.9615C4.38465 3.30765 4.61542 3.53842 4.96158 3.53842C5.30773 3.53842 5.5385 3.30765 5.5385 2.9615V1.80765H10.7308V4.69227C10.7308 5.03842 10.9616 5.26919 11.3077 5.26919H14.1923V14.5H5.5385V12.1923C5.5385 11.8461 5.30773 11.6153 4.96158 11.6153C4.61542 11.6153 4.38465 11.8461 4.38465 12.1923V15.0769C4.38465 15.423 4.61542 15.6538 4.96158 15.6538H14.7693C15.1154 15.6538 15.3462 15.423 15.3462 15.0769V4.69227ZM11.8847 4.11535V2.61535L13.3847 4.11535H11.8847ZM6.00004 11.0384L8.30773 11.6153C8.36542 11.6153 8.42311 11.6153 8.42311 11.6153C8.59619 11.6153 8.71158 11.5577 8.82696 11.4423C8.94235 11.3269 9.00004 11.0961 9.00004 10.923L8.42311 8.61535C8.42311 8.49996 8.36542 8.44227 8.25004 8.32689L3.05773 3.13458C2.82696 2.90381 2.48081 2.90381 2.25004 3.13458L0.519268 4.86535C0.288499 5.09612 0.288499 5.44227 0.519268 5.67304L5.71158 10.8653C5.76927 10.923 5.88465 10.9807 6.00004 11.0384ZM7.44234 9.42304L7.67311 10.2884L6.80773 10.0577L7.44234 9.42304ZM2.65388 4.34612L6.75004 8.44227L5.82696 9.36535L1.73081 5.26919L2.65388 4.34612ZM13.0385 11.0384C13.0385 11.3846 12.8077 11.6153 12.4616 11.6153H10.7308C10.3847 11.6153 10.1539 11.3846 10.1539 11.0384C10.1539 10.6923 10.3847 10.4615 10.7308 10.4615H12.4616C12.8077 10.4615 13.0385 10.6923 13.0385 11.0384ZM13.0385 8.73073C13.0385 9.07689 12.8077 9.30765 12.4616 9.30765H10.1539C9.80773 9.30765 9.57696 9.07689 9.57696 8.73073C9.57696 8.38458 9.80773 8.15381 10.1539 8.15381H12.4616C12.8077 8.15381 13.0385 8.38458 13.0385 8.73073Z" fill="black"/>
</svg>
