<?xml version="1.0" encoding="utf-8"?>
<!-- Generator: Adobe Illustrator 24.0.1, SVG Export Plug-In . SVG Version: 6.00 Build 0)  -->
<svg version="1.1" id="Layer_1" xmlns="http://www.w3.org/2000/svg" xmlns:xlink="http://www.w3.org/1999/xlink" x="0px" y="0px"
	 viewBox="0 0 305 282" style="enable-background:new 0 0 305 282;" xml:space="preserve">
<style type="text/css">
	.st0{fill:#0097A9;}
	.st1{display:none;fill-rule:evenodd;clip-rule:evenodd;fill:#FFFFFF;}
	.st2{fill-rule:evenodd;clip-rule:evenodd;fill:#0097A9;fill-opacity:0.2;}
	.st3{fill-rule:evenodd;clip-rule:evenodd;fill:#0097A9;}
	.st4{fill:none;}
	.st5{font-family:'Open Sans Semibold';}
	.st6{font-size:10px;}
</style>
<title>Imagine - wheel</title>
<desc>Created with Sketch.</desc>
<path id="Stroke-11" class="st0" d="M30.5,129l0,0.1l4.4,17.8c0.2,0.8-0.3,1.6-1.1,1.8c-0.8,0.2-1.5-0.2-1.8-1l0-0.1l-3-12.3
	l-2.7,9.8l-0.2,1.1c-1.2,6.2-1.8,12.4-1.9,18.6l0,1.2c0,13.6,2.7,27,8,39.4c0.3,0.8,0,1.6-0.8,2c-0.8,0.3-1.6,0-2-0.8
	c-5.4-12.7-8.2-26.5-8.2-40.6c0-6.8,0.7-13.7,2-20.4l0.2-1.2l0-0.1l2.8-9.9l-8.9,8.9c-0.5,0.5-1.4,0.6-2,0.1l-0.1-0.1
	c-0.5-0.5-0.6-1.4-0.1-2l0.1-0.1l13-13C28.8,127.6,30.1,127.9,30.5,129z"/>
<path id="Stroke-13" class="st0" d="M183.7,243.4c0.5,0.6,0.4,1.6-0.2,2.1c-18.7,15.2-40,23.4-62.3,23.4c-16.2,0-31.9-4.3-46.7-12.5
	l-0.8-0.4l-8.5-5.6l5.8,11.2c0.4,0.7,0.1,1.5-0.5,1.9l-0.1,0.1c-0.7,0.4-1.5,0.1-1.9-0.5l-0.1-0.1L60,246.5c-0.5-1,0.2-2.1,1.2-2.2
	l0.1,0l0.1,0l18.3,1.3c0.8,0.1,1.4,0.8,1.4,1.6c-0.1,0.8-0.7,1.4-1.5,1.4l-0.1,0l-12.6-0.9l8.4,5.6c14.5,8.3,29.9,12.5,45.9,12.5
	c21.6,0,42.2-7.9,60.4-22.7C182.3,242.6,183.2,242.7,183.7,243.4z"/>
<path id="Stroke-15" class="st0" d="M210.2,125.8c7.6,13.2,11.6,27.9,11.6,43.1c0,6.4-0.7,12.8-2.2,19l-0.2,1l0,0.1l-3.3,9.6
	l9.4-8.5c0.6-0.5,1.4-0.5,2,0l0.1,0.1c0.5,0.6,0.5,1.4,0,2l-0.1,0.1l-13.6,12.3c-0.8,0.8-2.2,0.3-2.4-0.7l0-0.1l-3.4-18
	c-0.2-0.8,0.4-1.6,1.2-1.8c0.8-0.1,1.5,0.3,1.7,1.1l0,0.1l2.4,12.4l3.2-9.6l0.2-0.9c1.3-5.7,2-11.5,2.1-17.3l0-1
	c0-14.6-3.9-28.8-11.2-41.6c-0.4-0.7-0.2-1.6,0.6-2S209.8,125.1,210.2,125.8z"/>
<path id="Stroke-29" class="st0" d="M187.6,44.2l0.1,0.1l16.2,8.7c1,0.5,1.1,1.9,0.2,2.5l-0.1,0.1l-15.8,9.3
	c-0.7,0.4-1.6,0.2-2.1-0.5c-0.4-0.7-0.2-1.5,0.4-2l0.1-0.1l10.9-6.4l-10.2,0.2c-53.8,2.1-93.3,15-120.7,34.4
	C56,98,48.7,104.9,44.7,111.2c-0.4,0.7-1.4,0.9-2.1,0.5c-0.7-0.4-0.9-1.4-0.5-2.1C46.4,102.9,54,95.7,64.9,88
	c27.6-19.5,67.2-32.6,120.7-34.8l1.6-0.1l10.2-0.2l-11.1-6c-0.7-0.4-1-1.2-0.7-1.9l0.1-0.1C186.1,44.2,186.9,43.9,187.6,44.2z"/>
<path id="Stroke-35" class="st0" d="M287.4,43.3l0.1,0.1l16.2,8.7c1,0.5,1.1,1.9,0.2,2.5l-0.1,0.1L288,64c-0.7,0.4-1.6,0.2-2.1-0.5
	c-0.4-0.7-0.2-1.5,0.4-2l0.1-0.1l10.9-6.4l-10.2,0.2l-29.7,0.6c-0.8,0-1.5-0.6-1.5-1.5c0-0.8,0.6-1.4,1.3-1.5l0.1,0l29.7-0.6
	l10.2-0.2l-11.1-6c-0.7-0.4-1-1.2-0.7-1.9l0.1-0.1C285.9,43.3,286.7,43,287.4,43.3z"/>
<path id="Fill-41" class="st1" d="M24.5,106.2c0-12.3,10.2-22.3,22.8-22.3c12.6,0,22.8,10,22.8,22.3s-10.2,22.3-22.8,22.3
	C34.7,128.5,24.5,118.5,24.5,106.2"/>
<ellipse id="Oval-Copy-5" class="st2" cx="123.3" cy="166.6" rx="55" ry="55"/>
<ellipse id="Oval-Copy-4" class="st3" cx="123.3" cy="166.6" rx="40" ry="40"/>
<rect x="-3.2" y="46.4" class="st4" width="90.4" height="29.2"/>
<text transform="matrix(1 0 0 1 8.6254 54.0139)"><tspan x="0" y="0" class="st5 st6">Adapt leading</tspan><tspan x="11.5" y="12" class="st5 st6">practices</tspan></text>
<rect x="235" y="216.9" class="st4" width="41.6" height="29.2"/>
<text transform="matrix(1 0 0 1 235.035 224.4642)"><tspan x="0" y="0" class="st5 st6">Launch</tspan><tspan x="0" y="12" class="st5 st6">journey</tspan></text>
<rect x="227.9" y="97.4" class="st4" width="45.2" height="29.2"/>
<text transform="matrix(1 0 0 1 227.9494 104.9656)"><tspan x="0" y="0" class="st5 st6">Define</tspan><tspan x="0" y="12" class="st5 st6">purpose</tspan></text>
<rect x="199.8" y="0.5" class="st4" width="68" height="27"/>
<text transform="matrix(1 0 0 1 218.0229 8.1004)"><tspan x="0" y="0" class="st5 st6">Define</tspan><tspan x="-14.5" y="12" class="st5 st6">sustainment</tspan></text>
<rect x="-13.1" y="257.4" class="st4" width="90.4" height="29.2"/>
<text transform="matrix(1 0 0 1 1.3565 265.0033)"><tspan x="0" y="0" class="st5 st6">Apply design</tspan><tspan x="10.8" y="12" class="st5 st6">thinking</tspan></text>
</svg>
