<?xml version="1.0" encoding="utf-8"?>
<!-- Generator: Adobe Illustrator 24.0.1, SVG Export Plug-In . SVG Version: 6.00 Build 0)  -->
<svg version="1.1" id="Layer_1" xmlns="http://www.w3.org/2000/svg" xmlns:xlink="http://www.w3.org/1999/xlink" x="0px" y="0px"
	 viewBox="0 0 305 282" style="enable-background:new 0 0 305 282;" xml:space="preserve">
<style type="text/css">
	.st0{fill:none;stroke:#002FBA;stroke-width:3;stroke-linecap:round;stroke-linejoin:round;}
	.st1{fill:none;stroke:#00A651;stroke-width:2;}
	.st2{fill:#002FBA;}
	.st3{fill-rule:evenodd;clip-rule:evenodd;fill:#012169;fill-opacity:0.2;}
	.st4{fill-rule:evenodd;clip-rule:evenodd;fill:#002FBA;}
	.st5{fill:none;}
	.st6{font-family:'Open Sans Semibold';}
	.st7{font-size:10px;}
</style>
<title>Insights - wheel</title>
<desc>Created with Sketch.</desc>
<g id="ALL-pages">
	<path id="Stroke-5" class="st0" d="M148.6,72.2c11.2,2.5,22,7.3,31.6,13.6l2.9,2.3"/>
	<line id="Stroke-7" class="st1" x1="55.2" y1="108.8" x2="55.2" y2="108.8"/>
	<path id="Stroke-9" class="st2" d="M39.8,135.3l0,0.1l4.7,17.8c0.2,0.8-0.3,1.6-1.1,1.8c-0.8,0.2-1.5-0.2-1.8-0.9l0-0.1l-3.2-12.2
		l-2.6,9.8c-1.4,7.1-2.1,14.3-2.1,21.5c0,15.8,3.4,31.3,9.8,45.3c0.3,0.8,0,1.6-0.7,2s-1.6,0-2-0.7c-6.6-14.4-10.1-30.3-10.1-46.6
		c0-7,0.6-14,1.9-21l0.2-1.2l2.6-9.9l-8.8,9.1c-0.5,0.6-1.4,0.6-2,0.1l-0.1-0.1c-0.6-0.5-0.6-1.4-0.1-2l0.1-0.1l12.8-13.2
		C38.1,134,39.4,134.3,39.8,135.3z"/>
	<path id="Stroke-11" class="st2" d="M77.7,247.7l0.1,0l18.3,1.7c0.8,0.1,1.4,0.8,1.4,1.6c-0.1,0.8-0.7,1.4-1.5,1.4l-0.1,0
		l-12.6-1.1l8.3,5.7l0.7,0.4c13.6,7.9,28,12,42.9,12.2l0.8,0c19.1,0,37.5-6.6,54-19.1c0.7-0.5,1.6-0.4,2.1,0.3
		c0.5,0.7,0.4,1.6-0.3,2.1c-17,12.9-36,19.8-55.8,19.8c-15.8,0-31-4.3-45.3-12.6l-0.8-0.4l-0.1-0.1l-8.4-5.8l5.6,11.3
		c0.3,0.7,0.1,1.5-0.6,1.9l-0.1,0.1c-0.7,0.3-1.5,0.1-1.9-0.6l-0.1-0.1l-8.1-16.5c-0.5-1,0.2-2.1,1.2-2.2L77.7,247.7z"/>
	<path id="Stroke-13" class="st2" d="M211.9,127.6c8,13.4,12.2,28.3,12.2,43.7c0,5.1-0.5,10.2-1.4,15.2l-0.2,1.1l0,0.1l-2.9,9.8
		l9.1-8.8c0.6-0.5,1.4-0.6,2-0.1l0.1,0.1c0.5,0.6,0.6,1.4,0.1,2l-0.1,0.1l-13.2,12.8c-0.8,0.8-2.1,0.4-2.5-0.6l0-0.1l-4.1-17.9
		c-0.2-0.8,0.3-1.6,1.1-1.8c0.8-0.2,1.5,0.3,1.8,1l0,0.1l2.8,12.3l2.9-9.7l0.2-1c0.8-4.5,1.3-9,1.4-13.6l0-1.1
		c0-14.9-4.1-29.3-11.8-42.2c-0.4-0.7-0.2-1.6,0.5-2.1C210.6,126.7,211.5,126.9,211.9,127.6z"/>
	<path id="Stroke-23" class="st2" d="M190.9,46.7l0.1,0.1l16.2,8.7c1,0.5,1.1,1.9,0.2,2.5l-0.1,0.1l-15.8,9.3
		c-0.7,0.4-1.6,0.2-2.1-0.5c-0.4-0.7-0.2-1.5,0.4-2l0.1-0.1l10.9-6.4l-10.2,0.2c-44.9,1.8-79.8,11.9-105.9,27.5
		c-10.1,6.1-18.2,12.5-24.4,19c-2.2,2.3-3.9,4.3-5.4,6.2c-0.5,0.6-0.9,1.2-1.2,1.7c-0.2,0.3-0.3,0.5-0.4,0.6
		c-0.4,0.7-1.4,0.9-2.1,0.5c-0.7-0.4-0.9-1.4-0.5-2.1c0.1-0.1,0.2-0.4,0.5-0.7c0.4-0.5,0.8-1.2,1.3-1.8c1.5-2,3.3-4.1,5.6-6.5
		c6.4-6.7,14.7-13.3,25-19.5c26.3-15.7,61.2-25.9,106-27.9l1.4-0.1l10.2-0.2l-11.1-6c-0.7-0.4-1-1.2-0.7-1.9l0.1-0.1
		C189.4,46.7,190.2,46.4,190.9,46.7z"/>
	<path id="Stroke-29" class="st2" d="M287.5,45.8l0.1,0.1l16.2,8.7c1,0.5,1.1,1.9,0.2,2.5l-0.1,0.1L288,66.5
		c-0.7,0.4-1.6,0.2-2.1-0.5c-0.4-0.7-0.2-1.5,0.4-2l0.1-0.1l10.9-6.4l-10.2,0.2l-28.4,0.6c-0.8,0-1.5-0.6-1.5-1.5
		c0-0.8,0.6-1.4,1.3-1.5l0.1,0l28.4-0.6l10.2-0.2l-11.1-6c-0.7-0.4-1-1.2-0.7-1.9l0.1-0.1C285.9,45.8,286.8,45.5,287.5,45.8z"/>
	<circle id="Oval-Copy-8" class="st3" cx="122.5" cy="170" r="55"/>
	<circle id="Oval-Copy-9" class="st4" cx="122.5" cy="170" r="40"/>
</g>
<rect x="185.1" y="1" class="st5" width="92.3" height="21.2"/>
<text transform="matrix(1 0 0 1 209.6093 8.6004)"><tspan x="0" y="0" class="st6 st7">Establish</tspan><tspan x="-11.4" y="12" class="st6 st7">business case</tspan></text>
<rect x="4.4" y="56.1" class="st5" width="92.3" height="21.2"/>
<text transform="matrix(1 0 0 1 29.4536 63.6916)"><tspan x="0" y="0" class="st6 st7">Estimate</tspan><tspan x="8.7" y="12" class="st6 st7">costs</tspan></text>
<rect x="212.7" y="96.8" class="st5" width="92.3" height="21.2"/>
<text transform="matrix(1 0 0 1 226.6621 104.3912)"><tspan x="0" y="0" class="st6 st7">Create digital</tspan><tspan x="8" y="12" class="st6 st7">ambitions</tspan></text>
<rect x="208" y="225" class="st5" width="92.3" height="21.2"/>
<text transform="matrix(1 0 0 1 233.4092 232.6003)"><tspan x="0" y="0" class="st6 st7">Discover</tspan><tspan x="6.8" y="12" class="st6 st7">scope</tspan></text>
<rect x="-22" y="257.8" class="st5" width="92.3" height="21.2"/>
<text transform="matrix(1 0 0 1 4.4346 265.3911)"><tspan x="0" y="0" class="st6 st7">Develop</tspan><tspan x="-2.4" y="12" class="st6 st7">roadmap</tspan></text>
</svg>
