<?xml version="1.0" encoding="utf-8"?>
<!-- Generator: Adobe Illustrator 24.0.1, SVG Export Plug-In . SVG Version: 6.00 Build 0)  -->
<svg version="1.1" id="Layer_1" xmlns="http://www.w3.org/2000/svg" xmlns:xlink="http://www.w3.org/1999/xlink" x="0px" y="0px"
	 viewBox="0 0 305 254" style="enable-background:new 0 0 305 254;" xml:space="preserve">
<style type="text/css">
	.st0{fill:#86BC40;}
	.st1{fill-rule:evenodd;clip-rule:evenodd;fill:#86BC40;fill-opacity:0.2;}
	.st2{fill-rule:evenodd;clip-rule:evenodd;fill:#86BC25;}
	.st3{fill:none;}
	.st4{font-family:'Open Sans Semibold';}
	.st5{font-size:10px;}
</style>
<title>Run - wheel</title>
<desc>Created with Sketch.</desc>
<path id="Stroke-1" class="st0" d="M230.1,176.6l2.7,1.3C214.4,217.6,177.4,243,136,243c-16.8,0-33.1-4.3-48-12.3l-0.8-0.4l-0.1-0.1
	l-8.5-5.6l5.8,11.2l-2.7,1.4l-8.5-16.3l-1.2-2.4l2.7,0.2l18.3,1.2l-0.2,3l-12.6-0.8l8.5,5.5l0.7,0.4c14.1,7.7,29.7,11.8,45.7,12
	l0.9,0C176.1,240,212.2,215.3,230.1,176.6z"/>
<path id="Stroke-3" class="st0" d="M161.9,39.1c34.2,10.7,60.8,35.1,71.2,65.5l0.3,0.9l0,0.1l2.4,9.9l3.5-12.1l2.9,0.8l-5,17.7
	l-0.7,2.6l-1.8-2L222.2,109l2.2-2l8.6,9.3l-2.4-9.9l-0.3-0.8c-10-29.1-35.4-52.7-68.2-63.3l-1-0.3L161.9,39.1z"/>
<path id="Stroke-5" class="st0" d="M55.2,86.8l0.2,2.7l1.4,18.3l-3,0.2l-1-12.6l-4.3,9.2l-0.3,0.8c-4,11.1-6.2,23.4-6.3,36.2l0,1
	c0,10.3,1.3,20.2,3.8,29.5l0.3,1l-2.9,0.8c-2.8-9.8-4.2-20.4-4.2-31.3c0-13.5,2.2-26.5,6.5-38.3l0.3-0.9l0-0.1l4.3-9.2l-10.3,7.4
	l-1.7-2.4L53,88.4L55.2,86.8z"/>
<path id="Stroke-31" class="st0" d="M221.8,12.4l15.5,9.8l2.3,1.4l-2.4,1.2L220.7,33l-1.3-2.7l11.3-5.6l-10.1-0.5
	c-43.3-1.3-79.6,5.3-109.3,16.5c-5.7,2.2-10.7,4.4-14.9,6.5c-1.5,0.7-2.7,1.4-3.8,2c-0.4,0.2-0.7,0.4-0.9,0.5
	c-0.1,0.1-0.2,0.1-0.3,0.2l0,0l-1.6-2.6c0.1,0,0.2-0.1,0.4-0.2c0.3-0.2,0.6-0.4,1-0.6c1.1-0.6,2.4-1.3,3.9-2
	c4.3-2.1,9.4-4.4,15.2-6.6c29.7-11.2,66-17.9,109.2-16.7l1.3,0l10.2,0.5l-10.7-6.7L221.8,12.4z"/>
<ellipse id="Oval-Copy-6" class="st1" cx="137.4" cy="140.4" rx="54" ry="55"/>
<circle id="Oval-Copy-7" class="st2" cx="137.4" cy="140.4" r="40"/>
<rect x="263" y="176.7" class="st3" width="41" height="21.2"/>
<text transform="matrix(1 0 0 1 263.0001 184.3256)" class="st4 st5">Stablilze</text>
<rect x="1.5" y="236.4" class="st3" width="58" height="21.2"/>
<text transform="matrix(1 0 0 1 1.5001 243.9953)" class="st4 st5">Optimize</text>
<rect x="13.7" y="3.1" class="st3" width="92.3" height="21.2"/>
<text transform="matrix(1 0 0 1 37.8405 10.7482)"><tspan x="0" y="0" class="st4 st5">Continue</tspan><tspan x="-20.2" y="12" class="st4 st5">digital innovation</tspan></text>
</svg>
