<svg width="28" height="28" viewBox="0 0 28 28" fill="none" xmlns="http://www.w3.org/2000/svg">
<path d="M14.0005 0.15387C6.32737 0.15387 0.154297 6.32695 0.154297 14C0.154297 21.6731 6.32737 27.8462 14.0005 27.8462C21.6735 27.8462 27.8466 21.6731 27.8466 14C27.8466 6.32695 21.6735 0.15387 14.0005 0.15387ZM8.23122 15.1539C7.5966 15.1539 7.07737 14.6346 7.07737 14C7.07737 13.3654 7.5966 12.8462 8.23122 12.8462C8.86584 12.8462 9.38507 13.3654 9.38507 14C9.38507 14.6346 8.86584 15.1539 8.23122 15.1539ZM14.0005 15.1539C13.3658 15.1539 12.8466 14.6346 12.8466 14C12.8466 13.3654 13.3658 12.8462 14.0005 12.8462C14.6351 12.8462 15.1543 13.3654 15.1543 14C15.1543 14.6346 14.6351 15.1539 14.0005 15.1539ZM19.7697 15.1539C19.1351 15.1539 18.6158 14.6346 18.6158 14C18.6158 13.3654 19.1351 12.8462 19.7697 12.8462C20.4043 12.8462 20.9235 13.3654 20.9235 14C20.9235 14.6346 20.4043 15.1539 19.7697 15.1539Z" fill="#007680"/>
</svg>
