<?xml version="1.0" encoding="utf-8"?>
<!-- Generator: Adobe Illustrator 24.0.1, SVG Export Plug-In . SVG Version: 6.00 Build 0)  -->
<svg version="1.1" id="Route_1" xmlns="http://www.w3.org/2000/svg" xmlns:xlink="http://www.w3.org/1999/xlink" x="0px" y="0px"
	 viewBox="0 0 52 52" style="enable-background:new 0 0 52 52;" xml:space="preserve">
<style type="text/css">
	.st0{fill:#C6D70C;}
</style>
<path class="st0" d="M35,35.2V28c0-2.2-1.8-3-3-3h-5v-8.2c1.2-0.4,2-1.5,2-2.8c0-1.7-1.3-3-3-3s-3,1.3-3,3c0,1.3,0.8,2.4,2,2.8V25
	h-5c-2.2,0-3,1.8-3,3v7.2c-1.2,0.4-2,1.5-2,2.8c0,1.7,1.3,3,3,3s3-1.3,3-3c0-1.3-0.8-2.4-2-2.8V28c0-0.2,0.1-1,1-1h5v8.2
	c-1.2,0.4-2,1.5-2,2.8c0,1.7,1.3,3,3,3s3-1.3,3-3c0-1.3-0.8-2.4-2-2.8V27h5c0.5,0,1,0.2,1,1v7.2c-1.2,0.4-2,1.5-2,2.8
	c0,1.7,1.3,3,3,3s3-1.3,3-3C37,36.7,36.2,35.6,35,35.2z M26,13c0.6,0,1,0.4,1,1s-0.4,1-1,1s-1-0.4-1-1S25.4,13,26,13z M18,39
	c-0.6,0-1-0.4-1-1s0.4-1,1-1s1,0.4,1,1S18.6,39,18,39z M26,39c-0.6,0-1-0.4-1-1s0.4-1,1-1s1,0.4,1,1S26.6,39,26,39z M34,39
	c-0.6,0-1-0.4-1-1s0.4-1,1-1s1,0.4,1,1S34.6,39,34,39z"/>
<path class="st0" d="M26,4c12.1,0,22,9.9,22,22s-9.9,22-22,22S4,38.1,4,26S13.9,4,26,4 M26,2C12.7,2,2,12.7,2,26s10.7,24,24,24
	s24-10.7,24-24S39.3,2,26,2L26,2z"/>
</svg>
