<?xml version="1.0" encoding="utf-8"?>
<!-- Generator: Adobe Illustrator 24.0.1, SVG Export Plug-In . SVG Version: 6.00 Build 0)  -->
<svg version="1.1" id="Tick" xmlns="http://www.w3.org/2000/svg" xmlns:xlink="http://www.w3.org/1999/xlink" x="0px" y="0px"
	 viewBox="0 0 52 52" style="enable-background:new 0 0 52 52;" xml:space="preserve">
<style type="text/css">
	.st0{fill:#C6D70C;}
	.st1{fill-rule:evenodd;clip-rule:evenodd;fill:#FFFFFF;}
</style>
<path class="st0" d="M26,4c12.1,0,22,9.9,22,22s-9.9,22-22,22S4,38.1,4,26S13.9,4,26,4 M26,2C12.7,2,2,12.7,2,26s10.7,24,24,24
	s24-10.7,24-24S39.3,2,26,2L26,2z"/>
<circle class="st0" cx="25.9" cy="26.1" r="22.1"/>
<g id="ALL-pages">
	<g id="ExploreAscend" transform="translate(-957.000000, -836.000000)">
		<g id="Deliver" transform="translate(884.000000, 314.000000)">
			<g id="deliver---wheel" transform="translate(44.325843, 319.000000)">
				<g id="sprint" transform="translate(18.674157, 193.696629)">
					<g transform="translate(10.000000, 9.303371)">
						<g id="Group-3">
							<g id="Clip-2">
							</g>
							<path id="Fill-1" class="st1" d="M38,26.9C37.9,27,37.7,27,37.5,27L33,26.4h-0.1c-0.2,0-0.3-0.2-0.4-0.4c0,0,0,0,0-0.1l-1-2
								c-0.2-0.3-0.6-0.5-0.9-0.3c-0.1,0.1-0.2,0.2-0.3,0.3l-1.9,3.3c-0.1,0.2-0.1,0.4,0,0.6l2.1,3.9c0,0,0,0.1,0.1,0.1
								c0.2,0.2,0.2,0.6,0.1,0.8L28,38.7c-0.2,0.3-0.5,0.5-0.9,0.5H27c-0.1,0-0.3-0.1-0.4-0.2c-0.3-0.3-0.4-0.7-0.2-1.1l2.3-5
								c0.1-0.2,0.1-0.5-0.1-0.7l-3.3-4.1c-0.7-0.9-0.8-2.2-0.2-3.2l2.3-3.4c0.2-0.3,0.1-0.7-0.2-0.9c0,0,0,0-0.1,0L25,19.3
								c-0.3-0.1-0.6-0.1-0.8,0.1l-2.7,2.7c-0.1,0.1-0.3,0.2-0.5,0.2c-0.1,0-0.2-0.1-0.3-0.2c-0.2-0.3-0.2-0.6,0.1-0.8l3.2-3.2
								c0.2-0.2,0.4-0.2,0.6-0.1l0.4,0.1c1.4,0.5,2.8,1.1,4.2,1.8c0.6,0.3,1.4,0.2,1.8-0.3c0.2-0.3,0.3-0.6,0.2-1
								c-0.1-0.4-0.1-0.8,0-1.2c0.3-0.9,1.2-1.5,2.2-1.4c1.1,0.1,1.9,1.1,1.8,2.3c0,0.1,0,0.2,0,0.2c-0.2,1-1.2,1.7-2.2,1.6h-0.2
								c-0.5-0.1-1,0.2-1.1,0.7c-0.1,0.3,0,0.6,0.2,0.8c0.2,0.2,0.4,0.5,0.5,0.8l1.1,2.6c0.1,0.2,0.3,0.4,0.5,0.4l3.7,0.5
								c0.3,0,0.6,0.3,0.6,0.6C38.2,26.6,38.1,26.8,38,26.9L38,26.9z M20.9,32.2L20.9,32.2c-0.3,0.2-0.5,0.3-0.8,0.2H20l-4.6-1.7
								c-0.2-0.1-0.4-0.3-0.5-0.5s-0.1-0.5,0-0.7c0.2-0.4,0.7-0.6,1.1-0.4l3.7,1.3c0.2,0.1,0.5,0,0.7-0.1l3.2-3
								c0.2,0.5,0.4,1,0.7,1.4l0.4,0.5L20.9,32.2z M37.8,24.5l-3.4-0.4l-0.9-2.2c-0.1-0.2-0.2-0.4-0.3-0.5c1.9-0.1,3.3-1.7,3.2-3.6
								s-1.7-3.3-3.6-3.2c-1.9,0.1-3.3,1.7-3.2,3.6c0,0.2,0,0.3,0.1,0.5h-0.1c-1.4-0.8-2.9-1.4-4.4-1.9l-0.4-0.1
								c-0.7-0.2-1.4,0-1.9,0.5l-3.2,3.2c-0.7,0.7-0.8,1.9-0.1,2.6c0.7,0.8,1.9,0.9,2.7,0.2l0.1-0.1l2.4-2.3l1.1,0.6L24,24.3l0,0
								c-0.3,0.5-0.5,1-0.5,1.6l-3.7,3.4l-3.3-1.2c-1.1-0.4-2.2,0.1-2.7,1.1c-0.3,0.6-0.3,1.2,0,1.8c0.2,0.6,0.7,1,1.3,1.2l4.6,1.7
								c0.2,0.1,0.5,0.1,0.7,0.1c0.5,0,1-0.2,1.4-0.5l3.9-2.8l1.8,2.3l-2.1,4.6c-0.4,0.9-0.2,2,0.5,2.6c0.3,0.2,0.6,0.4,0.9,0.5
								c0.1,0,0.2,0,0.3,0c0.1,0,0.2,0,0.2,0c0.8,0,1.6-0.5,2-1.3l2.7-5.9c0.3-0.7,0.2-1.5-0.2-2.2l-1.9-3.5l1.1-2l0.4,0.8
								c0.2,0.6,0.7,1,1.3,1.2c0.1,0,0.1,0,0.2,0l4.5,0.6c0.5,0.1,1-0.1,1.5-0.4c0.4-0.3,0.7-0.8,0.7-1.3
								C39.6,25.5,38.8,24.7,37.8,24.5L37.8,24.5z"/>
						</g>
						<path id="Fill-4" class="st1" d="M14.2,21.5h2.6c0.4,0,0.7-0.2,0.7-0.5s-0.3-0.5-0.7-0.5h-2.6c-0.4,0-0.7,0.2-0.7,0.5
							C13.5,21.2,13.8,21.5,14.2,21.5"/>
						<path id="Fill-6" class="st1" d="M16.2,18.5h2.6c0.4,0,0.7-0.2,0.7-0.5s-0.3-0.5-0.7-0.5h-2.6c-0.4,0-0.7,0.2-0.7,0.5
							C15.5,18.2,15.8,18.5,16.2,18.5"/>
						<path id="Fill-8" class="st1" d="M15.5,25c0,0.3,0.3,0.5,0.7,0.5h2.6c0.4,0,0.7-0.2,0.7-0.5s-0.3-0.5-0.7-0.5h-2.6
							C15.8,24.5,15.5,24.7,15.5,25"/>
					</g>
				</g>
			</g>
		</g>
	</g>
</g>
</svg>
