<?xml version="1.0" encoding="utf-8"?>
<!-- Generator: Adobe Illustrator 24.0.1, SVG Export Plug-In . SVG Version: 6.00 Build 0)  -->
<svg version="1.1" id="Bullseye" xmlns="http://www.w3.org/2000/svg" xmlns:xlink="http://www.w3.org/1999/xlink" x="0px" y="0px"
	 viewBox="0 0 52 52" style="enable-background:new 0 0 52 52;" xml:space="preserve">
<style type="text/css">
	.st0{fill:#C6D70C;}
</style>
<path class="st0" d="M26,4c12.1,0,22,9.9,22,22s-9.9,22-22,22S4,38.1,4,26S13.9,4,26,4 M26,2C12.7,2,2,12.7,2,26s10.7,24,24,24
	s24-10.7,24-24S39.3,2,26,2L26,2z"/>
<path class="st0" d="M39,15h-2v-2c0-0.6-0.4-1-1-1s-1,0.4-1,1v2.6l-0.6,0.6c-2.3-2-5.2-3.1-8.4-3.1c-7.2,0-13,5.8-13,13
	c0,3.7,1.6,7.1,4.1,9.5l-1.8,1.8c-0.4,0.4-0.4,1,0,1.4c0.2,0.2,0.5,0.3,0.7,0.3c0.2,0,0.5-0.1,0.7-0.3l2-2c2.1,1.4,4.6,2.3,7.3,2.3
	s5.2-0.8,7.3-2.3l2,2c0.2,0.2,0.5,0.3,0.7,0.3s0.5-0.1,0.7-0.3c0.4-0.4,0.4-1,0-1.4l-1.8-1.8c2.5-2.4,4.1-5.7,4.1-9.5
	c0-3.2-1.2-6.2-3.1-8.4l0.6-0.6H39c0.6,0,1-0.4,1-1S39.6,15,39,15z M37,26c0,6.1-4.9,11-11,11s-11-4.9-11-11s4.9-11,11-11
	c2.7,0,5.1,1,7,2.6L31.6,19c-1.5-1.2-3.5-2-5.6-2c-5,0-9,4-9,9s4,9,9,9s9-4,9-9c0-2.1-0.7-4.1-2-5.6l1.4-1.4C36,20.9,37,23.3,37,26z
	 M33,26c0,3.9-3.1,7-7,7s-7-3.1-7-7s3.1-7,7-7c1.6,0,3,0.5,4.2,1.4l-1.4,1.4C28,21.3,27,21,26,21c-2.8,0-5,2.2-5,5s2.2,5,5,5
	s5-2.2,5-5c0-1-0.3-2-0.8-2.8l1.4-1.4C32.5,23,33,24.4,33,26z M29,26c0,1.7-1.3,3-3,3s-3-1.3-3-3s1.3-3,3-3c0.5,0,0.9,0.1,1.3,0.3
	l-2,2c-0.4,0.4-0.4,1,0,1.4c0.2,0.2,0.5,0.3,0.7,0.3s0.5-0.1,0.7-0.3l2-2C28.9,25.1,29,25.5,29,26z"/>
</svg>
