<?xml version="1.0" encoding="utf-8"?>
<!-- Generator: Adobe Illustrator 24.0.1, SVG Export Plug-In . SVG Version: 6.00 Build 0)  -->
<svg version="1.1" id="Bullseye" xmlns="http://www.w3.org/2000/svg" xmlns:xlink="http://www.w3.org/1999/xlink" x="0px" y="0px"
	 viewBox="0 0 52 52" style="enable-background:new 0 0 52 52;" xml:space="preserve">
<style type="text/css">
	.st0{fill:#C6D70C;}
</style>
<path class="st0" d="M25.3,25.3c-0.4,0.4-0.4,1,0,1.4c0.2,0.2,0.5,0.3,0.7,0.3s0.5-0.1,0.7-0.3l2-2c0.2,0.4,0.3,0.8,0.3,1.3
	c0,1.7-1.3,3-3,3s-3-1.3-3-3s1.3-3,3-3c0.5,0,0.9,0.1,1.3,0.3L25.3,25.3z M33,20.4c1.2,1.5,2,3.5,2,5.6c0,5-4,9-9,9s-9-4-9-9
	s4-9,9-9c2.1,0,4.1,0.7,5.6,2l1.4-1.4C31.1,16,28.7,15,26,15c-6.1,0-11,4.9-11,11s4.9,11,11,11s11-4.9,11-11c0-2.7-1-5.1-2.6-7
	L33,20.4z M26,19c-3.9,0-7,3.1-7,7s3.1,7,7,7s7-3.1,7-7c0-1.6-0.5-3-1.4-4.2l-1.4,1.4C30.7,24,31,25,31,26c0,2.8-2.2,5-5,5
	s-5-2.2-5-5s2.2-5,5-5c1,0,2,0.3,2.8,0.8l1.4-1.4C29,19.5,27.6,19,26,19z M50,26c0,13.3-10.7,24-24,24S2,39.3,2,26S12.7,2,26,2
	S50,12.7,50,26z M40,16c0-0.6-0.4-1-1-1h-2v-2c0-0.6-0.4-1-1-1s-1,0.4-1,1v2.6l-0.6,0.6c-2.3-2-5.2-3.1-8.4-3.1c-7.2,0-13,5.8-13,13
	c0,3.7,1.6,7.1,4.1,9.5l-1.8,1.8c-0.4,0.4-0.4,1,0,1.4c0.2,0.2,0.5,0.3,0.7,0.3c0.2,0,0.5-0.1,0.7-0.3l2-2c2.1,1.4,4.6,2.3,7.3,2.3
	s5.2-0.8,7.3-2.3l2,2c0.2,0.2,0.5,0.3,0.7,0.3s0.5-0.1,0.7-0.3c0.4-0.4,0.4-1,0-1.4l-1.8-1.8c2.5-2.4,4.1-5.7,4.1-9.5
	c0-3.2-1.2-6.2-3.1-8.4l0.6-0.6H39C39.6,17,40,16.6,40,16z"/>
</svg>
